<?xml version="1.0" encoding="utf-8" standalone="no"?>
<!DOCTYPE svg PUBLIC "-//W3C//DTD SVG 1.1//EN"
  "http://www.w3.org/Graphics/SVG/1.1/DTD/svg11.dtd">
<svg height="569.99952pt" version="1.1" viewBox="0 0 1073.99952 569.99952" width="1073.99952pt" xmlns="http://www.w3.org/2000/svg" xmlns:xlink="http://www.w3.org/1999/xlink">
 <metadata>
  <rdf:RDF xmlns:cc="http://creativecommons.org/ns#" xmlns:dc="http://purl.org/dc/elements/1.1/" xmlns:rdf="http://www.w3.org/1999/02/22-rdf-syntax-ns#">
   <cc:Work>
    <dc:type rdf:resource="http://purl.org/dc/dcmitype/StillImage"/>
    <dc:date>2021-08-18T15:22:29.271800</dc:date>
    <dc:format>image/svg+xml</dc:format>
    <dc:creator>
     <cc:Agent>
      <dc:title>Matplotlib v3.4.2, https://matplotlib.org/</dc:title>
     </cc:Agent>
    </dc:creator>
   </cc:Work>
  </rdf:RDF>
 </metadata>
 <defs>
  <style type="text/css">*{stroke-linecap:butt;stroke-linejoin:round;}</style>
 </defs>
 <g id="figure_1">
  <g id="patch_1">
   <path d="M 0 569.99952 
L 1073.99952 569.99952 
L 1073.99952 0 
L 0 0 
z
" style="fill:#ffffff;"/>
  </g>
  <g id="axes_1">
   <g id="patch_2">
    <path d="M 44.62525 254.417739 
L 531.59976 254.417739 
L 531.59976 12.382687 
L 44.62525 12.382687 
z
" style="fill:#ffffff;"/>
   </g>
   <g id="matplotlib.axis_1">
    <g id="xtick_1">
     <g id="line2d_1">
      <path clip-path="url(#pf91173caa0)" d="M 66.760455 254.417739 
L 66.760455 12.382687 
" style="fill:none;stroke:#cccccc;stroke-dasharray:1,1.65;stroke-dashoffset:0;"/>
     </g>
     <g id="text_1">
      <!-- $\mathdefault{10^{2}}$ -->
      <g style="fill:#262626;" transform="translate(59.984455 268.268536)scale(0.077 -0.077)">
       <defs>
        <path d="M 794 531 
L 1825 531 
L 1825 4091 
L 703 3866 
L 703 4441 
L 1819 4666 
L 2450 4666 
L 2450 531 
L 3481 531 
L 3481 0 
L 794 0 
L 794 531 
z
" id="DejaVuSans-31" transform="scale(0.015625)"/>
        <path d="M 2034 4250 
Q 1547 4250 1301 3770 
Q 1056 3291 1056 2328 
Q 1056 1369 1301 889 
Q 1547 409 2034 409 
Q 2525 409 2770 889 
Q 3016 1369 3016 2328 
Q 3016 3291 2770 3770 
Q 2525 4250 2034 4250 
z
M 2034 4750 
Q 2819 4750 3233 4129 
Q 3647 3509 3647 2328 
Q 3647 1150 3233 529 
Q 2819 -91 2034 -91 
Q 1250 -91 836 529 
Q 422 1150 422 2328 
Q 422 3509 836 4129 
Q 1250 4750 2034 4750 
z
" id="DejaVuSans-30" transform="scale(0.015625)"/>
        <path d="M 1228 531 
L 3431 531 
L 3431 0 
L 469 0 
L 469 531 
Q 828 903 1448 1529 
Q 2069 2156 2228 2338 
Q 2531 2678 2651 2914 
Q 2772 3150 2772 3378 
Q 2772 3750 2511 3984 
Q 2250 4219 1831 4219 
Q 1534 4219 1204 4116 
Q 875 4013 500 3803 
L 500 4441 
Q 881 4594 1212 4672 
Q 1544 4750 1819 4750 
Q 2544 4750 2975 4387 
Q 3406 4025 3406 3419 
Q 3406 3131 3298 2873 
Q 3191 2616 2906 2266 
Q 2828 2175 2409 1742 
Q 1991 1309 1228 531 
z
" id="DejaVuSans-32" transform="scale(0.015625)"/>
       </defs>
       <use transform="translate(0 0.765625)" xlink:href="#DejaVuSans-31"/>
       <use transform="translate(63.623047 0.765625)" xlink:href="#DejaVuSans-30"/>
       <use transform="translate(128.203125 39.046875)scale(0.7)" xlink:href="#DejaVuSans-32"/>
      </g>
     </g>
    </g>
    <g id="xtick_2">
     <g id="line2d_2">
      <path clip-path="url(#pf91173caa0)" d="M 288.112505 254.417739 
L 288.112505 12.382687 
" style="fill:none;stroke:#cccccc;stroke-dasharray:1,1.65;stroke-dashoffset:0;"/>
     </g>
     <g id="text_2">
      <!-- $\mathdefault{10^{3}}$ -->
      <g style="fill:#262626;" transform="translate(281.336505 268.268536)scale(0.077 -0.077)">
       <defs>
        <path d="M 2597 2516 
Q 3050 2419 3304 2112 
Q 3559 1806 3559 1356 
Q 3559 666 3084 287 
Q 2609 -91 1734 -91 
Q 1441 -91 1130 -33 
Q 819 25 488 141 
L 488 750 
Q 750 597 1062 519 
Q 1375 441 1716 441 
Q 2309 441 2620 675 
Q 2931 909 2931 1356 
Q 2931 1769 2642 2001 
Q 2353 2234 1838 2234 
L 1294 2234 
L 1294 2753 
L 1863 2753 
Q 2328 2753 2575 2939 
Q 2822 3125 2822 3475 
Q 2822 3834 2567 4026 
Q 2313 4219 1838 4219 
Q 1578 4219 1281 4162 
Q 984 4106 628 3988 
L 628 4550 
Q 988 4650 1302 4700 
Q 1616 4750 1894 4750 
Q 2613 4750 3031 4423 
Q 3450 4097 3450 3541 
Q 3450 3153 3228 2886 
Q 3006 2619 2597 2516 
z
" id="DejaVuSans-33" transform="scale(0.015625)"/>
       </defs>
       <use transform="translate(0 0.765625)" xlink:href="#DejaVuSans-31"/>
       <use transform="translate(63.623047 0.765625)" xlink:href="#DejaVuSans-30"/>
       <use transform="translate(128.203125 39.046875)scale(0.7)" xlink:href="#DejaVuSans-33"/>
      </g>
     </g>
    </g>
    <g id="xtick_3">
     <g id="line2d_3">
      <path clip-path="url(#pf91173caa0)" d="M 509.464555 254.417739 
L 509.464555 12.382687 
" style="fill:none;stroke:#cccccc;stroke-dasharray:1,1.65;stroke-dashoffset:0;"/>
     </g>
     <g id="text_3">
      <!-- $\mathdefault{10^{4}}$ -->
      <g style="fill:#262626;" transform="translate(502.688555 268.268536)scale(0.077 -0.077)">
       <defs>
        <path d="M 2419 4116 
L 825 1625 
L 2419 1625 
L 2419 4116 
z
M 2253 4666 
L 3047 4666 
L 3047 1625 
L 3713 1625 
L 3713 1100 
L 3047 1100 
L 3047 0 
L 2419 0 
L 2419 1100 
L 313 1100 
L 313 1709 
L 2253 4666 
z
" id="DejaVuSans-34" transform="scale(0.015625)"/>
       </defs>
       <use transform="translate(0 0.684375)" xlink:href="#DejaVuSans-31"/>
       <use transform="translate(63.623047 0.684375)" xlink:href="#DejaVuSans-30"/>
       <use transform="translate(128.203125 38.965625)scale(0.7)" xlink:href="#DejaVuSans-34"/>
      </g>
     </g>
    </g>
    <g id="xtick_4"/>
    <g id="xtick_5"/>
    <g id="xtick_6"/>
    <g id="xtick_7"/>
    <g id="xtick_8"/>
    <g id="xtick_9"/>
    <g id="xtick_10"/>
    <g id="xtick_11"/>
    <g id="xtick_12"/>
    <g id="xtick_13"/>
    <g id="xtick_14"/>
    <g id="xtick_15"/>
    <g id="xtick_16"/>
    <g id="xtick_17"/>
    <g id="xtick_18"/>
    <g id="xtick_19"/>
    <g id="xtick_20"/>
    <g id="xtick_21"/>
    <g id="text_4">
     <!-- Epitope X Abundance -->
     <g style="fill:#262626;" transform="translate(242.953317 280.252583)scale(0.084 -0.084)">
      <defs>
       <path d="M 628 4666 
L 3578 4666 
L 3578 4134 
L 1259 4134 
L 1259 2753 
L 3481 2753 
L 3481 2222 
L 1259 2222 
L 1259 531 
L 3634 531 
L 3634 0 
L 628 0 
L 628 4666 
z
" id="DejaVuSans-45" transform="scale(0.015625)"/>
       <path d="M 1159 525 
L 1159 -1331 
L 581 -1331 
L 581 3500 
L 1159 3500 
L 1159 2969 
Q 1341 3281 1617 3432 
Q 1894 3584 2278 3584 
Q 2916 3584 3314 3078 
Q 3713 2572 3713 1747 
Q 3713 922 3314 415 
Q 2916 -91 2278 -91 
Q 1894 -91 1617 61 
Q 1341 213 1159 525 
z
M 3116 1747 
Q 3116 2381 2855 2742 
Q 2594 3103 2138 3103 
Q 1681 3103 1420 2742 
Q 1159 2381 1159 1747 
Q 1159 1113 1420 752 
Q 1681 391 2138 391 
Q 2594 391 2855 752 
Q 3116 1113 3116 1747 
z
" id="DejaVuSans-70" transform="scale(0.015625)"/>
       <path d="M 603 3500 
L 1178 3500 
L 1178 0 
L 603 0 
L 603 3500 
z
M 603 4863 
L 1178 4863 
L 1178 4134 
L 603 4134 
L 603 4863 
z
" id="DejaVuSans-69" transform="scale(0.015625)"/>
       <path d="M 1172 4494 
L 1172 3500 
L 2356 3500 
L 2356 3053 
L 1172 3053 
L 1172 1153 
Q 1172 725 1289 603 
Q 1406 481 1766 481 
L 2356 481 
L 2356 0 
L 1766 0 
Q 1100 0 847 248 
Q 594 497 594 1153 
L 594 3053 
L 172 3053 
L 172 3500 
L 594 3500 
L 594 4494 
L 1172 4494 
z
" id="DejaVuSans-74" transform="scale(0.015625)"/>
       <path d="M 1959 3097 
Q 1497 3097 1228 2736 
Q 959 2375 959 1747 
Q 959 1119 1226 758 
Q 1494 397 1959 397 
Q 2419 397 2687 759 
Q 2956 1122 2956 1747 
Q 2956 2369 2687 2733 
Q 2419 3097 1959 3097 
z
M 1959 3584 
Q 2709 3584 3137 3096 
Q 3566 2609 3566 1747 
Q 3566 888 3137 398 
Q 2709 -91 1959 -91 
Q 1206 -91 779 398 
Q 353 888 353 1747 
Q 353 2609 779 3096 
Q 1206 3584 1959 3584 
z
" id="DejaVuSans-6f" transform="scale(0.015625)"/>
       <path d="M 3597 1894 
L 3597 1613 
L 953 1613 
Q 991 1019 1311 708 
Q 1631 397 2203 397 
Q 2534 397 2845 478 
Q 3156 559 3463 722 
L 3463 178 
Q 3153 47 2828 -22 
Q 2503 -91 2169 -91 
Q 1331 -91 842 396 
Q 353 884 353 1716 
Q 353 2575 817 3079 
Q 1281 3584 2069 3584 
Q 2775 3584 3186 3129 
Q 3597 2675 3597 1894 
z
M 3022 2063 
Q 3016 2534 2758 2815 
Q 2500 3097 2075 3097 
Q 1594 3097 1305 2825 
Q 1016 2553 972 2059 
L 3022 2063 
z
" id="DejaVuSans-65" transform="scale(0.015625)"/>
       <path id="DejaVuSans-20" transform="scale(0.015625)"/>
       <path d="M 403 4666 
L 1081 4666 
L 2241 2931 
L 3406 4666 
L 4084 4666 
L 2584 2425 
L 4184 0 
L 3506 0 
L 2194 1984 
L 872 0 
L 191 0 
L 1856 2491 
L 403 4666 
z
" id="DejaVuSans-58" transform="scale(0.015625)"/>
       <path d="M 2188 4044 
L 1331 1722 
L 3047 1722 
L 2188 4044 
z
M 1831 4666 
L 2547 4666 
L 4325 0 
L 3669 0 
L 3244 1197 
L 1141 1197 
L 716 0 
L 50 0 
L 1831 4666 
z
" id="DejaVuSans-41" transform="scale(0.015625)"/>
       <path d="M 3116 1747 
Q 3116 2381 2855 2742 
Q 2594 3103 2138 3103 
Q 1681 3103 1420 2742 
Q 1159 2381 1159 1747 
Q 1159 1113 1420 752 
Q 1681 391 2138 391 
Q 2594 391 2855 752 
Q 3116 1113 3116 1747 
z
M 1159 2969 
Q 1341 3281 1617 3432 
Q 1894 3584 2278 3584 
Q 2916 3584 3314 3078 
Q 3713 2572 3713 1747 
Q 3713 922 3314 415 
Q 2916 -91 2278 -91 
Q 1894 -91 1617 61 
Q 1341 213 1159 525 
L 1159 0 
L 581 0 
L 581 4863 
L 1159 4863 
L 1159 2969 
z
" id="DejaVuSans-62" transform="scale(0.015625)"/>
       <path d="M 544 1381 
L 544 3500 
L 1119 3500 
L 1119 1403 
Q 1119 906 1312 657 
Q 1506 409 1894 409 
Q 2359 409 2629 706 
Q 2900 1003 2900 1516 
L 2900 3500 
L 3475 3500 
L 3475 0 
L 2900 0 
L 2900 538 
Q 2691 219 2414 64 
Q 2138 -91 1772 -91 
Q 1169 -91 856 284 
Q 544 659 544 1381 
z
M 1991 3584 
L 1991 3584 
z
" id="DejaVuSans-75" transform="scale(0.015625)"/>
       <path d="M 3513 2113 
L 3513 0 
L 2938 0 
L 2938 2094 
Q 2938 2591 2744 2837 
Q 2550 3084 2163 3084 
Q 1697 3084 1428 2787 
Q 1159 2491 1159 1978 
L 1159 0 
L 581 0 
L 581 3500 
L 1159 3500 
L 1159 2956 
Q 1366 3272 1645 3428 
Q 1925 3584 2291 3584 
Q 2894 3584 3203 3211 
Q 3513 2838 3513 2113 
z
" id="DejaVuSans-6e" transform="scale(0.015625)"/>
       <path d="M 2906 2969 
L 2906 4863 
L 3481 4863 
L 3481 0 
L 2906 0 
L 2906 525 
Q 2725 213 2448 61 
Q 2172 -91 1784 -91 
Q 1150 -91 751 415 
Q 353 922 353 1747 
Q 353 2572 751 3078 
Q 1150 3584 1784 3584 
Q 2172 3584 2448 3432 
Q 2725 3281 2906 2969 
z
M 947 1747 
Q 947 1113 1208 752 
Q 1469 391 1925 391 
Q 2381 391 2643 752 
Q 2906 1113 2906 1747 
Q 2906 2381 2643 2742 
Q 2381 3103 1925 3103 
Q 1469 3103 1208 2742 
Q 947 2381 947 1747 
z
" id="DejaVuSans-64" transform="scale(0.015625)"/>
       <path d="M 2194 1759 
Q 1497 1759 1228 1600 
Q 959 1441 959 1056 
Q 959 750 1161 570 
Q 1363 391 1709 391 
Q 2188 391 2477 730 
Q 2766 1069 2766 1631 
L 2766 1759 
L 2194 1759 
z
M 3341 1997 
L 3341 0 
L 2766 0 
L 2766 531 
Q 2569 213 2275 61 
Q 1981 -91 1556 -91 
Q 1019 -91 701 211 
Q 384 513 384 1019 
Q 384 1609 779 1909 
Q 1175 2209 1959 2209 
L 2766 2209 
L 2766 2266 
Q 2766 2663 2505 2880 
Q 2244 3097 1772 3097 
Q 1472 3097 1187 3025 
Q 903 2953 641 2809 
L 641 3341 
Q 956 3463 1253 3523 
Q 1550 3584 1831 3584 
Q 2591 3584 2966 3190 
Q 3341 2797 3341 1997 
z
" id="DejaVuSans-61" transform="scale(0.015625)"/>
       <path d="M 3122 3366 
L 3122 2828 
Q 2878 2963 2633 3030 
Q 2388 3097 2138 3097 
Q 1578 3097 1268 2742 
Q 959 2388 959 1747 
Q 959 1106 1268 751 
Q 1578 397 2138 397 
Q 2388 397 2633 464 
Q 2878 531 3122 666 
L 3122 134 
Q 2881 22 2623 -34 
Q 2366 -91 2075 -91 
Q 1284 -91 818 406 
Q 353 903 353 1747 
Q 353 2603 823 3093 
Q 1294 3584 2113 3584 
Q 2378 3584 2631 3529 
Q 2884 3475 3122 3366 
z
" id="DejaVuSans-63" transform="scale(0.015625)"/>
      </defs>
      <use xlink:href="#DejaVuSans-45"/>
      <use x="63.183594" xlink:href="#DejaVuSans-70"/>
      <use x="126.660156" xlink:href="#DejaVuSans-69"/>
      <use x="154.443359" xlink:href="#DejaVuSans-74"/>
      <use x="193.652344" xlink:href="#DejaVuSans-6f"/>
      <use x="254.833984" xlink:href="#DejaVuSans-70"/>
      <use x="318.310547" xlink:href="#DejaVuSans-65"/>
      <use x="379.833984" xlink:href="#DejaVuSans-20"/>
      <use x="411.621094" xlink:href="#DejaVuSans-58"/>
      <use x="480.126953" xlink:href="#DejaVuSans-20"/>
      <use x="511.914062" xlink:href="#DejaVuSans-41"/>
      <use x="580.322266" xlink:href="#DejaVuSans-62"/>
      <use x="643.798828" xlink:href="#DejaVuSans-75"/>
      <use x="707.177734" xlink:href="#DejaVuSans-6e"/>
      <use x="770.556641" xlink:href="#DejaVuSans-64"/>
      <use x="834.033203" xlink:href="#DejaVuSans-61"/>
      <use x="895.3125" xlink:href="#DejaVuSans-6e"/>
      <use x="958.691406" xlink:href="#DejaVuSans-63"/>
      <use x="1013.671875" xlink:href="#DejaVuSans-65"/>
     </g>
    </g>
   </g>
   <g id="matplotlib.axis_2">
    <g id="ytick_1">
     <g id="line2d_4">
      <path clip-path="url(#pf91173caa0)" d="M 44.62525 254.417739 
L 531.59976 254.417739 
" style="fill:none;stroke:#cccccc;stroke-dasharray:1,1.65;stroke-dashoffset:0;"/>
     </g>
     <g id="text_5">
      <!-- 47000 -->
      <g style="fill:#262626;" transform="translate(12.129625 257.343137)scale(0.077 -0.077)">
       <defs>
        <path d="M 525 4666 
L 3525 4666 
L 3525 4397 
L 1831 0 
L 1172 0 
L 2766 4134 
L 525 4134 
L 525 4666 
z
" id="DejaVuSans-37" transform="scale(0.015625)"/>
       </defs>
       <use xlink:href="#DejaVuSans-34"/>
       <use x="63.623047" xlink:href="#DejaVuSans-37"/>
       <use x="127.246094" xlink:href="#DejaVuSans-30"/>
       <use x="190.869141" xlink:href="#DejaVuSans-30"/>
       <use x="254.492188" xlink:href="#DejaVuSans-30"/>
      </g>
     </g>
    </g>
    <g id="ytick_2">
     <g id="line2d_5">
      <path clip-path="url(#pf91173caa0)" d="M 44.62525 219.841303 
L 531.59976 219.841303 
" style="fill:none;stroke:#cccccc;stroke-dasharray:1,1.65;stroke-dashoffset:0;"/>
     </g>
     <g id="text_6">
      <!-- 48000 -->
      <g style="fill:#262626;" transform="translate(12.129625 222.766701)scale(0.077 -0.077)">
       <defs>
        <path d="M 2034 2216 
Q 1584 2216 1326 1975 
Q 1069 1734 1069 1313 
Q 1069 891 1326 650 
Q 1584 409 2034 409 
Q 2484 409 2743 651 
Q 3003 894 3003 1313 
Q 3003 1734 2745 1975 
Q 2488 2216 2034 2216 
z
M 1403 2484 
Q 997 2584 770 2862 
Q 544 3141 544 3541 
Q 544 4100 942 4425 
Q 1341 4750 2034 4750 
Q 2731 4750 3128 4425 
Q 3525 4100 3525 3541 
Q 3525 3141 3298 2862 
Q 3072 2584 2669 2484 
Q 3125 2378 3379 2068 
Q 3634 1759 3634 1313 
Q 3634 634 3220 271 
Q 2806 -91 2034 -91 
Q 1263 -91 848 271 
Q 434 634 434 1313 
Q 434 1759 690 2068 
Q 947 2378 1403 2484 
z
M 1172 3481 
Q 1172 3119 1398 2916 
Q 1625 2713 2034 2713 
Q 2441 2713 2670 2916 
Q 2900 3119 2900 3481 
Q 2900 3844 2670 4047 
Q 2441 4250 2034 4250 
Q 1625 4250 1398 4047 
Q 1172 3844 1172 3481 
z
" id="DejaVuSans-38" transform="scale(0.015625)"/>
       </defs>
       <use xlink:href="#DejaVuSans-34"/>
       <use x="63.623047" xlink:href="#DejaVuSans-38"/>
       <use x="127.246094" xlink:href="#DejaVuSans-30"/>
       <use x="190.869141" xlink:href="#DejaVuSans-30"/>
       <use x="254.492188" xlink:href="#DejaVuSans-30"/>
      </g>
     </g>
    </g>
    <g id="ytick_3">
     <g id="line2d_6">
      <path clip-path="url(#pf91173caa0)" d="M 44.62525 185.264867 
L 531.59976 185.264867 
" style="fill:none;stroke:#cccccc;stroke-dasharray:1,1.65;stroke-dashoffset:0;"/>
     </g>
     <g id="text_7">
      <!-- 49000 -->
      <g style="fill:#262626;" transform="translate(12.129625 188.190265)scale(0.077 -0.077)">
       <defs>
        <path d="M 703 97 
L 703 672 
Q 941 559 1184 500 
Q 1428 441 1663 441 
Q 2288 441 2617 861 
Q 2947 1281 2994 2138 
Q 2813 1869 2534 1725 
Q 2256 1581 1919 1581 
Q 1219 1581 811 2004 
Q 403 2428 403 3163 
Q 403 3881 828 4315 
Q 1253 4750 1959 4750 
Q 2769 4750 3195 4129 
Q 3622 3509 3622 2328 
Q 3622 1225 3098 567 
Q 2575 -91 1691 -91 
Q 1453 -91 1209 -44 
Q 966 3 703 97 
z
M 1959 2075 
Q 2384 2075 2632 2365 
Q 2881 2656 2881 3163 
Q 2881 3666 2632 3958 
Q 2384 4250 1959 4250 
Q 1534 4250 1286 3958 
Q 1038 3666 1038 3163 
Q 1038 2656 1286 2365 
Q 1534 2075 1959 2075 
z
" id="DejaVuSans-39" transform="scale(0.015625)"/>
       </defs>
       <use xlink:href="#DejaVuSans-34"/>
       <use x="63.623047" xlink:href="#DejaVuSans-39"/>
       <use x="127.246094" xlink:href="#DejaVuSans-30"/>
       <use x="190.869141" xlink:href="#DejaVuSans-30"/>
       <use x="254.492188" xlink:href="#DejaVuSans-30"/>
      </g>
     </g>
    </g>
    <g id="ytick_4">
     <g id="line2d_7">
      <path clip-path="url(#pf91173caa0)" d="M 44.62525 150.688431 
L 531.59976 150.688431 
" style="fill:none;stroke:#cccccc;stroke-dasharray:1,1.65;stroke-dashoffset:0;"/>
     </g>
     <g id="text_8">
      <!-- 50000 -->
      <g style="fill:#262626;" transform="translate(12.129625 153.61383)scale(0.077 -0.077)">
       <defs>
        <path d="M 691 4666 
L 3169 4666 
L 3169 4134 
L 1269 4134 
L 1269 2991 
Q 1406 3038 1543 3061 
Q 1681 3084 1819 3084 
Q 2600 3084 3056 2656 
Q 3513 2228 3513 1497 
Q 3513 744 3044 326 
Q 2575 -91 1722 -91 
Q 1428 -91 1123 -41 
Q 819 9 494 109 
L 494 744 
Q 775 591 1075 516 
Q 1375 441 1709 441 
Q 2250 441 2565 725 
Q 2881 1009 2881 1497 
Q 2881 1984 2565 2268 
Q 2250 2553 1709 2553 
Q 1456 2553 1204 2497 
Q 953 2441 691 2322 
L 691 4666 
z
" id="DejaVuSans-35" transform="scale(0.015625)"/>
       </defs>
       <use xlink:href="#DejaVuSans-35"/>
       <use x="63.623047" xlink:href="#DejaVuSans-30"/>
       <use x="127.246094" xlink:href="#DejaVuSans-30"/>
       <use x="190.869141" xlink:href="#DejaVuSans-30"/>
       <use x="254.492188" xlink:href="#DejaVuSans-30"/>
      </g>
     </g>
    </g>
    <g id="ytick_5">
     <g id="line2d_8">
      <path clip-path="url(#pf91173caa0)" d="M 44.62525 116.111995 
L 531.59976 116.111995 
" style="fill:none;stroke:#cccccc;stroke-dasharray:1,1.65;stroke-dashoffset:0;"/>
     </g>
     <g id="text_9">
      <!-- 51000 -->
      <g style="fill:#262626;" transform="translate(12.129625 119.037394)scale(0.077 -0.077)">
       <use xlink:href="#DejaVuSans-35"/>
       <use x="63.623047" xlink:href="#DejaVuSans-31"/>
       <use x="127.246094" xlink:href="#DejaVuSans-30"/>
       <use x="190.869141" xlink:href="#DejaVuSans-30"/>
       <use x="254.492188" xlink:href="#DejaVuSans-30"/>
      </g>
     </g>
    </g>
    <g id="ytick_6">
     <g id="line2d_9">
      <path clip-path="url(#pf91173caa0)" d="M 44.62525 81.535559 
L 531.59976 81.535559 
" style="fill:none;stroke:#cccccc;stroke-dasharray:1,1.65;stroke-dashoffset:0;"/>
     </g>
     <g id="text_10">
      <!-- 52000 -->
      <g style="fill:#262626;" transform="translate(12.129625 84.460958)scale(0.077 -0.077)">
       <use xlink:href="#DejaVuSans-35"/>
       <use x="63.623047" xlink:href="#DejaVuSans-32"/>
       <use x="127.246094" xlink:href="#DejaVuSans-30"/>
       <use x="190.869141" xlink:href="#DejaVuSans-30"/>
       <use x="254.492188" xlink:href="#DejaVuSans-30"/>
      </g>
     </g>
    </g>
    <g id="ytick_7">
     <g id="line2d_10">
      <path clip-path="url(#pf91173caa0)" d="M 44.62525 46.959123 
L 531.59976 46.959123 
" style="fill:none;stroke:#cccccc;stroke-dasharray:1,1.65;stroke-dashoffset:0;"/>
     </g>
     <g id="text_11">
      <!-- 53000 -->
      <g style="fill:#262626;" transform="translate(12.129625 49.884522)scale(0.077 -0.077)">
       <use xlink:href="#DejaVuSans-35"/>
       <use x="63.623047" xlink:href="#DejaVuSans-33"/>
       <use x="127.246094" xlink:href="#DejaVuSans-30"/>
       <use x="190.869141" xlink:href="#DejaVuSans-30"/>
       <use x="254.492188" xlink:href="#DejaVuSans-30"/>
      </g>
     </g>
    </g>
    <g id="ytick_8">
     <g id="line2d_11">
      <path clip-path="url(#pf91173caa0)" d="M 44.62525 12.382687 
L 531.59976 12.382687 
" style="fill:none;stroke:#cccccc;stroke-dasharray:1,1.65;stroke-dashoffset:0;"/>
     </g>
     <g id="text_12">
      <!-- 54000 -->
      <g style="fill:#262626;" transform="translate(12.129625 15.308086)scale(0.077 -0.077)">
       <use xlink:href="#DejaVuSans-35"/>
       <use x="63.623047" xlink:href="#DejaVuSans-34"/>
       <use x="127.246094" xlink:href="#DejaVuSans-30"/>
       <use x="190.869141" xlink:href="#DejaVuSans-30"/>
       <use x="254.492188" xlink:href="#DejaVuSans-30"/>
      </g>
     </g>
    </g>
    <g id="text_13">
     <!-- pSTAT -->
     <g style="fill:#262626;" transform="translate(6.382688 146.085526)rotate(-90)scale(0.084 -0.084)">
      <defs>
       <path d="M 3425 4513 
L 3425 3897 
Q 3066 4069 2747 4153 
Q 2428 4238 2131 4238 
Q 1616 4238 1336 4038 
Q 1056 3838 1056 3469 
Q 1056 3159 1242 3001 
Q 1428 2844 1947 2747 
L 2328 2669 
Q 3034 2534 3370 2195 
Q 3706 1856 3706 1288 
Q 3706 609 3251 259 
Q 2797 -91 1919 -91 
Q 1588 -91 1214 -16 
Q 841 59 441 206 
L 441 856 
Q 825 641 1194 531 
Q 1563 422 1919 422 
Q 2459 422 2753 634 
Q 3047 847 3047 1241 
Q 3047 1584 2836 1778 
Q 2625 1972 2144 2069 
L 1759 2144 
Q 1053 2284 737 2584 
Q 422 2884 422 3419 
Q 422 4038 858 4394 
Q 1294 4750 2059 4750 
Q 2388 4750 2728 4690 
Q 3069 4631 3425 4513 
z
" id="DejaVuSans-53" transform="scale(0.015625)"/>
       <path d="M -19 4666 
L 3928 4666 
L 3928 4134 
L 2272 4134 
L 2272 0 
L 1638 0 
L 1638 4134 
L -19 4134 
L -19 4666 
z
" id="DejaVuSans-54" transform="scale(0.015625)"/>
      </defs>
      <use xlink:href="#DejaVuSans-70"/>
      <use x="63.476562" xlink:href="#DejaVuSans-53"/>
      <use x="126.953125" xlink:href="#DejaVuSans-54"/>
      <use x="180.287109" xlink:href="#DejaVuSans-41"/>
      <use x="240.945312" xlink:href="#DejaVuSans-54"/>
     </g>
    </g>
   </g>
   <g id="line2d_12">
    <path clip-path="url(#pf91173caa0)" d="M 66.760455 220.738888 
L 200.027668 220.65599 
L 253.824639 220.573193 
L 288.112505 220.490497 
L 313.3341 220.407901 
L 333.294882 220.325406 
L 349.815186 220.24301 
L 363.908467 220.160715 
L 376.197342 220.078519 
L 387.091852 219.996423 
L 396.876423 219.914426 
L 405.756453 219.832529 
L 413.885121 219.75073 
L 421.379718 219.66903 
L 428.332046 219.587429 
L 434.81531 219.505927 
L 440.888822 219.424523 
L 446.601313 219.343216 
L 451.993304 219.262008 
L 457.098856 219.180898 
L 461.946874 219.099885 
L 466.562095 219.01897 
L 470.965856 218.938152 
L 475.176689 218.857431 
L 479.21079 218.776807 
L 483.082399 218.69628 
L 486.804102 218.615849 
L 490.387075 218.535515 
L 493.84129 218.455276 
L 497.175681 218.375134 
L 500.398283 218.295088 
L 503.51635 218.215137 
L 506.536451 218.135282 
L 509.464555 218.055523 
" style="fill:none;stroke:#0173b2;stroke-linecap:round;stroke-width:1.5;"/>
   </g>
   <g id="line2d_13">
    <path clip-path="url(#pf91173caa0)" d="M 66.760455 219.087631 
L 200.027668 214.223733 
L 253.824639 209.609693 
L 288.112505 205.233404 
L 313.3341 201.082844 
L 333.294882 197.146185 
L 349.815186 193.41188 
L 363.908467 189.868737 
L 376.197342 186.505967 
L 387.091852 183.313227 
L 396.876423 180.280643 
L 405.756453 177.398824 
L 413.885121 174.658871 
L 421.379718 172.052372 
L 428.332046 169.571393 
L 434.81531 167.208468 
L 440.888822 164.956582 
L 446.601313 162.809153 
L 451.993304 160.760012 
L 457.098856 158.803382 
L 461.946874 156.933858 
L 466.562095 155.146382 
L 470.965856 153.436229 
L 475.176689 151.798979 
L 479.21079 150.2305 
L 483.082399 148.726934 
L 486.804102 147.28467 
L 490.387075 145.900335 
L 493.84129 144.570774 
L 497.175681 143.293034 
L 500.398283 142.064353 
L 503.51635 140.882147 
L 506.536451 139.743992 
L 509.464555 138.64762 
" style="fill:none;stroke:#de8f05;stroke-linecap:round;stroke-width:1.5;"/>
   </g>
   <g id="line2d_14">
    <path clip-path="url(#pf91173caa0)" d="M 66.760455 216.540562 
L 200.027668 204.281151 
L 253.824639 192.715158 
L 288.112505 181.922106 
L 313.3341 171.968574 
L 333.294882 162.899881 
L 349.815186 154.733677 
L 363.908467 147.457422 
L 376.197342 141.030629 
L 387.091852 135.391065 
L 396.876423 130.462929 
L 405.756453 126.164902 
L 413.885121 122.416583 
L 421.379718 119.142806 
L 428.332046 116.275968 
L 434.81531 113.756879 
L 440.888822 111.53464 
L 446.601313 109.565984 
L 451.993304 107.814391 
L 457.098856 106.249144 
L 461.946874 104.844437 
L 466.562095 103.578577 
L 470.965856 102.433292 
L 475.176689 101.393154 
L 479.21079 100.445093 
L 483.082399 99.577995 
L 486.804102 98.782374 
L 490.387075 98.050102 
L 493.84129 97.374186 
L 497.175681 96.748585 
L 500.398283 96.168063 
L 503.51635 95.628062 
L 506.536451 95.124598 
L 509.464555 94.654179 
" style="fill:none;stroke:#029e73;stroke-linecap:round;stroke-width:1.5;"/>
   </g>
   <g id="patch_3">
    <path d="M 44.62525 254.417739 
L 44.62525 12.382687 
" style="fill:none;stroke:#cccccc;stroke-linecap:square;stroke-linejoin:miter;stroke-width:0.6;"/>
   </g>
   <g id="patch_4">
    <path d="M 531.59976 254.417739 
L 531.59976 12.382687 
" style="fill:none;stroke:#cccccc;stroke-linecap:square;stroke-linejoin:miter;stroke-width:0.6;"/>
   </g>
   <g id="patch_5">
    <path d="M 44.62525 254.417739 
L 531.59976 254.417739 
" style="fill:none;stroke:#cccccc;stroke-linecap:square;stroke-linejoin:miter;stroke-width:0.6;"/>
   </g>
   <g id="patch_6">
    <path d="M 44.62525 12.382687 
L 531.59976 12.382687 
" style="fill:none;stroke:#cccccc;stroke-linecap:square;stroke-linejoin:miter;stroke-width:0.6;"/>
   </g>
   <g id="text_14">
    <!-- Treg - Dosed at 1nM -->
    <g style="fill:#262626;" transform="translate(246.008817 6.382687)scale(0.084 -0.084)">
     <defs>
      <path d="M 2631 2963 
Q 2534 3019 2420 3045 
Q 2306 3072 2169 3072 
Q 1681 3072 1420 2755 
Q 1159 2438 1159 1844 
L 1159 0 
L 581 0 
L 581 3500 
L 1159 3500 
L 1159 2956 
Q 1341 3275 1631 3429 
Q 1922 3584 2338 3584 
Q 2397 3584 2469 3576 
Q 2541 3569 2628 3553 
L 2631 2963 
z
" id="DejaVuSans-72" transform="scale(0.015625)"/>
      <path d="M 2906 1791 
Q 2906 2416 2648 2759 
Q 2391 3103 1925 3103 
Q 1463 3103 1205 2759 
Q 947 2416 947 1791 
Q 947 1169 1205 825 
Q 1463 481 1925 481 
Q 2391 481 2648 825 
Q 2906 1169 2906 1791 
z
M 3481 434 
Q 3481 -459 3084 -895 
Q 2688 -1331 1869 -1331 
Q 1566 -1331 1297 -1286 
Q 1028 -1241 775 -1147 
L 775 -588 
Q 1028 -725 1275 -790 
Q 1522 -856 1778 -856 
Q 2344 -856 2625 -561 
Q 2906 -266 2906 331 
L 2906 616 
Q 2728 306 2450 153 
Q 2172 0 1784 0 
Q 1141 0 747 490 
Q 353 981 353 1791 
Q 353 2603 747 3093 
Q 1141 3584 1784 3584 
Q 2172 3584 2450 3431 
Q 2728 3278 2906 2969 
L 2906 3500 
L 3481 3500 
L 3481 434 
z
" id="DejaVuSans-67" transform="scale(0.015625)"/>
      <path d="M 313 2009 
L 1997 2009 
L 1997 1497 
L 313 1497 
L 313 2009 
z
" id="DejaVuSans-2d" transform="scale(0.015625)"/>
      <path d="M 1259 4147 
L 1259 519 
L 2022 519 
Q 2988 519 3436 956 
Q 3884 1394 3884 2338 
Q 3884 3275 3436 3711 
Q 2988 4147 2022 4147 
L 1259 4147 
z
M 628 4666 
L 1925 4666 
Q 3281 4666 3915 4102 
Q 4550 3538 4550 2338 
Q 4550 1131 3912 565 
Q 3275 0 1925 0 
L 628 0 
L 628 4666 
z
" id="DejaVuSans-44" transform="scale(0.015625)"/>
      <path d="M 2834 3397 
L 2834 2853 
Q 2591 2978 2328 3040 
Q 2066 3103 1784 3103 
Q 1356 3103 1142 2972 
Q 928 2841 928 2578 
Q 928 2378 1081 2264 
Q 1234 2150 1697 2047 
L 1894 2003 
Q 2506 1872 2764 1633 
Q 3022 1394 3022 966 
Q 3022 478 2636 193 
Q 2250 -91 1575 -91 
Q 1294 -91 989 -36 
Q 684 19 347 128 
L 347 722 
Q 666 556 975 473 
Q 1284 391 1588 391 
Q 1994 391 2212 530 
Q 2431 669 2431 922 
Q 2431 1156 2273 1281 
Q 2116 1406 1581 1522 
L 1381 1569 
Q 847 1681 609 1914 
Q 372 2147 372 2553 
Q 372 3047 722 3315 
Q 1072 3584 1716 3584 
Q 2034 3584 2315 3537 
Q 2597 3491 2834 3397 
z
" id="DejaVuSans-73" transform="scale(0.015625)"/>
      <path d="M 628 4666 
L 1569 4666 
L 2759 1491 
L 3956 4666 
L 4897 4666 
L 4897 0 
L 4281 0 
L 4281 4097 
L 3078 897 
L 2444 897 
L 1241 4097 
L 1241 0 
L 628 0 
L 628 4666 
z
" id="DejaVuSans-4d" transform="scale(0.015625)"/>
     </defs>
     <use xlink:href="#DejaVuSans-54"/>
     <use x="46.333984" xlink:href="#DejaVuSans-72"/>
     <use x="85.197266" xlink:href="#DejaVuSans-65"/>
     <use x="146.720703" xlink:href="#DejaVuSans-67"/>
     <use x="210.197266" xlink:href="#DejaVuSans-20"/>
     <use x="241.984375" xlink:href="#DejaVuSans-2d"/>
     <use x="278.068359" xlink:href="#DejaVuSans-20"/>
     <use x="309.855469" xlink:href="#DejaVuSans-44"/>
     <use x="386.857422" xlink:href="#DejaVuSans-6f"/>
     <use x="448.039062" xlink:href="#DejaVuSans-73"/>
     <use x="500.138672" xlink:href="#DejaVuSans-65"/>
     <use x="561.662109" xlink:href="#DejaVuSans-64"/>
     <use x="625.138672" xlink:href="#DejaVuSans-20"/>
     <use x="656.925781" xlink:href="#DejaVuSans-61"/>
     <use x="718.205078" xlink:href="#DejaVuSans-74"/>
     <use x="757.414062" xlink:href="#DejaVuSans-20"/>
     <use x="789.201172" xlink:href="#DejaVuSans-31"/>
     <use x="852.824219" xlink:href="#DejaVuSans-6e"/>
     <use x="916.203125" xlink:href="#DejaVuSans-4d"/>
    </g>
   </g>
   <g id="legend_1">
    <g id="patch_7">
     <path d="M 473.058104 47.059156 
L 526.20976 47.059156 
Q 527.74976 47.059156 527.74976 45.519156 
L 527.74976 17.772687 
Q 527.74976 16.232687 526.20976 16.232687 
L 473.058104 16.232687 
Q 471.518104 16.232687 471.518104 17.772687 
L 471.518104 45.519156 
Q 471.518104 47.059156 473.058104 47.059156 
z
" style="fill:#ffffff;opacity:0.5;stroke:#cccccc;stroke-linejoin:miter;"/>
    </g>
    <g id="line2d_15">
     <path d="M 474.213104 22.083484 
L 478.063104 22.083484 
" style="fill:none;stroke:#0173b2;stroke-linecap:round;stroke-width:1.5;"/>
    </g>
    <g id="line2d_16"/>
    <g id="text_15">
     <!-- Low(1e6) -->
     <g style="fill:#262626;" transform="translate(481.913104 24.778484)scale(0.077 -0.077)">
      <defs>
       <path d="M 628 4666 
L 1259 4666 
L 1259 531 
L 3531 531 
L 3531 0 
L 628 0 
L 628 4666 
z
" id="DejaVuSans-4c" transform="scale(0.015625)"/>
       <path d="M 269 3500 
L 844 3500 
L 1563 769 
L 2278 3500 
L 2956 3500 
L 3675 769 
L 4391 3500 
L 4966 3500 
L 4050 0 
L 3372 0 
L 2619 2869 
L 1863 0 
L 1184 0 
L 269 3500 
z
" id="DejaVuSans-77" transform="scale(0.015625)"/>
       <path d="M 1984 4856 
Q 1566 4138 1362 3434 
Q 1159 2731 1159 2009 
Q 1159 1288 1364 580 
Q 1569 -128 1984 -844 
L 1484 -844 
Q 1016 -109 783 600 
Q 550 1309 550 2009 
Q 550 2706 781 3412 
Q 1013 4119 1484 4856 
L 1984 4856 
z
" id="DejaVuSans-28" transform="scale(0.015625)"/>
       <path d="M 2113 2584 
Q 1688 2584 1439 2293 
Q 1191 2003 1191 1497 
Q 1191 994 1439 701 
Q 1688 409 2113 409 
Q 2538 409 2786 701 
Q 3034 994 3034 1497 
Q 3034 2003 2786 2293 
Q 2538 2584 2113 2584 
z
M 3366 4563 
L 3366 3988 
Q 3128 4100 2886 4159 
Q 2644 4219 2406 4219 
Q 1781 4219 1451 3797 
Q 1122 3375 1075 2522 
Q 1259 2794 1537 2939 
Q 1816 3084 2150 3084 
Q 2853 3084 3261 2657 
Q 3669 2231 3669 1497 
Q 3669 778 3244 343 
Q 2819 -91 2113 -91 
Q 1303 -91 875 529 
Q 447 1150 447 2328 
Q 447 3434 972 4092 
Q 1497 4750 2381 4750 
Q 2619 4750 2861 4703 
Q 3103 4656 3366 4563 
z
" id="DejaVuSans-36" transform="scale(0.015625)"/>
       <path d="M 513 4856 
L 1013 4856 
Q 1481 4119 1714 3412 
Q 1947 2706 1947 2009 
Q 1947 1309 1714 600 
Q 1481 -109 1013 -844 
L 513 -844 
Q 928 -128 1133 580 
Q 1338 1288 1338 2009 
Q 1338 2731 1133 3434 
Q 928 4138 513 4856 
z
" id="DejaVuSans-29" transform="scale(0.015625)"/>
      </defs>
      <use xlink:href="#DejaVuSans-4c"/>
      <use x="53.962891" xlink:href="#DejaVuSans-6f"/>
      <use x="115.144531" xlink:href="#DejaVuSans-77"/>
      <use x="196.931641" xlink:href="#DejaVuSans-28"/>
      <use x="235.945312" xlink:href="#DejaVuSans-31"/>
      <use x="299.568359" xlink:href="#DejaVuSans-65"/>
      <use x="361.091797" xlink:href="#DejaVuSans-36"/>
      <use x="424.714844" xlink:href="#DejaVuSans-29"/>
     </g>
    </g>
    <g id="line2d_17">
     <path d="M 474.213104 31.075641 
L 478.063104 31.075641 
" style="fill:none;stroke:#de8f05;stroke-linecap:round;stroke-width:1.5;"/>
    </g>
    <g id="line2d_18"/>
    <g id="text_16">
     <!-- Med(1e8) -->
     <g style="fill:#262626;" transform="translate(481.913104 33.770641)scale(0.077 -0.077)">
      <use xlink:href="#DejaVuSans-4d"/>
      <use x="86.279297" xlink:href="#DejaVuSans-65"/>
      <use x="147.802734" xlink:href="#DejaVuSans-64"/>
      <use x="211.279297" xlink:href="#DejaVuSans-28"/>
      <use x="250.292969" xlink:href="#DejaVuSans-31"/>
      <use x="313.916016" xlink:href="#DejaVuSans-65"/>
      <use x="375.439453" xlink:href="#DejaVuSans-38"/>
      <use x="439.0625" xlink:href="#DejaVuSans-29"/>
     </g>
    </g>
    <g id="line2d_19">
     <path d="M 474.213104 40.067797 
L 478.063104 40.067797 
" style="fill:none;stroke:#029e73;stroke-linecap:round;stroke-width:1.5;"/>
    </g>
    <g id="line2d_20"/>
    <g id="text_17">
     <!-- High(1e10) -->
     <g style="fill:#262626;" transform="translate(481.913104 42.762797)scale(0.077 -0.077)">
      <defs>
       <path d="M 628 4666 
L 1259 4666 
L 1259 2753 
L 3553 2753 
L 3553 4666 
L 4184 4666 
L 4184 0 
L 3553 0 
L 3553 2222 
L 1259 2222 
L 1259 0 
L 628 0 
L 628 4666 
z
" id="DejaVuSans-48" transform="scale(0.015625)"/>
       <path d="M 3513 2113 
L 3513 0 
L 2938 0 
L 2938 2094 
Q 2938 2591 2744 2837 
Q 2550 3084 2163 3084 
Q 1697 3084 1428 2787 
Q 1159 2491 1159 1978 
L 1159 0 
L 581 0 
L 581 4863 
L 1159 4863 
L 1159 2956 
Q 1366 3272 1645 3428 
Q 1925 3584 2291 3584 
Q 2894 3584 3203 3211 
Q 3513 2838 3513 2113 
z
" id="DejaVuSans-68" transform="scale(0.015625)"/>
      </defs>
      <use xlink:href="#DejaVuSans-48"/>
      <use x="75.195312" xlink:href="#DejaVuSans-69"/>
      <use x="102.978516" xlink:href="#DejaVuSans-67"/>
      <use x="166.455078" xlink:href="#DejaVuSans-68"/>
      <use x="229.833984" xlink:href="#DejaVuSans-28"/>
      <use x="268.847656" xlink:href="#DejaVuSans-31"/>
      <use x="332.470703" xlink:href="#DejaVuSans-65"/>
      <use x="393.994141" xlink:href="#DejaVuSans-31"/>
      <use x="457.617188" xlink:href="#DejaVuSans-30"/>
      <use x="521.240234" xlink:href="#DejaVuSans-29"/>
     </g>
    </g>
   </g>
  </g>
  <g id="axes_2">
   <g id="patch_8">
    <path d="M 587.02501 254.417739 
L 1073.99952 254.417739 
L 1073.99952 12.382687 
L 587.02501 12.382687 
z
" style="fill:#ffffff;"/>
   </g>
   <g id="matplotlib.axis_3">
    <g id="xtick_22">
     <g id="line2d_21">
      <path clip-path="url(#p8431071a8b)" d="M 609.160215 254.417739 
L 609.160215 12.382687 
" style="fill:none;stroke:#cccccc;stroke-dasharray:1,1.65;stroke-dashoffset:0;"/>
     </g>
     <g id="text_18">
      <!-- $\mathdefault{10^{2}}$ -->
      <g style="fill:#262626;" transform="translate(602.384215 268.268536)scale(0.077 -0.077)">
       <use transform="translate(0 0.765625)" xlink:href="#DejaVuSans-31"/>
       <use transform="translate(63.623047 0.765625)" xlink:href="#DejaVuSans-30"/>
       <use transform="translate(128.203125 39.046875)scale(0.7)" xlink:href="#DejaVuSans-32"/>
      </g>
     </g>
    </g>
    <g id="xtick_23">
     <g id="line2d_22">
      <path clip-path="url(#p8431071a8b)" d="M 830.512265 254.417739 
L 830.512265 12.382687 
" style="fill:none;stroke:#cccccc;stroke-dasharray:1,1.65;stroke-dashoffset:0;"/>
     </g>
     <g id="text_19">
      <!-- $\mathdefault{10^{3}}$ -->
      <g style="fill:#262626;" transform="translate(823.736265 268.268536)scale(0.077 -0.077)">
       <use transform="translate(0 0.765625)" xlink:href="#DejaVuSans-31"/>
       <use transform="translate(63.623047 0.765625)" xlink:href="#DejaVuSans-30"/>
       <use transform="translate(128.203125 39.046875)scale(0.7)" xlink:href="#DejaVuSans-33"/>
      </g>
     </g>
    </g>
    <g id="xtick_24">
     <g id="line2d_23">
      <path clip-path="url(#p8431071a8b)" d="M 1051.864315 254.417739 
L 1051.864315 12.382687 
" style="fill:none;stroke:#cccccc;stroke-dasharray:1,1.65;stroke-dashoffset:0;"/>
     </g>
     <g id="text_20">
      <!-- $\mathdefault{10^{4}}$ -->
      <g style="fill:#262626;" transform="translate(1045.088315 268.268536)scale(0.077 -0.077)">
       <use transform="translate(0 0.684375)" xlink:href="#DejaVuSans-31"/>
       <use transform="translate(63.623047 0.684375)" xlink:href="#DejaVuSans-30"/>
       <use transform="translate(128.203125 38.965625)scale(0.7)" xlink:href="#DejaVuSans-34"/>
      </g>
     </g>
    </g>
    <g id="xtick_25"/>
    <g id="xtick_26"/>
    <g id="xtick_27"/>
    <g id="xtick_28"/>
    <g id="xtick_29"/>
    <g id="xtick_30"/>
    <g id="xtick_31"/>
    <g id="xtick_32"/>
    <g id="xtick_33"/>
    <g id="xtick_34"/>
    <g id="xtick_35"/>
    <g id="xtick_36"/>
    <g id="xtick_37"/>
    <g id="xtick_38"/>
    <g id="xtick_39"/>
    <g id="xtick_40"/>
    <g id="xtick_41"/>
    <g id="xtick_42"/>
    <g id="text_21">
     <!-- Epitope X Abundance -->
     <g style="fill:#262626;" transform="translate(785.353077 280.252583)scale(0.084 -0.084)">
      <use xlink:href="#DejaVuSans-45"/>
      <use x="63.183594" xlink:href="#DejaVuSans-70"/>
      <use x="126.660156" xlink:href="#DejaVuSans-69"/>
      <use x="154.443359" xlink:href="#DejaVuSans-74"/>
      <use x="193.652344" xlink:href="#DejaVuSans-6f"/>
      <use x="254.833984" xlink:href="#DejaVuSans-70"/>
      <use x="318.310547" xlink:href="#DejaVuSans-65"/>
      <use x="379.833984" xlink:href="#DejaVuSans-20"/>
      <use x="411.621094" xlink:href="#DejaVuSans-58"/>
      <use x="480.126953" xlink:href="#DejaVuSans-20"/>
      <use x="511.914062" xlink:href="#DejaVuSans-41"/>
      <use x="580.322266" xlink:href="#DejaVuSans-62"/>
      <use x="643.798828" xlink:href="#DejaVuSans-75"/>
      <use x="707.177734" xlink:href="#DejaVuSans-6e"/>
      <use x="770.556641" xlink:href="#DejaVuSans-64"/>
      <use x="834.033203" xlink:href="#DejaVuSans-61"/>
      <use x="895.3125" xlink:href="#DejaVuSans-6e"/>
      <use x="958.691406" xlink:href="#DejaVuSans-63"/>
      <use x="1013.671875" xlink:href="#DejaVuSans-65"/>
     </g>
    </g>
   </g>
   <g id="matplotlib.axis_4">
    <g id="ytick_9">
     <g id="line2d_24">
      <path clip-path="url(#p8431071a8b)" d="M 587.02501 254.417739 
L 1073.99952 254.417739 
" style="fill:none;stroke:#cccccc;stroke-dasharray:1,1.65;stroke-dashoffset:0;"/>
     </g>
     <g id="text_22">
      <!-- 20000 -->
      <g style="fill:#262626;" transform="translate(554.529385 257.343137)scale(0.077 -0.077)">
       <use xlink:href="#DejaVuSans-32"/>
       <use x="63.623047" xlink:href="#DejaVuSans-30"/>
       <use x="127.246094" xlink:href="#DejaVuSans-30"/>
       <use x="190.869141" xlink:href="#DejaVuSans-30"/>
       <use x="254.492188" xlink:href="#DejaVuSans-30"/>
      </g>
     </g>
    </g>
    <g id="ytick_10">
     <g id="line2d_25">
      <path clip-path="url(#p8431071a8b)" d="M 587.02501 206.010729 
L 1073.99952 206.010729 
" style="fill:none;stroke:#cccccc;stroke-dasharray:1,1.65;stroke-dashoffset:0;"/>
     </g>
     <g id="text_23">
      <!-- 21000 -->
      <g style="fill:#262626;" transform="translate(554.529385 208.936127)scale(0.077 -0.077)">
       <use xlink:href="#DejaVuSans-32"/>
       <use x="63.623047" xlink:href="#DejaVuSans-31"/>
       <use x="127.246094" xlink:href="#DejaVuSans-30"/>
       <use x="190.869141" xlink:href="#DejaVuSans-30"/>
       <use x="254.492188" xlink:href="#DejaVuSans-30"/>
      </g>
     </g>
    </g>
    <g id="ytick_11">
     <g id="line2d_26">
      <path clip-path="url(#p8431071a8b)" d="M 587.02501 157.603718 
L 1073.99952 157.603718 
" style="fill:none;stroke:#cccccc;stroke-dasharray:1,1.65;stroke-dashoffset:0;"/>
     </g>
     <g id="text_24">
      <!-- 22000 -->
      <g style="fill:#262626;" transform="translate(554.529385 160.529117)scale(0.077 -0.077)">
       <use xlink:href="#DejaVuSans-32"/>
       <use x="63.623047" xlink:href="#DejaVuSans-32"/>
       <use x="127.246094" xlink:href="#DejaVuSans-30"/>
       <use x="190.869141" xlink:href="#DejaVuSans-30"/>
       <use x="254.492188" xlink:href="#DejaVuSans-30"/>
      </g>
     </g>
    </g>
    <g id="ytick_12">
     <g id="line2d_27">
      <path clip-path="url(#p8431071a8b)" d="M 587.02501 109.196708 
L 1073.99952 109.196708 
" style="fill:none;stroke:#cccccc;stroke-dasharray:1,1.65;stroke-dashoffset:0;"/>
     </g>
     <g id="text_25">
      <!-- 23000 -->
      <g style="fill:#262626;" transform="translate(554.529385 112.122106)scale(0.077 -0.077)">
       <use xlink:href="#DejaVuSans-32"/>
       <use x="63.623047" xlink:href="#DejaVuSans-33"/>
       <use x="127.246094" xlink:href="#DejaVuSans-30"/>
       <use x="190.869141" xlink:href="#DejaVuSans-30"/>
       <use x="254.492188" xlink:href="#DejaVuSans-30"/>
      </g>
     </g>
    </g>
    <g id="ytick_13">
     <g id="line2d_28">
      <path clip-path="url(#p8431071a8b)" d="M 587.02501 60.789698 
L 1073.99952 60.789698 
" style="fill:none;stroke:#cccccc;stroke-dasharray:1,1.65;stroke-dashoffset:0;"/>
     </g>
     <g id="text_26">
      <!-- 24000 -->
      <g style="fill:#262626;" transform="translate(554.529385 63.715096)scale(0.077 -0.077)">
       <use xlink:href="#DejaVuSans-32"/>
       <use x="63.623047" xlink:href="#DejaVuSans-34"/>
       <use x="127.246094" xlink:href="#DejaVuSans-30"/>
       <use x="190.869141" xlink:href="#DejaVuSans-30"/>
       <use x="254.492188" xlink:href="#DejaVuSans-30"/>
      </g>
     </g>
    </g>
    <g id="ytick_14">
     <g id="line2d_29">
      <path clip-path="url(#p8431071a8b)" d="M 587.02501 12.382687 
L 1073.99952 12.382687 
" style="fill:none;stroke:#cccccc;stroke-dasharray:1,1.65;stroke-dashoffset:0;"/>
     </g>
     <g id="text_27">
      <!-- 25000 -->
      <g style="fill:#262626;" transform="translate(554.529385 15.308086)scale(0.077 -0.077)">
       <use xlink:href="#DejaVuSans-32"/>
       <use x="63.623047" xlink:href="#DejaVuSans-35"/>
       <use x="127.246094" xlink:href="#DejaVuSans-30"/>
       <use x="190.869141" xlink:href="#DejaVuSans-30"/>
       <use x="254.492188" xlink:href="#DejaVuSans-30"/>
      </g>
     </g>
    </g>
    <g id="text_28">
     <!-- pSTAT -->
     <g style="fill:#262626;" transform="translate(548.782447 146.085526)rotate(-90)scale(0.084 -0.084)">
      <use xlink:href="#DejaVuSans-70"/>
      <use x="63.476562" xlink:href="#DejaVuSans-53"/>
      <use x="126.953125" xlink:href="#DejaVuSans-54"/>
      <use x="180.287109" xlink:href="#DejaVuSans-41"/>
      <use x="240.945312" xlink:href="#DejaVuSans-54"/>
     </g>
    </g>
   </g>
   <g id="line2d_30">
    <path clip-path="url(#p8431071a8b)" d="M 609.160215 226.450772 
L 742.427428 226.37858 
L 796.224399 226.306472 
L 830.512265 226.234449 
L 855.73386 226.162511 
L 875.694642 226.090658 
L 892.214946 226.018889 
L 906.308227 225.947205 
L 918.597102 225.875605 
L 929.491612 225.804089 
L 939.276183 225.732656 
L 948.156213 225.661308 
L 956.284881 225.590043 
L 963.779478 225.518861 
L 970.731806 225.447763 
L 977.21507 225.376748 
L 983.288582 225.305816 
L 989.001073 225.234967 
L 994.393064 225.164201 
L 999.498616 225.093517 
L 1004.346634 225.022916 
L 1008.961855 224.952397 
L 1013.365616 224.88196 
L 1017.576449 224.811605 
L 1021.61055 224.741333 
L 1025.482159 224.671141 
L 1029.203862 224.601032 
L 1032.786835 224.531004 
L 1036.24105 224.461057 
L 1039.575441 224.391191 
L 1042.798043 224.321406 
L 1045.91611 224.251703 
L 1048.936211 224.18208 
L 1051.864315 224.112537 
" style="fill:none;stroke:#0173b2;stroke-linecap:round;stroke-width:1.5;"/>
   </g>
   <g id="line2d_31">
    <path clip-path="url(#p8431071a8b)" d="M 609.160215 225.00207 
L 742.427428 220.727655 
L 796.224399 216.662272 
L 830.512265 212.796935 
L 855.73386 209.122583 
L 875.694642 205.630172 
L 892.214946 202.310754 
L 906.308227 199.15555 
L 918.597102 196.155997 
L 929.491612 193.303801 
L 939.276183 190.590963 
L 948.156213 188.009808 
L 956.284881 185.552998 
L 963.779478 183.213541 
L 970.731806 180.984797 
L 977.21507 178.860473 
L 983.288582 176.834621 
L 989.001073 174.901624 
L 994.393064 173.056192 
L 999.498616 171.293346 
L 1004.346634 169.608405 
L 1008.961855 167.996972 
L 1013.365616 166.45492 
L 1017.576449 164.978377 
L 1021.61055 163.563713 
L 1025.482159 162.207522 
L 1029.203862 160.906613 
L 1032.786835 159.657995 
L 1036.24105 158.458863 
L 1039.575441 157.306587 
L 1042.798043 156.198703 
L 1045.91611 155.132897 
L 1048.936211 154.107 
L 1051.864315 153.118975 
" style="fill:none;stroke:#de8f05;stroke-linecap:round;stroke-width:1.5;"/>
   </g>
   <g id="line2d_32">
    <path clip-path="url(#p8431071a8b)" d="M 609.160215 222.72206 
L 742.427428 211.742874 
L 796.224399 201.243117 
L 830.512265 191.306328 
L 855.73386 182.017952 
L 875.694642 173.456981 
L 892.214946 165.685327 
L 906.308227 158.737471 
L 918.597102 152.613963 
L 929.491612 147.281424 
L 939.276183 142.679051 
L 948.156213 138.728936 
L 956.284881 135.34666 
L 963.779478 132.449615 
L 970.731806 129.962189 
L 977.21507 127.818174 
L 983.288582 125.961257 
L 989.001073 124.3444 
L 994.393064 122.928724 
L 999.498616 121.682266 
L 1004.346634 120.578786 
L 1008.961855 119.596725 
L 1013.365616 118.718323 
L 1017.576449 117.928893 
L 1021.61055 117.216236 
L 1025.482159 116.570172 
L 1029.203862 115.982162 
L 1032.786835 115.445005 
L 1036.24105 114.952601 
L 1039.575441 114.499754 
L 1042.798043 114.082017 
L 1045.91611 113.695567 
L 1048.936211 113.337102 
L 1051.864315 113.003758 
" style="fill:none;stroke:#029e73;stroke-linecap:round;stroke-width:1.5;"/>
   </g>
   <g id="patch_9">
    <path d="M 587.02501 254.417739 
L 587.02501 12.382687 
" style="fill:none;stroke:#cccccc;stroke-linecap:square;stroke-linejoin:miter;stroke-width:0.6;"/>
   </g>
   <g id="patch_10">
    <path d="M 1073.99952 254.417739 
L 1073.99952 12.382687 
" style="fill:none;stroke:#cccccc;stroke-linecap:square;stroke-linejoin:miter;stroke-width:0.6;"/>
   </g>
   <g id="patch_11">
    <path d="M 587.02501 254.417739 
L 1073.99952 254.417739 
" style="fill:none;stroke:#cccccc;stroke-linecap:square;stroke-linejoin:miter;stroke-width:0.6;"/>
   </g>
   <g id="patch_12">
    <path d="M 587.02501 12.382687 
L 1073.99952 12.382687 
" style="fill:none;stroke:#cccccc;stroke-linecap:square;stroke-linejoin:miter;stroke-width:0.6;"/>
   </g>
   <g id="text_29">
    <!-- Thelper - Dosed at 1nM -->
    <g style="fill:#262626;" transform="translate(781.281702 6.382687)scale(0.084 -0.084)">
     <defs>
      <path d="M 603 4863 
L 1178 4863 
L 1178 0 
L 603 0 
L 603 4863 
z
" id="DejaVuSans-6c" transform="scale(0.015625)"/>
     </defs>
     <use xlink:href="#DejaVuSans-54"/>
     <use x="61.083984" xlink:href="#DejaVuSans-68"/>
     <use x="124.462891" xlink:href="#DejaVuSans-65"/>
     <use x="185.986328" xlink:href="#DejaVuSans-6c"/>
     <use x="213.769531" xlink:href="#DejaVuSans-70"/>
     <use x="277.246094" xlink:href="#DejaVuSans-65"/>
     <use x="338.769531" xlink:href="#DejaVuSans-72"/>
     <use x="379.882812" xlink:href="#DejaVuSans-20"/>
     <use x="411.669922" xlink:href="#DejaVuSans-2d"/>
     <use x="447.753906" xlink:href="#DejaVuSans-20"/>
     <use x="479.541016" xlink:href="#DejaVuSans-44"/>
     <use x="556.542969" xlink:href="#DejaVuSans-6f"/>
     <use x="617.724609" xlink:href="#DejaVuSans-73"/>
     <use x="669.824219" xlink:href="#DejaVuSans-65"/>
     <use x="731.347656" xlink:href="#DejaVuSans-64"/>
     <use x="794.824219" xlink:href="#DejaVuSans-20"/>
     <use x="826.611328" xlink:href="#DejaVuSans-61"/>
     <use x="887.890625" xlink:href="#DejaVuSans-74"/>
     <use x="927.099609" xlink:href="#DejaVuSans-20"/>
     <use x="958.886719" xlink:href="#DejaVuSans-31"/>
     <use x="1022.509766" xlink:href="#DejaVuSans-6e"/>
     <use x="1085.888672" xlink:href="#DejaVuSans-4d"/>
    </g>
   </g>
   <g id="legend_2">
    <g id="patch_13">
     <path d="M 1015.457864 47.059156 
L 1068.60952 47.059156 
Q 1070.14952 47.059156 1070.14952 45.519156 
L 1070.14952 17.772687 
Q 1070.14952 16.232687 1068.60952 16.232687 
L 1015.457864 16.232687 
Q 1013.917864 16.232687 1013.917864 17.772687 
L 1013.917864 45.519156 
Q 1013.917864 47.059156 1015.457864 47.059156 
z
" style="fill:#ffffff;opacity:0.5;stroke:#cccccc;stroke-linejoin:miter;"/>
    </g>
    <g id="line2d_33">
     <path d="M 1016.612864 22.083484 
L 1020.462864 22.083484 
" style="fill:none;stroke:#0173b2;stroke-linecap:round;stroke-width:1.5;"/>
    </g>
    <g id="line2d_34"/>
    <g id="text_30">
     <!-- Low(1e6) -->
     <g style="fill:#262626;" transform="translate(1024.312864 24.778484)scale(0.077 -0.077)">
      <use xlink:href="#DejaVuSans-4c"/>
      <use x="53.962891" xlink:href="#DejaVuSans-6f"/>
      <use x="115.144531" xlink:href="#DejaVuSans-77"/>
      <use x="196.931641" xlink:href="#DejaVuSans-28"/>
      <use x="235.945312" xlink:href="#DejaVuSans-31"/>
      <use x="299.568359" xlink:href="#DejaVuSans-65"/>
      <use x="361.091797" xlink:href="#DejaVuSans-36"/>
      <use x="424.714844" xlink:href="#DejaVuSans-29"/>
     </g>
    </g>
    <g id="line2d_35">
     <path d="M 1016.612864 31.075641 
L 1020.462864 31.075641 
" style="fill:none;stroke:#de8f05;stroke-linecap:round;stroke-width:1.5;"/>
    </g>
    <g id="line2d_36"/>
    <g id="text_31">
     <!-- Med(1e8) -->
     <g style="fill:#262626;" transform="translate(1024.312864 33.770641)scale(0.077 -0.077)">
      <use xlink:href="#DejaVuSans-4d"/>
      <use x="86.279297" xlink:href="#DejaVuSans-65"/>
      <use x="147.802734" xlink:href="#DejaVuSans-64"/>
      <use x="211.279297" xlink:href="#DejaVuSans-28"/>
      <use x="250.292969" xlink:href="#DejaVuSans-31"/>
      <use x="313.916016" xlink:href="#DejaVuSans-65"/>
      <use x="375.439453" xlink:href="#DejaVuSans-38"/>
      <use x="439.0625" xlink:href="#DejaVuSans-29"/>
     </g>
    </g>
    <g id="line2d_37">
     <path d="M 1016.612864 40.067797 
L 1020.462864 40.067797 
" style="fill:none;stroke:#029e73;stroke-linecap:round;stroke-width:1.5;"/>
    </g>
    <g id="line2d_38"/>
    <g id="text_32">
     <!-- High(1e10) -->
     <g style="fill:#262626;" transform="translate(1024.312864 42.762797)scale(0.077 -0.077)">
      <use xlink:href="#DejaVuSans-48"/>
      <use x="75.195312" xlink:href="#DejaVuSans-69"/>
      <use x="102.978516" xlink:href="#DejaVuSans-67"/>
      <use x="166.455078" xlink:href="#DejaVuSans-68"/>
      <use x="229.833984" xlink:href="#DejaVuSans-28"/>
      <use x="268.847656" xlink:href="#DejaVuSans-31"/>
      <use x="332.470703" xlink:href="#DejaVuSans-65"/>
      <use x="393.994141" xlink:href="#DejaVuSans-31"/>
      <use x="457.617188" xlink:href="#DejaVuSans-30"/>
      <use x="521.240234" xlink:href="#DejaVuSans-29"/>
     </g>
    </g>
   </g>
  </g>
  <g id="axes_3">
   <g id="patch_14">
    <path d="M 44.62525 542.417739 
L 531.59976 542.417739 
L 531.59976 300.382688 
L 44.62525 300.382688 
z
" style="fill:#ffffff;"/>
   </g>
   <g id="matplotlib.axis_5">
    <g id="xtick_43">
     <g id="line2d_39">
      <path clip-path="url(#p3f48a04ced)" d="M 66.760455 542.417739 
L 66.760455 300.382688 
" style="fill:none;stroke:#cccccc;stroke-dasharray:1,1.65;stroke-dashoffset:0;"/>
     </g>
     <g id="text_33">
      <!-- $\mathdefault{10^{2}}$ -->
      <g style="fill:#262626;" transform="translate(59.984455 556.268536)scale(0.077 -0.077)">
       <use transform="translate(0 0.765625)" xlink:href="#DejaVuSans-31"/>
       <use transform="translate(63.623047 0.765625)" xlink:href="#DejaVuSans-30"/>
       <use transform="translate(128.203125 39.046875)scale(0.7)" xlink:href="#DejaVuSans-32"/>
      </g>
     </g>
    </g>
    <g id="xtick_44">
     <g id="line2d_40">
      <path clip-path="url(#p3f48a04ced)" d="M 288.112505 542.417739 
L 288.112505 300.382688 
" style="fill:none;stroke:#cccccc;stroke-dasharray:1,1.65;stroke-dashoffset:0;"/>
     </g>
     <g id="text_34">
      <!-- $\mathdefault{10^{3}}$ -->
      <g style="fill:#262626;" transform="translate(281.336505 556.268536)scale(0.077 -0.077)">
       <use transform="translate(0 0.765625)" xlink:href="#DejaVuSans-31"/>
       <use transform="translate(63.623047 0.765625)" xlink:href="#DejaVuSans-30"/>
       <use transform="translate(128.203125 39.046875)scale(0.7)" xlink:href="#DejaVuSans-33"/>
      </g>
     </g>
    </g>
    <g id="xtick_45">
     <g id="line2d_41">
      <path clip-path="url(#p3f48a04ced)" d="M 509.464555 542.417739 
L 509.464555 300.382688 
" style="fill:none;stroke:#cccccc;stroke-dasharray:1,1.65;stroke-dashoffset:0;"/>
     </g>
     <g id="text_35">
      <!-- $\mathdefault{10^{4}}$ -->
      <g style="fill:#262626;" transform="translate(502.688555 556.268536)scale(0.077 -0.077)">
       <use transform="translate(0 0.684375)" xlink:href="#DejaVuSans-31"/>
       <use transform="translate(63.623047 0.684375)" xlink:href="#DejaVuSans-30"/>
       <use transform="translate(128.203125 38.965625)scale(0.7)" xlink:href="#DejaVuSans-34"/>
      </g>
     </g>
    </g>
    <g id="xtick_46"/>
    <g id="xtick_47"/>
    <g id="xtick_48"/>
    <g id="xtick_49"/>
    <g id="xtick_50"/>
    <g id="xtick_51"/>
    <g id="xtick_52"/>
    <g id="xtick_53"/>
    <g id="xtick_54"/>
    <g id="xtick_55"/>
    <g id="xtick_56"/>
    <g id="xtick_57"/>
    <g id="xtick_58"/>
    <g id="xtick_59"/>
    <g id="xtick_60"/>
    <g id="xtick_61"/>
    <g id="xtick_62"/>
    <g id="xtick_63"/>
    <g id="text_36">
     <!-- Epitope X Abundance -->
     <g style="fill:#262626;" transform="translate(242.953317 568.252583)scale(0.084 -0.084)">
      <use xlink:href="#DejaVuSans-45"/>
      <use x="63.183594" xlink:href="#DejaVuSans-70"/>
      <use x="126.660156" xlink:href="#DejaVuSans-69"/>
      <use x="154.443359" xlink:href="#DejaVuSans-74"/>
      <use x="193.652344" xlink:href="#DejaVuSans-6f"/>
      <use x="254.833984" xlink:href="#DejaVuSans-70"/>
      <use x="318.310547" xlink:href="#DejaVuSans-65"/>
      <use x="379.833984" xlink:href="#DejaVuSans-20"/>
      <use x="411.621094" xlink:href="#DejaVuSans-58"/>
      <use x="480.126953" xlink:href="#DejaVuSans-20"/>
      <use x="511.914062" xlink:href="#DejaVuSans-41"/>
      <use x="580.322266" xlink:href="#DejaVuSans-62"/>
      <use x="643.798828" xlink:href="#DejaVuSans-75"/>
      <use x="707.177734" xlink:href="#DejaVuSans-6e"/>
      <use x="770.556641" xlink:href="#DejaVuSans-64"/>
      <use x="834.033203" xlink:href="#DejaVuSans-61"/>
      <use x="895.3125" xlink:href="#DejaVuSans-6e"/>
      <use x="958.691406" xlink:href="#DejaVuSans-63"/>
      <use x="1013.671875" xlink:href="#DejaVuSans-65"/>
     </g>
    </g>
   </g>
   <g id="matplotlib.axis_6">
    <g id="ytick_15">
     <g id="line2d_42">
      <path clip-path="url(#p3f48a04ced)" d="M 44.62525 542.417739 
L 531.59976 542.417739 
" style="fill:none;stroke:#cccccc;stroke-dasharray:1,1.65;stroke-dashoffset:0;"/>
     </g>
     <g id="text_37">
      <!-- 4000 -->
      <g style="fill:#262626;" transform="translate(17.02875 545.343137)scale(0.077 -0.077)">
       <use xlink:href="#DejaVuSans-34"/>
       <use x="63.623047" xlink:href="#DejaVuSans-30"/>
       <use x="127.246094" xlink:href="#DejaVuSans-30"/>
       <use x="190.869141" xlink:href="#DejaVuSans-30"/>
      </g>
     </g>
    </g>
    <g id="ytick_16">
     <g id="line2d_43">
      <path clip-path="url(#p3f48a04ced)" d="M 44.62525 494.010729 
L 531.59976 494.010729 
" style="fill:none;stroke:#cccccc;stroke-dasharray:1,1.65;stroke-dashoffset:0;"/>
     </g>
     <g id="text_38">
      <!-- 4200 -->
      <g style="fill:#262626;" transform="translate(17.02875 496.936127)scale(0.077 -0.077)">
       <use xlink:href="#DejaVuSans-34"/>
       <use x="63.623047" xlink:href="#DejaVuSans-32"/>
       <use x="127.246094" xlink:href="#DejaVuSans-30"/>
       <use x="190.869141" xlink:href="#DejaVuSans-30"/>
      </g>
     </g>
    </g>
    <g id="ytick_17">
     <g id="line2d_44">
      <path clip-path="url(#p3f48a04ced)" d="M 44.62525 445.603718 
L 531.59976 445.603718 
" style="fill:none;stroke:#cccccc;stroke-dasharray:1,1.65;stroke-dashoffset:0;"/>
     </g>
     <g id="text_39">
      <!-- 4400 -->
      <g style="fill:#262626;" transform="translate(17.02875 448.529117)scale(0.077 -0.077)">
       <use xlink:href="#DejaVuSans-34"/>
       <use x="63.623047" xlink:href="#DejaVuSans-34"/>
       <use x="127.246094" xlink:href="#DejaVuSans-30"/>
       <use x="190.869141" xlink:href="#DejaVuSans-30"/>
      </g>
     </g>
    </g>
    <g id="ytick_18">
     <g id="line2d_45">
      <path clip-path="url(#p3f48a04ced)" d="M 44.62525 397.196708 
L 531.59976 397.196708 
" style="fill:none;stroke:#cccccc;stroke-dasharray:1,1.65;stroke-dashoffset:0;"/>
     </g>
     <g id="text_40">
      <!-- 4600 -->
      <g style="fill:#262626;" transform="translate(17.02875 400.122106)scale(0.077 -0.077)">
       <use xlink:href="#DejaVuSans-34"/>
       <use x="63.623047" xlink:href="#DejaVuSans-36"/>
       <use x="127.246094" xlink:href="#DejaVuSans-30"/>
       <use x="190.869141" xlink:href="#DejaVuSans-30"/>
      </g>
     </g>
    </g>
    <g id="ytick_19">
     <g id="line2d_46">
      <path clip-path="url(#p3f48a04ced)" d="M 44.62525 348.789698 
L 531.59976 348.789698 
" style="fill:none;stroke:#cccccc;stroke-dasharray:1,1.65;stroke-dashoffset:0;"/>
     </g>
     <g id="text_41">
      <!-- 4800 -->
      <g style="fill:#262626;" transform="translate(17.02875 351.715096)scale(0.077 -0.077)">
       <use xlink:href="#DejaVuSans-34"/>
       <use x="63.623047" xlink:href="#DejaVuSans-38"/>
       <use x="127.246094" xlink:href="#DejaVuSans-30"/>
       <use x="190.869141" xlink:href="#DejaVuSans-30"/>
      </g>
     </g>
    </g>
    <g id="ytick_20">
     <g id="line2d_47">
      <path clip-path="url(#p3f48a04ced)" d="M 44.62525 300.382687 
L 531.59976 300.382687 
" style="fill:none;stroke:#cccccc;stroke-dasharray:1,1.65;stroke-dashoffset:0;"/>
     </g>
     <g id="text_42">
      <!-- 5000 -->
      <g style="fill:#262626;" transform="translate(17.02875 303.308086)scale(0.077 -0.077)">
       <use xlink:href="#DejaVuSans-35"/>
       <use x="63.623047" xlink:href="#DejaVuSans-30"/>
       <use x="127.246094" xlink:href="#DejaVuSans-30"/>
       <use x="190.869141" xlink:href="#DejaVuSans-30"/>
      </g>
     </g>
    </g>
    <g id="text_43">
     <!-- pSTAT -->
     <g style="fill:#262626;" transform="translate(11.281813 434.085526)rotate(-90)scale(0.084 -0.084)">
      <use xlink:href="#DejaVuSans-70"/>
      <use x="63.476562" xlink:href="#DejaVuSans-53"/>
      <use x="126.953125" xlink:href="#DejaVuSans-54"/>
      <use x="180.287109" xlink:href="#DejaVuSans-41"/>
      <use x="240.945312" xlink:href="#DejaVuSans-54"/>
     </g>
    </g>
   </g>
   <g id="line2d_48">
    <path clip-path="url(#p3f48a04ced)" d="M 66.760455 503.355857 
L 200.027668 503.279526 
L 253.824639 503.203284 
L 288.112505 503.127129 
L 313.3341 503.051063 
L 333.294882 502.975084 
L 349.815186 502.899193 
L 363.908467 502.823389 
L 376.197342 502.747672 
L 387.091852 502.672043 
L 396.876423 502.5965 
L 405.756453 502.521044 
L 413.885121 502.445675 
L 421.379718 502.370393 
L 428.332046 502.295197 
L 434.81531 502.220087 
L 440.888822 502.145063 
L 446.601313 502.070125 
L 451.993304 501.995273 
L 457.098856 501.920507 
L 461.946874 501.845826 
L 466.562095 501.771231 
L 470.965856 501.69672 
L 475.176689 501.622295 
L 479.21079 501.547955 
L 483.082399 501.473699 
L 486.804102 501.399529 
L 490.387075 501.325442 
L 493.84129 501.25144 
L 497.175681 501.177522 
L 500.398283 501.103689 
L 503.51635 501.029939 
L 506.536451 500.956273 
L 509.464555 500.882691 
" style="fill:none;stroke:#0173b2;stroke-linecap:round;stroke-width:1.5;"/>
   </g>
   <g id="line2d_49">
    <path clip-path="url(#p3f48a04ced)" d="M 66.760455 502.307243 
L 200.027668 499.134287 
L 253.824639 496.035496 
L 288.112505 493.011078 
L 313.3341 490.061102 
L 333.294882 487.185498 
L 349.815186 484.384057 
L 363.908467 481.656433 
L 376.197342 479.002146 
L 387.091852 476.420588 
L 396.876423 473.911027 
L 405.756453 471.472615 
L 413.885121 469.104394 
L 421.379718 466.805303 
L 428.332046 464.574188 
L 434.81531 462.409815 
L 440.888822 460.310868 
L 446.601313 458.275973 
L 451.993304 456.303693 
L 457.098856 454.392547 
L 461.946874 452.541017 
L 466.562095 450.747552 
L 470.965856 449.010582 
L 475.176689 447.328521 
L 479.21079 445.699778 
L 483.082399 444.122761 
L 486.804102 442.595885 
L 490.387075 441.117575 
L 493.84129 439.686272 
L 497.175681 438.30044 
L 500.398283 436.958566 
L 503.51635 435.659165 
L 506.536451 434.400781 
L 509.464555 433.181993 
" style="fill:none;stroke:#de8f05;stroke-linecap:round;stroke-width:1.5;"/>
   </g>
   <g id="line2d_50">
    <path clip-path="url(#p3f48a04ced)" d="M 66.760455 501.545416 
L 200.027668 496.063561 
L 253.824639 490.624036 
L 288.112505 485.231915 
L 313.3341 479.892966 
L 333.294882 474.613743 
L 349.815186 469.401688 
L 363.908467 464.265224 
L 376.197342 459.213851 
L 387.091852 454.25822 
L 396.876423 449.410177 
L 405.756453 444.682752 
L 413.885121 440.090067 
L 421.379718 435.647134 
L 428.332046 431.369514 
L 434.81531 427.272807 
L 440.888822 423.371985 
L 446.601313 419.680584 
L 451.993304 416.209834 
L 457.098856 412.967832 
L 461.946874 409.95888 
L 466.562095 407.183122 
L 470.965856 404.636528 
L 475.176689 402.311252 
L 479.21079 400.196274 
L 483.082399 398.278223 
L 486.804102 396.542247 
L 490.387075 394.972827 
L 493.84129 393.554448 
L 497.175681 392.272119 
L 500.398283 391.111718 
L 503.51635 390.060206 
L 506.536451 389.105721 
L 509.464555 388.237588 
" style="fill:none;stroke:#029e73;stroke-linecap:round;stroke-width:1.5;"/>
   </g>
   <g id="patch_15">
    <path d="M 44.62525 542.417739 
L 44.62525 300.382687 
" style="fill:none;stroke:#cccccc;stroke-linecap:square;stroke-linejoin:miter;stroke-width:0.6;"/>
   </g>
   <g id="patch_16">
    <path d="M 531.59976 542.417739 
L 531.59976 300.382687 
" style="fill:none;stroke:#cccccc;stroke-linecap:square;stroke-linejoin:miter;stroke-width:0.6;"/>
   </g>
   <g id="patch_17">
    <path d="M 44.62525 542.417739 
L 531.59976 542.417739 
" style="fill:none;stroke:#cccccc;stroke-linecap:square;stroke-linejoin:miter;stroke-width:0.6;"/>
   </g>
   <g id="patch_18">
    <path d="M 44.62525 300.382688 
L 531.59976 300.382688 
" style="fill:none;stroke:#cccccc;stroke-linecap:square;stroke-linejoin:miter;stroke-width:0.6;"/>
   </g>
   <g id="text_44">
    <!-- NK - Dosed at 1nM -->
    <g style="fill:#262626;" transform="translate(248.940942 294.382688)scale(0.084 -0.084)">
     <defs>
      <path d="M 628 4666 
L 1478 4666 
L 3547 763 
L 3547 4666 
L 4159 4666 
L 4159 0 
L 3309 0 
L 1241 3903 
L 1241 0 
L 628 0 
L 628 4666 
z
" id="DejaVuSans-4e" transform="scale(0.015625)"/>
      <path d="M 628 4666 
L 1259 4666 
L 1259 2694 
L 3353 4666 
L 4166 4666 
L 1850 2491 
L 4331 0 
L 3500 0 
L 1259 2247 
L 1259 0 
L 628 0 
L 628 4666 
z
" id="DejaVuSans-4b" transform="scale(0.015625)"/>
     </defs>
     <use xlink:href="#DejaVuSans-4e"/>
     <use x="74.804688" xlink:href="#DejaVuSans-4b"/>
     <use x="140.380859" xlink:href="#DejaVuSans-20"/>
     <use x="172.167969" xlink:href="#DejaVuSans-2d"/>
     <use x="208.251953" xlink:href="#DejaVuSans-20"/>
     <use x="240.039062" xlink:href="#DejaVuSans-44"/>
     <use x="317.041016" xlink:href="#DejaVuSans-6f"/>
     <use x="378.222656" xlink:href="#DejaVuSans-73"/>
     <use x="430.322266" xlink:href="#DejaVuSans-65"/>
     <use x="491.845703" xlink:href="#DejaVuSans-64"/>
     <use x="555.322266" xlink:href="#DejaVuSans-20"/>
     <use x="587.109375" xlink:href="#DejaVuSans-61"/>
     <use x="648.388672" xlink:href="#DejaVuSans-74"/>
     <use x="687.597656" xlink:href="#DejaVuSans-20"/>
     <use x="719.384766" xlink:href="#DejaVuSans-31"/>
     <use x="783.007812" xlink:href="#DejaVuSans-6e"/>
     <use x="846.386719" xlink:href="#DejaVuSans-4d"/>
    </g>
   </g>
   <g id="legend_3">
    <g id="patch_19">
     <path d="M 473.058104 335.059156 
L 526.20976 335.059156 
Q 527.74976 335.059156 527.74976 333.519156 
L 527.74976 305.772688 
Q 527.74976 304.232688 526.20976 304.232688 
L 473.058104 304.232688 
Q 471.518104 304.232688 471.518104 305.772688 
L 471.518104 333.519156 
Q 471.518104 335.059156 473.058104 335.059156 
z
" style="fill:#ffffff;opacity:0.5;stroke:#cccccc;stroke-linejoin:miter;"/>
    </g>
    <g id="line2d_51">
     <path d="M 474.213104 310.083484 
L 478.063104 310.083484 
" style="fill:none;stroke:#0173b2;stroke-linecap:round;stroke-width:1.5;"/>
    </g>
    <g id="line2d_52"/>
    <g id="text_45">
     <!-- Low(1e6) -->
     <g style="fill:#262626;" transform="translate(481.913104 312.778484)scale(0.077 -0.077)">
      <use xlink:href="#DejaVuSans-4c"/>
      <use x="53.962891" xlink:href="#DejaVuSans-6f"/>
      <use x="115.144531" xlink:href="#DejaVuSans-77"/>
      <use x="196.931641" xlink:href="#DejaVuSans-28"/>
      <use x="235.945312" xlink:href="#DejaVuSans-31"/>
      <use x="299.568359" xlink:href="#DejaVuSans-65"/>
      <use x="361.091797" xlink:href="#DejaVuSans-36"/>
      <use x="424.714844" xlink:href="#DejaVuSans-29"/>
     </g>
    </g>
    <g id="line2d_53">
     <path d="M 474.213104 319.075641 
L 478.063104 319.075641 
" style="fill:none;stroke:#de8f05;stroke-linecap:round;stroke-width:1.5;"/>
    </g>
    <g id="line2d_54"/>
    <g id="text_46">
     <!-- Med(1e8) -->
     <g style="fill:#262626;" transform="translate(481.913104 321.770641)scale(0.077 -0.077)">
      <use xlink:href="#DejaVuSans-4d"/>
      <use x="86.279297" xlink:href="#DejaVuSans-65"/>
      <use x="147.802734" xlink:href="#DejaVuSans-64"/>
      <use x="211.279297" xlink:href="#DejaVuSans-28"/>
      <use x="250.292969" xlink:href="#DejaVuSans-31"/>
      <use x="313.916016" xlink:href="#DejaVuSans-65"/>
      <use x="375.439453" xlink:href="#DejaVuSans-38"/>
      <use x="439.0625" xlink:href="#DejaVuSans-29"/>
     </g>
    </g>
    <g id="line2d_55">
     <path d="M 474.213104 328.067797 
L 478.063104 328.067797 
" style="fill:none;stroke:#029e73;stroke-linecap:round;stroke-width:1.5;"/>
    </g>
    <g id="line2d_56"/>
    <g id="text_47">
     <!-- High(1e10) -->
     <g style="fill:#262626;" transform="translate(481.913104 330.762797)scale(0.077 -0.077)">
      <use xlink:href="#DejaVuSans-48"/>
      <use x="75.195312" xlink:href="#DejaVuSans-69"/>
      <use x="102.978516" xlink:href="#DejaVuSans-67"/>
      <use x="166.455078" xlink:href="#DejaVuSans-68"/>
      <use x="229.833984" xlink:href="#DejaVuSans-28"/>
      <use x="268.847656" xlink:href="#DejaVuSans-31"/>
      <use x="332.470703" xlink:href="#DejaVuSans-65"/>
      <use x="393.994141" xlink:href="#DejaVuSans-31"/>
      <use x="457.617188" xlink:href="#DejaVuSans-30"/>
      <use x="521.240234" xlink:href="#DejaVuSans-29"/>
     </g>
    </g>
   </g>
  </g>
  <g id="axes_4">
   <g id="patch_20">
    <path d="M 587.02501 542.417739 
L 1073.99952 542.417739 
L 1073.99952 300.382688 
L 587.02501 300.382688 
z
" style="fill:#ffffff;"/>
   </g>
   <g id="matplotlib.axis_7">
    <g id="xtick_64">
     <g id="line2d_57">
      <path clip-path="url(#p792084bb7c)" d="M 609.160215 542.417739 
L 609.160215 300.382688 
" style="fill:none;stroke:#cccccc;stroke-dasharray:1,1.65;stroke-dashoffset:0;"/>
     </g>
     <g id="text_48">
      <!-- $\mathdefault{10^{2}}$ -->
      <g style="fill:#262626;" transform="translate(602.384215 556.268536)scale(0.077 -0.077)">
       <use transform="translate(0 0.765625)" xlink:href="#DejaVuSans-31"/>
       <use transform="translate(63.623047 0.765625)" xlink:href="#DejaVuSans-30"/>
       <use transform="translate(128.203125 39.046875)scale(0.7)" xlink:href="#DejaVuSans-32"/>
      </g>
     </g>
    </g>
    <g id="xtick_65">
     <g id="line2d_58">
      <path clip-path="url(#p792084bb7c)" d="M 830.512265 542.417739 
L 830.512265 300.382688 
" style="fill:none;stroke:#cccccc;stroke-dasharray:1,1.65;stroke-dashoffset:0;"/>
     </g>
     <g id="text_49">
      <!-- $\mathdefault{10^{3}}$ -->
      <g style="fill:#262626;" transform="translate(823.736265 556.268536)scale(0.077 -0.077)">
       <use transform="translate(0 0.765625)" xlink:href="#DejaVuSans-31"/>
       <use transform="translate(63.623047 0.765625)" xlink:href="#DejaVuSans-30"/>
       <use transform="translate(128.203125 39.046875)scale(0.7)" xlink:href="#DejaVuSans-33"/>
      </g>
     </g>
    </g>
    <g id="xtick_66">
     <g id="line2d_59">
      <path clip-path="url(#p792084bb7c)" d="M 1051.864315 542.417739 
L 1051.864315 300.382688 
" style="fill:none;stroke:#cccccc;stroke-dasharray:1,1.65;stroke-dashoffset:0;"/>
     </g>
     <g id="text_50">
      <!-- $\mathdefault{10^{4}}$ -->
      <g style="fill:#262626;" transform="translate(1045.088315 556.268536)scale(0.077 -0.077)">
       <use transform="translate(0 0.684375)" xlink:href="#DejaVuSans-31"/>
       <use transform="translate(63.623047 0.684375)" xlink:href="#DejaVuSans-30"/>
       <use transform="translate(128.203125 38.965625)scale(0.7)" xlink:href="#DejaVuSans-34"/>
      </g>
     </g>
    </g>
    <g id="xtick_67"/>
    <g id="xtick_68"/>
    <g id="xtick_69"/>
    <g id="xtick_70"/>
    <g id="xtick_71"/>
    <g id="xtick_72"/>
    <g id="xtick_73"/>
    <g id="xtick_74"/>
    <g id="xtick_75"/>
    <g id="xtick_76"/>
    <g id="xtick_77"/>
    <g id="xtick_78"/>
    <g id="xtick_79"/>
    <g id="xtick_80"/>
    <g id="xtick_81"/>
    <g id="xtick_82"/>
    <g id="xtick_83"/>
    <g id="xtick_84"/>
    <g id="text_51">
     <!-- Epitope X Abundance -->
     <g style="fill:#262626;" transform="translate(785.353077 568.252583)scale(0.084 -0.084)">
      <use xlink:href="#DejaVuSans-45"/>
      <use x="63.183594" xlink:href="#DejaVuSans-70"/>
      <use x="126.660156" xlink:href="#DejaVuSans-69"/>
      <use x="154.443359" xlink:href="#DejaVuSans-74"/>
      <use x="193.652344" xlink:href="#DejaVuSans-6f"/>
      <use x="254.833984" xlink:href="#DejaVuSans-70"/>
      <use x="318.310547" xlink:href="#DejaVuSans-65"/>
      <use x="379.833984" xlink:href="#DejaVuSans-20"/>
      <use x="411.621094" xlink:href="#DejaVuSans-58"/>
      <use x="480.126953" xlink:href="#DejaVuSans-20"/>
      <use x="511.914062" xlink:href="#DejaVuSans-41"/>
      <use x="580.322266" xlink:href="#DejaVuSans-62"/>
      <use x="643.798828" xlink:href="#DejaVuSans-75"/>
      <use x="707.177734" xlink:href="#DejaVuSans-6e"/>
      <use x="770.556641" xlink:href="#DejaVuSans-64"/>
      <use x="834.033203" xlink:href="#DejaVuSans-61"/>
      <use x="895.3125" xlink:href="#DejaVuSans-6e"/>
      <use x="958.691406" xlink:href="#DejaVuSans-63"/>
      <use x="1013.671875" xlink:href="#DejaVuSans-65"/>
     </g>
    </g>
   </g>
   <g id="matplotlib.axis_8">
    <g id="ytick_21">
     <g id="line2d_60">
      <path clip-path="url(#p792084bb7c)" d="M 587.02501 542.417739 
L 1073.99952 542.417739 
" style="fill:none;stroke:#cccccc;stroke-dasharray:1,1.65;stroke-dashoffset:0;"/>
     </g>
     <g id="text_52">
      <!-- 6200 -->
      <g style="fill:#262626;" transform="translate(559.42851 545.343137)scale(0.077 -0.077)">
       <use xlink:href="#DejaVuSans-36"/>
       <use x="63.623047" xlink:href="#DejaVuSans-32"/>
       <use x="127.246094" xlink:href="#DejaVuSans-30"/>
       <use x="190.869141" xlink:href="#DejaVuSans-30"/>
      </g>
     </g>
    </g>
    <g id="ytick_22">
     <g id="line2d_61">
      <path clip-path="url(#p792084bb7c)" d="M 587.02501 505.181577 
L 1073.99952 505.181577 
" style="fill:none;stroke:#cccccc;stroke-dasharray:1,1.65;stroke-dashoffset:0;"/>
     </g>
     <g id="text_53">
      <!-- 6400 -->
      <g style="fill:#262626;" transform="translate(559.42851 508.106975)scale(0.077 -0.077)">
       <use xlink:href="#DejaVuSans-36"/>
       <use x="63.623047" xlink:href="#DejaVuSans-34"/>
       <use x="127.246094" xlink:href="#DejaVuSans-30"/>
       <use x="190.869141" xlink:href="#DejaVuSans-30"/>
      </g>
     </g>
    </g>
    <g id="ytick_23">
     <g id="line2d_62">
      <path clip-path="url(#p792084bb7c)" d="M 587.02501 467.945415 
L 1073.99952 467.945415 
" style="fill:none;stroke:#cccccc;stroke-dasharray:1,1.65;stroke-dashoffset:0;"/>
     </g>
     <g id="text_54">
      <!-- 6600 -->
      <g style="fill:#262626;" transform="translate(559.42851 470.870814)scale(0.077 -0.077)">
       <use xlink:href="#DejaVuSans-36"/>
       <use x="63.623047" xlink:href="#DejaVuSans-36"/>
       <use x="127.246094" xlink:href="#DejaVuSans-30"/>
       <use x="190.869141" xlink:href="#DejaVuSans-30"/>
      </g>
     </g>
    </g>
    <g id="ytick_24">
     <g id="line2d_63">
      <path clip-path="url(#p792084bb7c)" d="M 587.02501 430.709254 
L 1073.99952 430.709254 
" style="fill:none;stroke:#cccccc;stroke-dasharray:1,1.65;stroke-dashoffset:0;"/>
     </g>
     <g id="text_55">
      <!-- 6800 -->
      <g style="fill:#262626;" transform="translate(559.42851 433.634652)scale(0.077 -0.077)">
       <use xlink:href="#DejaVuSans-36"/>
       <use x="63.623047" xlink:href="#DejaVuSans-38"/>
       <use x="127.246094" xlink:href="#DejaVuSans-30"/>
       <use x="190.869141" xlink:href="#DejaVuSans-30"/>
      </g>
     </g>
    </g>
    <g id="ytick_25">
     <g id="line2d_64">
      <path clip-path="url(#p792084bb7c)" d="M 587.02501 393.473092 
L 1073.99952 393.473092 
" style="fill:none;stroke:#cccccc;stroke-dasharray:1,1.65;stroke-dashoffset:0;"/>
     </g>
     <g id="text_56">
      <!-- 7000 -->
      <g style="fill:#262626;" transform="translate(559.42851 396.39849)scale(0.077 -0.077)">
       <use xlink:href="#DejaVuSans-37"/>
       <use x="63.623047" xlink:href="#DejaVuSans-30"/>
       <use x="127.246094" xlink:href="#DejaVuSans-30"/>
       <use x="190.869141" xlink:href="#DejaVuSans-30"/>
      </g>
     </g>
    </g>
    <g id="ytick_26">
     <g id="line2d_65">
      <path clip-path="url(#p792084bb7c)" d="M 587.02501 356.23693 
L 1073.99952 356.23693 
" style="fill:none;stroke:#cccccc;stroke-dasharray:1,1.65;stroke-dashoffset:0;"/>
     </g>
     <g id="text_57">
      <!-- 7200 -->
      <g style="fill:#262626;" transform="translate(559.42851 359.162329)scale(0.077 -0.077)">
       <use xlink:href="#DejaVuSans-37"/>
       <use x="63.623047" xlink:href="#DejaVuSans-32"/>
       <use x="127.246094" xlink:href="#DejaVuSans-30"/>
       <use x="190.869141" xlink:href="#DejaVuSans-30"/>
      </g>
     </g>
    </g>
    <g id="ytick_27">
     <g id="line2d_66">
      <path clip-path="url(#p792084bb7c)" d="M 587.02501 319.000768 
L 1073.99952 319.000768 
" style="fill:none;stroke:#cccccc;stroke-dasharray:1,1.65;stroke-dashoffset:0;"/>
     </g>
     <g id="text_58">
      <!-- 7400 -->
      <g style="fill:#262626;" transform="translate(559.42851 321.926167)scale(0.077 -0.077)">
       <use xlink:href="#DejaVuSans-37"/>
       <use x="63.623047" xlink:href="#DejaVuSans-34"/>
       <use x="127.246094" xlink:href="#DejaVuSans-30"/>
       <use x="190.869141" xlink:href="#DejaVuSans-30"/>
      </g>
     </g>
    </g>
    <g id="text_59">
     <!-- pSTAT -->
     <g style="fill:#262626;" transform="translate(553.681572 434.085526)rotate(-90)scale(0.084 -0.084)">
      <use xlink:href="#DejaVuSans-70"/>
      <use x="63.476562" xlink:href="#DejaVuSans-53"/>
      <use x="126.953125" xlink:href="#DejaVuSans-54"/>
      <use x="180.287109" xlink:href="#DejaVuSans-41"/>
      <use x="240.945312" xlink:href="#DejaVuSans-54"/>
     </g>
    </g>
   </g>
   <g id="line2d_67">
    <path clip-path="url(#p792084bb7c)" d="M 609.160215 513.702928 
L 742.427428 513.616188 
L 796.224399 513.529551 
L 830.512265 513.443015 
L 855.73386 513.35658 
L 875.694642 513.270247 
L 892.214946 513.184014 
L 906.308227 513.097883 
L 918.597102 513.011852 
L 929.491612 512.925922 
L 939.276183 512.840092 
L 948.156213 512.754362 
L 956.284881 512.668732 
L 963.779478 512.583202 
L 970.731806 512.497772 
L 977.21507 512.412441 
L 983.288582 512.327209 
L 989.001073 512.242077 
L 994.393064 512.157043 
L 999.498616 512.072109 
L 1004.346634 511.987272 
L 1008.961855 511.902535 
L 1013.365616 511.817895 
L 1017.576449 511.733354 
L 1021.61055 511.648911 
L 1025.482159 511.564565 
L 1029.203862 511.480317 
L 1032.786835 511.396167 
L 1036.24105 511.312113 
L 1039.575441 511.228157 
L 1042.798043 511.144298 
L 1045.91611 511.060535 
L 1048.936211 510.976869 
L 1051.864315 510.8933 
" style="fill:none;stroke:#0173b2;stroke-linecap:round;stroke-width:1.5;"/>
   </g>
   <g id="line2d_68">
    <path clip-path="url(#p792084bb7c)" d="M 609.160215 512.114918 
L 742.427428 507.395783 
L 796.224399 502.87026 
L 830.512265 498.532955 
L 855.73386 494.378143 
L 875.694642 490.399839 
L 892.214946 486.591868 
L 906.308227 482.947924 
L 918.597102 479.461633 
L 929.491612 476.1266 
L 939.276183 472.936467 
L 948.156213 469.884941 
L 956.284881 466.965841 
L 963.779478 464.17312 
L 970.731806 461.50089 
L 977.21507 458.943444 
L 983.288582 456.495269 
L 989.001073 454.151056 
L 994.393064 451.905704 
L 999.498616 449.754332 
L 1004.346634 447.692269 
L 1008.961855 445.715063 
L 1013.365616 443.818472 
L 1017.576449 441.998464 
L 1021.61055 440.251205 
L 1025.482159 438.573063 
L 1029.203862 436.960589 
L 1032.786835 435.410521 
L 1036.24105 433.919768 
L 1039.575441 432.485407 
L 1042.798043 431.104673 
L 1045.91611 429.774951 
L 1048.936211 428.49377 
L 1051.864315 427.258795 
" style="fill:none;stroke:#de8f05;stroke-linecap:round;stroke-width:1.5;"/>
   </g>
   <g id="line2d_69">
    <path clip-path="url(#p792084bb7c)" d="M 609.160215 510.106148 
L 742.427428 499.39728 
L 796.224399 488.974932 
L 830.512265 478.888218 
L 855.73386 469.192142 
L 875.694642 459.946183 
L 892.214946 451.211496 
L 906.308227 443.046555 
L 918.597102 435.501475 
L 929.491612 428.611933 
L 939.276183 422.394134 
L 948.156213 416.842362 
L 956.284881 411.92993 
L 963.779478 407.613209 
L 970.731806 403.837424 
L 977.21507 400.542648 
L 983.288582 397.668806 
L 989.001073 395.159162 
L 994.393064 392.962311 
L 999.498616 391.033005 
L 1004.346634 389.332186 
L 1008.961855 387.826567 
L 1013.365616 386.488004 
L 1017.576449 385.2928 
L 1021.61055 384.221037 
L 1025.482159 383.255968 
L 1029.203862 382.383489 
L 1032.786835 381.591697 
L 1036.24105 380.870508 
L 1039.575441 380.211356 
L 1042.798043 379.606932 
L 1045.91611 379.050979 
L 1048.936211 378.538115 
L 1051.864315 378.063698 
" style="fill:none;stroke:#029e73;stroke-linecap:round;stroke-width:1.5;"/>
   </g>
   <g id="patch_21">
    <path d="M 587.02501 542.417739 
L 587.02501 300.382688 
" style="fill:none;stroke:#cccccc;stroke-linecap:square;stroke-linejoin:miter;stroke-width:0.6;"/>
   </g>
   <g id="patch_22">
    <path d="M 1073.99952 542.417739 
L 1073.99952 300.382688 
" style="fill:none;stroke:#cccccc;stroke-linecap:square;stroke-linejoin:miter;stroke-width:0.6;"/>
   </g>
   <g id="patch_23">
    <path d="M 587.02501 542.417739 
L 1073.99952 542.417739 
" style="fill:none;stroke:#cccccc;stroke-linecap:square;stroke-linejoin:miter;stroke-width:0.6;"/>
   </g>
   <g id="patch_24">
    <path d="M 587.02501 300.382688 
L 1073.99952 300.382688 
" style="fill:none;stroke:#cccccc;stroke-linecap:square;stroke-linejoin:miter;stroke-width:0.6;"/>
   </g>
   <g id="text_60">
    <!-- CD8 - Dosed at 1nM -->
    <g style="fill:#262626;" transform="translate(788.398077 294.382688)scale(0.084 -0.084)">
     <defs>
      <path d="M 4122 4306 
L 4122 3641 
Q 3803 3938 3442 4084 
Q 3081 4231 2675 4231 
Q 1875 4231 1450 3742 
Q 1025 3253 1025 2328 
Q 1025 1406 1450 917 
Q 1875 428 2675 428 
Q 3081 428 3442 575 
Q 3803 722 4122 1019 
L 4122 359 
Q 3791 134 3420 21 
Q 3050 -91 2638 -91 
Q 1578 -91 968 557 
Q 359 1206 359 2328 
Q 359 3453 968 4101 
Q 1578 4750 2638 4750 
Q 3056 4750 3426 4639 
Q 3797 4528 4122 4306 
z
" id="DejaVuSans-43" transform="scale(0.015625)"/>
     </defs>
     <use xlink:href="#DejaVuSans-43"/>
     <use x="69.824219" xlink:href="#DejaVuSans-44"/>
     <use x="146.826172" xlink:href="#DejaVuSans-38"/>
     <use x="210.449219" xlink:href="#DejaVuSans-20"/>
     <use x="242.236328" xlink:href="#DejaVuSans-2d"/>
     <use x="278.320312" xlink:href="#DejaVuSans-20"/>
     <use x="310.107422" xlink:href="#DejaVuSans-44"/>
     <use x="387.109375" xlink:href="#DejaVuSans-6f"/>
     <use x="448.291016" xlink:href="#DejaVuSans-73"/>
     <use x="500.390625" xlink:href="#DejaVuSans-65"/>
     <use x="561.914062" xlink:href="#DejaVuSans-64"/>
     <use x="625.390625" xlink:href="#DejaVuSans-20"/>
     <use x="657.177734" xlink:href="#DejaVuSans-61"/>
     <use x="718.457031" xlink:href="#DejaVuSans-74"/>
     <use x="757.666016" xlink:href="#DejaVuSans-20"/>
     <use x="789.453125" xlink:href="#DejaVuSans-31"/>
     <use x="853.076172" xlink:href="#DejaVuSans-6e"/>
     <use x="916.455078" xlink:href="#DejaVuSans-4d"/>
    </g>
   </g>
   <g id="legend_4">
    <g id="patch_25">
     <path d="M 1015.457864 335.059156 
L 1068.60952 335.059156 
Q 1070.14952 335.059156 1070.14952 333.519156 
L 1070.14952 305.772688 
Q 1070.14952 304.232688 1068.60952 304.232688 
L 1015.457864 304.232688 
Q 1013.917864 304.232688 1013.917864 305.772688 
L 1013.917864 333.519156 
Q 1013.917864 335.059156 1015.457864 335.059156 
z
" style="fill:#ffffff;opacity:0.5;stroke:#cccccc;stroke-linejoin:miter;"/>
    </g>
    <g id="line2d_70">
     <path d="M 1016.612864 310.083484 
L 1020.462864 310.083484 
" style="fill:none;stroke:#0173b2;stroke-linecap:round;stroke-width:1.5;"/>
    </g>
    <g id="line2d_71"/>
    <g id="text_61">
     <!-- Low(1e6) -->
     <g style="fill:#262626;" transform="translate(1024.312864 312.778484)scale(0.077 -0.077)">
      <use xlink:href="#DejaVuSans-4c"/>
      <use x="53.962891" xlink:href="#DejaVuSans-6f"/>
      <use x="115.144531" xlink:href="#DejaVuSans-77"/>
      <use x="196.931641" xlink:href="#DejaVuSans-28"/>
      <use x="235.945312" xlink:href="#DejaVuSans-31"/>
      <use x="299.568359" xlink:href="#DejaVuSans-65"/>
      <use x="361.091797" xlink:href="#DejaVuSans-36"/>
      <use x="424.714844" xlink:href="#DejaVuSans-29"/>
     </g>
    </g>
    <g id="line2d_72">
     <path d="M 1016.612864 319.075641 
L 1020.462864 319.075641 
" style="fill:none;stroke:#de8f05;stroke-linecap:round;stroke-width:1.5;"/>
    </g>
    <g id="line2d_73"/>
    <g id="text_62">
     <!-- Med(1e8) -->
     <g style="fill:#262626;" transform="translate(1024.312864 321.770641)scale(0.077 -0.077)">
      <use xlink:href="#DejaVuSans-4d"/>
      <use x="86.279297" xlink:href="#DejaVuSans-65"/>
      <use x="147.802734" xlink:href="#DejaVuSans-64"/>
      <use x="211.279297" xlink:href="#DejaVuSans-28"/>
      <use x="250.292969" xlink:href="#DejaVuSans-31"/>
      <use x="313.916016" xlink:href="#DejaVuSans-65"/>
      <use x="375.439453" xlink:href="#DejaVuSans-38"/>
      <use x="439.0625" xlink:href="#DejaVuSans-29"/>
     </g>
    </g>
    <g id="line2d_74">
     <path d="M 1016.612864 328.067797 
L 1020.462864 328.067797 
" style="fill:none;stroke:#029e73;stroke-linecap:round;stroke-width:1.5;"/>
    </g>
    <g id="line2d_75"/>
    <g id="text_63">
     <!-- High(1e10) -->
     <g style="fill:#262626;" transform="translate(1024.312864 330.762797)scale(0.077 -0.077)">
      <use xlink:href="#DejaVuSans-48"/>
      <use x="75.195312" xlink:href="#DejaVuSans-69"/>
      <use x="102.978516" xlink:href="#DejaVuSans-67"/>
      <use x="166.455078" xlink:href="#DejaVuSans-68"/>
      <use x="229.833984" xlink:href="#DejaVuSans-28"/>
      <use x="268.847656" xlink:href="#DejaVuSans-31"/>
      <use x="332.470703" xlink:href="#DejaVuSans-65"/>
      <use x="393.994141" xlink:href="#DejaVuSans-31"/>
      <use x="457.617188" xlink:href="#DejaVuSans-30"/>
      <use x="521.240234" xlink:href="#DejaVuSans-29"/>
     </g>
    </g>
   </g>
  </g>
 </g>
 <defs>
  <clipPath id="pf91173caa0">
   <rect height="242.035051" width="486.97451" x="44.62525" y="12.382687"/>
  </clipPath>
  <clipPath id="p8431071a8b">
   <rect height="242.035051" width="486.97451" x="587.02501" y="12.382687"/>
  </clipPath>
  <clipPath id="p3f48a04ced">
   <rect height="242.035051" width="486.97451" x="44.62525" y="300.382688"/>
  </clipPath>
  <clipPath id="p792084bb7c">
   <rect height="242.035051" width="486.97451" x="587.02501" y="300.382688"/>
  </clipPath>
 </defs>
</svg>
