<?xml version="1.0" encoding="utf-8" standalone="no"?>
<!DOCTYPE svg PUBLIC "-//W3C//DTD SVG 1.1//EN"
  "http://www.w3.org/Graphics/SVG/1.1/DTD/svg11.dtd">
<svg height="857.99952pt" version="1.1" viewBox="0 0 1073.99952 857.99952" width="1073.99952pt" xmlns="http://www.w3.org/2000/svg" xmlns:xlink="http://www.w3.org/1999/xlink">
 <metadata>
  <rdf:RDF xmlns:cc="http://creativecommons.org/ns#" xmlns:dc="http://purl.org/dc/elements/1.1/" xmlns:rdf="http://www.w3.org/1999/02/22-rdf-syntax-ns#">
   <cc:Work>
    <dc:type rdf:resource="http://purl.org/dc/dcmitype/StillImage"/>
    <dc:date>2021-08-18T14:59:15.906823</dc:date>
    <dc:format>image/svg+xml</dc:format>
    <dc:creator>
     <cc:Agent>
      <dc:title>Matplotlib v3.4.2, https://matplotlib.org/</dc:title>
     </cc:Agent>
    </dc:creator>
   </cc:Work>
  </rdf:RDF>
 </metadata>
 <defs>
  <style type="text/css">*{stroke-linecap:butt;stroke-linejoin:round;}</style>
 </defs>
 <g id="figure_1">
  <g id="patch_1">
   <path d="M 0 857.99952 
L 1073.99952 857.99952 
L 1073.99952 0 
L 0 0 
z
" style="fill:#ffffff;"/>
  </g>
  <g id="axes_1">
   <g id="patch_2">
    <path d="M 44.62525 397.097979 
L 531.59976 397.097979 
L 531.59976 12.382687 
L 44.62525 12.382687 
z
" style="fill:#ffffff;"/>
   </g>
   <g id="matplotlib.axis_1">
    <g id="xtick_1">
     <g id="line2d_1">
      <path clip-path="url(#p264d97f73f)" d="M 66.760455 397.097979 
L 66.760455 12.382687 
" style="fill:none;stroke:#cccccc;stroke-dasharray:1,1.65;stroke-dashoffset:0;"/>
     </g>
     <g id="text_1">
      <!-- $\mathdefault{10^{2}}$ -->
      <g style="fill:#262626;" transform="translate(59.984455 410.948776)scale(0.077 -0.077)">
       <defs>
        <path d="M 794 531 
L 1825 531 
L 1825 4091 
L 703 3866 
L 703 4441 
L 1819 4666 
L 2450 4666 
L 2450 531 
L 3481 531 
L 3481 0 
L 794 0 
L 794 531 
z
" id="DejaVuSans-31" transform="scale(0.015625)"/>
        <path d="M 2034 4250 
Q 1547 4250 1301 3770 
Q 1056 3291 1056 2328 
Q 1056 1369 1301 889 
Q 1547 409 2034 409 
Q 2525 409 2770 889 
Q 3016 1369 3016 2328 
Q 3016 3291 2770 3770 
Q 2525 4250 2034 4250 
z
M 2034 4750 
Q 2819 4750 3233 4129 
Q 3647 3509 3647 2328 
Q 3647 1150 3233 529 
Q 2819 -91 2034 -91 
Q 1250 -91 836 529 
Q 422 1150 422 2328 
Q 422 3509 836 4129 
Q 1250 4750 2034 4750 
z
" id="DejaVuSans-30" transform="scale(0.015625)"/>
        <path d="M 1228 531 
L 3431 531 
L 3431 0 
L 469 0 
L 469 531 
Q 828 903 1448 1529 
Q 2069 2156 2228 2338 
Q 2531 2678 2651 2914 
Q 2772 3150 2772 3378 
Q 2772 3750 2511 3984 
Q 2250 4219 1831 4219 
Q 1534 4219 1204 4116 
Q 875 4013 500 3803 
L 500 4441 
Q 881 4594 1212 4672 
Q 1544 4750 1819 4750 
Q 2544 4750 2975 4387 
Q 3406 4025 3406 3419 
Q 3406 3131 3298 2873 
Q 3191 2616 2906 2266 
Q 2828 2175 2409 1742 
Q 1991 1309 1228 531 
z
" id="DejaVuSans-32" transform="scale(0.015625)"/>
       </defs>
       <use transform="translate(0 0.765625)" xlink:href="#DejaVuSans-31"/>
       <use transform="translate(63.623047 0.765625)" xlink:href="#DejaVuSans-30"/>
       <use transform="translate(128.203125 39.046875)scale(0.7)" xlink:href="#DejaVuSans-32"/>
      </g>
     </g>
    </g>
    <g id="xtick_2">
     <g id="line2d_2">
      <path clip-path="url(#p264d97f73f)" d="M 288.112505 397.097979 
L 288.112505 12.382687 
" style="fill:none;stroke:#cccccc;stroke-dasharray:1,1.65;stroke-dashoffset:0;"/>
     </g>
     <g id="text_2">
      <!-- $\mathdefault{10^{3}}$ -->
      <g style="fill:#262626;" transform="translate(281.336505 410.948776)scale(0.077 -0.077)">
       <defs>
        <path d="M 2597 2516 
Q 3050 2419 3304 2112 
Q 3559 1806 3559 1356 
Q 3559 666 3084 287 
Q 2609 -91 1734 -91 
Q 1441 -91 1130 -33 
Q 819 25 488 141 
L 488 750 
Q 750 597 1062 519 
Q 1375 441 1716 441 
Q 2309 441 2620 675 
Q 2931 909 2931 1356 
Q 2931 1769 2642 2001 
Q 2353 2234 1838 2234 
L 1294 2234 
L 1294 2753 
L 1863 2753 
Q 2328 2753 2575 2939 
Q 2822 3125 2822 3475 
Q 2822 3834 2567 4026 
Q 2313 4219 1838 4219 
Q 1578 4219 1281 4162 
Q 984 4106 628 3988 
L 628 4550 
Q 988 4650 1302 4700 
Q 1616 4750 1894 4750 
Q 2613 4750 3031 4423 
Q 3450 4097 3450 3541 
Q 3450 3153 3228 2886 
Q 3006 2619 2597 2516 
z
" id="DejaVuSans-33" transform="scale(0.015625)"/>
       </defs>
       <use transform="translate(0 0.765625)" xlink:href="#DejaVuSans-31"/>
       <use transform="translate(63.623047 0.765625)" xlink:href="#DejaVuSans-30"/>
       <use transform="translate(128.203125 39.046875)scale(0.7)" xlink:href="#DejaVuSans-33"/>
      </g>
     </g>
    </g>
    <g id="xtick_3">
     <g id="line2d_3">
      <path clip-path="url(#p264d97f73f)" d="M 509.464555 397.097979 
L 509.464555 12.382687 
" style="fill:none;stroke:#cccccc;stroke-dasharray:1,1.65;stroke-dashoffset:0;"/>
     </g>
     <g id="text_3">
      <!-- $\mathdefault{10^{4}}$ -->
      <g style="fill:#262626;" transform="translate(502.688555 410.948776)scale(0.077 -0.077)">
       <defs>
        <path d="M 2419 4116 
L 825 1625 
L 2419 1625 
L 2419 4116 
z
M 2253 4666 
L 3047 4666 
L 3047 1625 
L 3713 1625 
L 3713 1100 
L 3047 1100 
L 3047 0 
L 2419 0 
L 2419 1100 
L 313 1100 
L 313 1709 
L 2253 4666 
z
" id="DejaVuSans-34" transform="scale(0.015625)"/>
       </defs>
       <use transform="translate(0 0.684375)" xlink:href="#DejaVuSans-31"/>
       <use transform="translate(63.623047 0.684375)" xlink:href="#DejaVuSans-30"/>
       <use transform="translate(128.203125 38.965625)scale(0.7)" xlink:href="#DejaVuSans-34"/>
      </g>
     </g>
    </g>
    <g id="xtick_4"/>
    <g id="xtick_5"/>
    <g id="xtick_6"/>
    <g id="xtick_7"/>
    <g id="xtick_8"/>
    <g id="xtick_9"/>
    <g id="xtick_10"/>
    <g id="xtick_11"/>
    <g id="xtick_12"/>
    <g id="xtick_13"/>
    <g id="xtick_14"/>
    <g id="xtick_15"/>
    <g id="xtick_16"/>
    <g id="xtick_17"/>
    <g id="xtick_18"/>
    <g id="xtick_19"/>
    <g id="xtick_20"/>
    <g id="xtick_21"/>
    <g id="text_4">
     <!-- Epitope X Abundance -->
     <g style="fill:#262626;" transform="translate(242.953317 422.932823)scale(0.084 -0.084)">
      <defs>
       <path d="M 628 4666 
L 3578 4666 
L 3578 4134 
L 1259 4134 
L 1259 2753 
L 3481 2753 
L 3481 2222 
L 1259 2222 
L 1259 531 
L 3634 531 
L 3634 0 
L 628 0 
L 628 4666 
z
" id="DejaVuSans-45" transform="scale(0.015625)"/>
       <path d="M 1159 525 
L 1159 -1331 
L 581 -1331 
L 581 3500 
L 1159 3500 
L 1159 2969 
Q 1341 3281 1617 3432 
Q 1894 3584 2278 3584 
Q 2916 3584 3314 3078 
Q 3713 2572 3713 1747 
Q 3713 922 3314 415 
Q 2916 -91 2278 -91 
Q 1894 -91 1617 61 
Q 1341 213 1159 525 
z
M 3116 1747 
Q 3116 2381 2855 2742 
Q 2594 3103 2138 3103 
Q 1681 3103 1420 2742 
Q 1159 2381 1159 1747 
Q 1159 1113 1420 752 
Q 1681 391 2138 391 
Q 2594 391 2855 752 
Q 3116 1113 3116 1747 
z
" id="DejaVuSans-70" transform="scale(0.015625)"/>
       <path d="M 603 3500 
L 1178 3500 
L 1178 0 
L 603 0 
L 603 3500 
z
M 603 4863 
L 1178 4863 
L 1178 4134 
L 603 4134 
L 603 4863 
z
" id="DejaVuSans-69" transform="scale(0.015625)"/>
       <path d="M 1172 4494 
L 1172 3500 
L 2356 3500 
L 2356 3053 
L 1172 3053 
L 1172 1153 
Q 1172 725 1289 603 
Q 1406 481 1766 481 
L 2356 481 
L 2356 0 
L 1766 0 
Q 1100 0 847 248 
Q 594 497 594 1153 
L 594 3053 
L 172 3053 
L 172 3500 
L 594 3500 
L 594 4494 
L 1172 4494 
z
" id="DejaVuSans-74" transform="scale(0.015625)"/>
       <path d="M 1959 3097 
Q 1497 3097 1228 2736 
Q 959 2375 959 1747 
Q 959 1119 1226 758 
Q 1494 397 1959 397 
Q 2419 397 2687 759 
Q 2956 1122 2956 1747 
Q 2956 2369 2687 2733 
Q 2419 3097 1959 3097 
z
M 1959 3584 
Q 2709 3584 3137 3096 
Q 3566 2609 3566 1747 
Q 3566 888 3137 398 
Q 2709 -91 1959 -91 
Q 1206 -91 779 398 
Q 353 888 353 1747 
Q 353 2609 779 3096 
Q 1206 3584 1959 3584 
z
" id="DejaVuSans-6f" transform="scale(0.015625)"/>
       <path d="M 3597 1894 
L 3597 1613 
L 953 1613 
Q 991 1019 1311 708 
Q 1631 397 2203 397 
Q 2534 397 2845 478 
Q 3156 559 3463 722 
L 3463 178 
Q 3153 47 2828 -22 
Q 2503 -91 2169 -91 
Q 1331 -91 842 396 
Q 353 884 353 1716 
Q 353 2575 817 3079 
Q 1281 3584 2069 3584 
Q 2775 3584 3186 3129 
Q 3597 2675 3597 1894 
z
M 3022 2063 
Q 3016 2534 2758 2815 
Q 2500 3097 2075 3097 
Q 1594 3097 1305 2825 
Q 1016 2553 972 2059 
L 3022 2063 
z
" id="DejaVuSans-65" transform="scale(0.015625)"/>
       <path id="DejaVuSans-20" transform="scale(0.015625)"/>
       <path d="M 403 4666 
L 1081 4666 
L 2241 2931 
L 3406 4666 
L 4084 4666 
L 2584 2425 
L 4184 0 
L 3506 0 
L 2194 1984 
L 872 0 
L 191 0 
L 1856 2491 
L 403 4666 
z
" id="DejaVuSans-58" transform="scale(0.015625)"/>
       <path d="M 2188 4044 
L 1331 1722 
L 3047 1722 
L 2188 4044 
z
M 1831 4666 
L 2547 4666 
L 4325 0 
L 3669 0 
L 3244 1197 
L 1141 1197 
L 716 0 
L 50 0 
L 1831 4666 
z
" id="DejaVuSans-41" transform="scale(0.015625)"/>
       <path d="M 3116 1747 
Q 3116 2381 2855 2742 
Q 2594 3103 2138 3103 
Q 1681 3103 1420 2742 
Q 1159 2381 1159 1747 
Q 1159 1113 1420 752 
Q 1681 391 2138 391 
Q 2594 391 2855 752 
Q 3116 1113 3116 1747 
z
M 1159 2969 
Q 1341 3281 1617 3432 
Q 1894 3584 2278 3584 
Q 2916 3584 3314 3078 
Q 3713 2572 3713 1747 
Q 3713 922 3314 415 
Q 2916 -91 2278 -91 
Q 1894 -91 1617 61 
Q 1341 213 1159 525 
L 1159 0 
L 581 0 
L 581 4863 
L 1159 4863 
L 1159 2969 
z
" id="DejaVuSans-62" transform="scale(0.015625)"/>
       <path d="M 544 1381 
L 544 3500 
L 1119 3500 
L 1119 1403 
Q 1119 906 1312 657 
Q 1506 409 1894 409 
Q 2359 409 2629 706 
Q 2900 1003 2900 1516 
L 2900 3500 
L 3475 3500 
L 3475 0 
L 2900 0 
L 2900 538 
Q 2691 219 2414 64 
Q 2138 -91 1772 -91 
Q 1169 -91 856 284 
Q 544 659 544 1381 
z
M 1991 3584 
L 1991 3584 
z
" id="DejaVuSans-75" transform="scale(0.015625)"/>
       <path d="M 3513 2113 
L 3513 0 
L 2938 0 
L 2938 2094 
Q 2938 2591 2744 2837 
Q 2550 3084 2163 3084 
Q 1697 3084 1428 2787 
Q 1159 2491 1159 1978 
L 1159 0 
L 581 0 
L 581 3500 
L 1159 3500 
L 1159 2956 
Q 1366 3272 1645 3428 
Q 1925 3584 2291 3584 
Q 2894 3584 3203 3211 
Q 3513 2838 3513 2113 
z
" id="DejaVuSans-6e" transform="scale(0.015625)"/>
       <path d="M 2906 2969 
L 2906 4863 
L 3481 4863 
L 3481 0 
L 2906 0 
L 2906 525 
Q 2725 213 2448 61 
Q 2172 -91 1784 -91 
Q 1150 -91 751 415 
Q 353 922 353 1747 
Q 353 2572 751 3078 
Q 1150 3584 1784 3584 
Q 2172 3584 2448 3432 
Q 2725 3281 2906 2969 
z
M 947 1747 
Q 947 1113 1208 752 
Q 1469 391 1925 391 
Q 2381 391 2643 752 
Q 2906 1113 2906 1747 
Q 2906 2381 2643 2742 
Q 2381 3103 1925 3103 
Q 1469 3103 1208 2742 
Q 947 2381 947 1747 
z
" id="DejaVuSans-64" transform="scale(0.015625)"/>
       <path d="M 2194 1759 
Q 1497 1759 1228 1600 
Q 959 1441 959 1056 
Q 959 750 1161 570 
Q 1363 391 1709 391 
Q 2188 391 2477 730 
Q 2766 1069 2766 1631 
L 2766 1759 
L 2194 1759 
z
M 3341 1997 
L 3341 0 
L 2766 0 
L 2766 531 
Q 2569 213 2275 61 
Q 1981 -91 1556 -91 
Q 1019 -91 701 211 
Q 384 513 384 1019 
Q 384 1609 779 1909 
Q 1175 2209 1959 2209 
L 2766 2209 
L 2766 2266 
Q 2766 2663 2505 2880 
Q 2244 3097 1772 3097 
Q 1472 3097 1187 3025 
Q 903 2953 641 2809 
L 641 3341 
Q 956 3463 1253 3523 
Q 1550 3584 1831 3584 
Q 2591 3584 2966 3190 
Q 3341 2797 3341 1997 
z
" id="DejaVuSans-61" transform="scale(0.015625)"/>
       <path d="M 3122 3366 
L 3122 2828 
Q 2878 2963 2633 3030 
Q 2388 3097 2138 3097 
Q 1578 3097 1268 2742 
Q 959 2388 959 1747 
Q 959 1106 1268 751 
Q 1578 397 2138 397 
Q 2388 397 2633 464 
Q 2878 531 3122 666 
L 3122 134 
Q 2881 22 2623 -34 
Q 2366 -91 2075 -91 
Q 1284 -91 818 406 
Q 353 903 353 1747 
Q 353 2603 823 3093 
Q 1294 3584 2113 3584 
Q 2378 3584 2631 3529 
Q 2884 3475 3122 3366 
z
" id="DejaVuSans-63" transform="scale(0.015625)"/>
      </defs>
      <use xlink:href="#DejaVuSans-45"/>
      <use x="63.183594" xlink:href="#DejaVuSans-70"/>
      <use x="126.660156" xlink:href="#DejaVuSans-69"/>
      <use x="154.443359" xlink:href="#DejaVuSans-74"/>
      <use x="193.652344" xlink:href="#DejaVuSans-6f"/>
      <use x="254.833984" xlink:href="#DejaVuSans-70"/>
      <use x="318.310547" xlink:href="#DejaVuSans-65"/>
      <use x="379.833984" xlink:href="#DejaVuSans-20"/>
      <use x="411.621094" xlink:href="#DejaVuSans-58"/>
      <use x="480.126953" xlink:href="#DejaVuSans-20"/>
      <use x="511.914062" xlink:href="#DejaVuSans-41"/>
      <use x="580.322266" xlink:href="#DejaVuSans-62"/>
      <use x="643.798828" xlink:href="#DejaVuSans-75"/>
      <use x="707.177734" xlink:href="#DejaVuSans-6e"/>
      <use x="770.556641" xlink:href="#DejaVuSans-64"/>
      <use x="834.033203" xlink:href="#DejaVuSans-61"/>
      <use x="895.3125" xlink:href="#DejaVuSans-6e"/>
      <use x="958.691406" xlink:href="#DejaVuSans-63"/>
      <use x="1013.671875" xlink:href="#DejaVuSans-65"/>
     </g>
    </g>
   </g>
   <g id="matplotlib.axis_2">
    <g id="ytick_1">
     <g id="line2d_4">
      <path clip-path="url(#p264d97f73f)" d="M 44.62525 397.097979 
L 531.59976 397.097979 
" style="fill:none;stroke:#cccccc;stroke-dasharray:1,1.65;stroke-dashoffset:0;"/>
     </g>
     <g id="text_5">
      <!-- 0 -->
      <g style="fill:#262626;" transform="translate(31.726125 400.023377)scale(0.077 -0.077)">
       <use xlink:href="#DejaVuSans-30"/>
      </g>
     </g>
    </g>
    <g id="ytick_2">
     <g id="line2d_5">
      <path clip-path="url(#p264d97f73f)" d="M 44.62525 332.978764 
L 531.59976 332.978764 
" style="fill:none;stroke:#cccccc;stroke-dasharray:1,1.65;stroke-dashoffset:0;"/>
     </g>
     <g id="text_6">
      <!-- 10000 -->
      <g style="fill:#262626;" transform="translate(12.129625 335.904162)scale(0.077 -0.077)">
       <use xlink:href="#DejaVuSans-31"/>
       <use x="63.623047" xlink:href="#DejaVuSans-30"/>
       <use x="127.246094" xlink:href="#DejaVuSans-30"/>
       <use x="190.869141" xlink:href="#DejaVuSans-30"/>
       <use x="254.492188" xlink:href="#DejaVuSans-30"/>
      </g>
     </g>
    </g>
    <g id="ytick_3">
     <g id="line2d_6">
      <path clip-path="url(#p264d97f73f)" d="M 44.62525 268.859548 
L 531.59976 268.859548 
" style="fill:none;stroke:#cccccc;stroke-dasharray:1,1.65;stroke-dashoffset:0;"/>
     </g>
     <g id="text_7">
      <!-- 20000 -->
      <g style="fill:#262626;" transform="translate(12.129625 271.784947)scale(0.077 -0.077)">
       <use xlink:href="#DejaVuSans-32"/>
       <use x="63.623047" xlink:href="#DejaVuSans-30"/>
       <use x="127.246094" xlink:href="#DejaVuSans-30"/>
       <use x="190.869141" xlink:href="#DejaVuSans-30"/>
       <use x="254.492188" xlink:href="#DejaVuSans-30"/>
      </g>
     </g>
    </g>
    <g id="ytick_4">
     <g id="line2d_7">
      <path clip-path="url(#p264d97f73f)" d="M 44.62525 204.740333 
L 531.59976 204.740333 
" style="fill:none;stroke:#cccccc;stroke-dasharray:1,1.65;stroke-dashoffset:0;"/>
     </g>
     <g id="text_8">
      <!-- 30000 -->
      <g style="fill:#262626;" transform="translate(12.129625 207.665732)scale(0.077 -0.077)">
       <use xlink:href="#DejaVuSans-33"/>
       <use x="63.623047" xlink:href="#DejaVuSans-30"/>
       <use x="127.246094" xlink:href="#DejaVuSans-30"/>
       <use x="190.869141" xlink:href="#DejaVuSans-30"/>
       <use x="254.492188" xlink:href="#DejaVuSans-30"/>
      </g>
     </g>
    </g>
    <g id="ytick_5">
     <g id="line2d_8">
      <path clip-path="url(#p264d97f73f)" d="M 44.62525 140.621118 
L 531.59976 140.621118 
" style="fill:none;stroke:#cccccc;stroke-dasharray:1,1.65;stroke-dashoffset:0;"/>
     </g>
     <g id="text_9">
      <!-- 40000 -->
      <g style="fill:#262626;" transform="translate(12.129625 143.546516)scale(0.077 -0.077)">
       <use xlink:href="#DejaVuSans-34"/>
       <use x="63.623047" xlink:href="#DejaVuSans-30"/>
       <use x="127.246094" xlink:href="#DejaVuSans-30"/>
       <use x="190.869141" xlink:href="#DejaVuSans-30"/>
       <use x="254.492188" xlink:href="#DejaVuSans-30"/>
      </g>
     </g>
    </g>
    <g id="ytick_6">
     <g id="line2d_9">
      <path clip-path="url(#p264d97f73f)" d="M 44.62525 76.501903 
L 531.59976 76.501903 
" style="fill:none;stroke:#cccccc;stroke-dasharray:1,1.65;stroke-dashoffset:0;"/>
     </g>
     <g id="text_10">
      <!-- 50000 -->
      <g style="fill:#262626;" transform="translate(12.129625 79.427301)scale(0.077 -0.077)">
       <defs>
        <path d="M 691 4666 
L 3169 4666 
L 3169 4134 
L 1269 4134 
L 1269 2991 
Q 1406 3038 1543 3061 
Q 1681 3084 1819 3084 
Q 2600 3084 3056 2656 
Q 3513 2228 3513 1497 
Q 3513 744 3044 326 
Q 2575 -91 1722 -91 
Q 1428 -91 1123 -41 
Q 819 9 494 109 
L 494 744 
Q 775 591 1075 516 
Q 1375 441 1709 441 
Q 2250 441 2565 725 
Q 2881 1009 2881 1497 
Q 2881 1984 2565 2268 
Q 2250 2553 1709 2553 
Q 1456 2553 1204 2497 
Q 953 2441 691 2322 
L 691 4666 
z
" id="DejaVuSans-35" transform="scale(0.015625)"/>
       </defs>
       <use xlink:href="#DejaVuSans-35"/>
       <use x="63.623047" xlink:href="#DejaVuSans-30"/>
       <use x="127.246094" xlink:href="#DejaVuSans-30"/>
       <use x="190.869141" xlink:href="#DejaVuSans-30"/>
       <use x="254.492188" xlink:href="#DejaVuSans-30"/>
      </g>
     </g>
    </g>
    <g id="ytick_7">
     <g id="line2d_10">
      <path clip-path="url(#p264d97f73f)" d="M 44.62525 12.382687 
L 531.59976 12.382687 
" style="fill:none;stroke:#cccccc;stroke-dasharray:1,1.65;stroke-dashoffset:0;"/>
     </g>
     <g id="text_11">
      <!-- 60000 -->
      <g style="fill:#262626;" transform="translate(12.129625 15.308086)scale(0.077 -0.077)">
       <defs>
        <path d="M 2113 2584 
Q 1688 2584 1439 2293 
Q 1191 2003 1191 1497 
Q 1191 994 1439 701 
Q 1688 409 2113 409 
Q 2538 409 2786 701 
Q 3034 994 3034 1497 
Q 3034 2003 2786 2293 
Q 2538 2584 2113 2584 
z
M 3366 4563 
L 3366 3988 
Q 3128 4100 2886 4159 
Q 2644 4219 2406 4219 
Q 1781 4219 1451 3797 
Q 1122 3375 1075 2522 
Q 1259 2794 1537 2939 
Q 1816 3084 2150 3084 
Q 2853 3084 3261 2657 
Q 3669 2231 3669 1497 
Q 3669 778 3244 343 
Q 2819 -91 2113 -91 
Q 1303 -91 875 529 
Q 447 1150 447 2328 
Q 447 3434 972 4092 
Q 1497 4750 2381 4750 
Q 2619 4750 2861 4703 
Q 3103 4656 3366 4563 
z
" id="DejaVuSans-36" transform="scale(0.015625)"/>
       </defs>
       <use xlink:href="#DejaVuSans-36"/>
       <use x="63.623047" xlink:href="#DejaVuSans-30"/>
       <use x="127.246094" xlink:href="#DejaVuSans-30"/>
       <use x="190.869141" xlink:href="#DejaVuSans-30"/>
       <use x="254.492188" xlink:href="#DejaVuSans-30"/>
      </g>
     </g>
    </g>
    <g id="text_12">
     <!-- pSTAT -->
     <g style="fill:#262626;" transform="translate(6.382688 217.425646)rotate(-90)scale(0.084 -0.084)">
      <defs>
       <path d="M 3425 4513 
L 3425 3897 
Q 3066 4069 2747 4153 
Q 2428 4238 2131 4238 
Q 1616 4238 1336 4038 
Q 1056 3838 1056 3469 
Q 1056 3159 1242 3001 
Q 1428 2844 1947 2747 
L 2328 2669 
Q 3034 2534 3370 2195 
Q 3706 1856 3706 1288 
Q 3706 609 3251 259 
Q 2797 -91 1919 -91 
Q 1588 -91 1214 -16 
Q 841 59 441 206 
L 441 856 
Q 825 641 1194 531 
Q 1563 422 1919 422 
Q 2459 422 2753 634 
Q 3047 847 3047 1241 
Q 3047 1584 2836 1778 
Q 2625 1972 2144 2069 
L 1759 2144 
Q 1053 2284 737 2584 
Q 422 2884 422 3419 
Q 422 4038 858 4394 
Q 1294 4750 2059 4750 
Q 2388 4750 2728 4690 
Q 3069 4631 3425 4513 
z
" id="DejaVuSans-53" transform="scale(0.015625)"/>
       <path d="M -19 4666 
L 3928 4666 
L 3928 4134 
L 2272 4134 
L 2272 0 
L 1638 0 
L 1638 4134 
L -19 4134 
L -19 4666 
z
" id="DejaVuSans-54" transform="scale(0.015625)"/>
      </defs>
      <use xlink:href="#DejaVuSans-70"/>
      <use x="63.476562" xlink:href="#DejaVuSans-53"/>
      <use x="126.953125" xlink:href="#DejaVuSans-54"/>
      <use x="180.287109" xlink:href="#DejaVuSans-41"/>
      <use x="240.945312" xlink:href="#DejaVuSans-54"/>
     </g>
    </g>
   </g>
   <g id="line2d_11">
    <path clip-path="url(#p264d97f73f)" d="M 66.760455 89.492196 
L 200.027668 89.476823 
L 253.824639 89.461469 
L 288.112505 89.446134 
L 313.3341 89.430817 
L 333.294882 89.415519 
L 349.815186 89.400239 
L 363.908467 89.384978 
L 376.197342 89.369736 
L 387.091852 89.354512 
L 396.876423 89.339306 
L 405.756453 89.324119 
L 413.885121 89.30895 
L 421.379718 89.293799 
L 428.332046 89.278667 
L 434.81531 89.263553 
L 440.888822 89.248457 
L 446.601313 89.23338 
L 451.993304 89.21832 
L 457.098856 89.203279 
L 461.946874 89.188256 
L 466.562095 89.173251 
L 470.965856 89.158264 
L 475.176689 89.143295 
L 479.21079 89.128344 
L 483.082399 89.11341 
L 486.804102 89.098495 
L 490.387075 89.083598 
L 493.84129 89.068718 
L 497.175681 89.053857 
L 500.398283 89.039013 
L 503.51635 89.024186 
L 506.536451 89.009378 
L 509.464555 88.994587 
" style="fill:none;stroke:#0173b2;stroke-linecap:round;stroke-width:1.5;"/>
   </g>
   <g id="line2d_12">
    <path clip-path="url(#p264d97f73f)" d="M 66.760455 89.185983 
L 200.027668 88.284013 
L 253.824639 87.428376 
L 288.112505 86.616829 
L 313.3341 85.847141 
L 333.294882 85.117119 
L 349.815186 84.424622 
L 363.908467 83.767575 
L 376.197342 83.143976 
L 387.091852 82.551908 
L 396.876423 81.98954 
L 405.756453 81.45513 
L 413.885121 80.947028 
L 421.379718 80.463673 
L 428.332046 80.003596 
L 434.81531 79.56541 
L 440.888822 79.147816 
L 446.601313 78.749593 
L 451.993304 78.369596 
L 457.098856 78.006755 
L 461.946874 77.660067 
L 466.562095 77.328594 
L 470.965856 77.01146 
L 475.176689 76.707845 
L 479.21079 76.416983 
L 483.082399 76.138159 
L 486.804102 75.870703 
L 490.387075 75.613989 
L 493.84129 75.367432 
L 497.175681 75.130486 
L 500.398283 74.902637 
L 503.51635 74.683406 
L 506.536451 74.472345 
L 509.464555 74.269031 
" style="fill:none;stroke:#de8f05;stroke-linecap:round;stroke-width:1.5;"/>
   </g>
   <g id="line2d_13">
    <path clip-path="url(#p264d97f73f)" d="M 66.760455 88.71365 
L 200.027668 86.440241 
L 253.824639 84.295421 
L 288.112505 82.293936 
L 313.3341 80.448134 
L 333.294882 78.766418 
L 349.815186 77.252061 
L 363.908467 75.902738 
L 376.197342 74.710941 
L 387.091852 73.665129 
L 396.876423 72.751246 
L 405.756453 71.954212 
L 413.885121 71.259116 
L 421.379718 70.652021 
L 428.332046 70.120389 
L 434.81531 69.653244 
L 440.888822 69.241147 
L 446.601313 68.876076 
L 451.993304 68.551257 
L 457.098856 68.260995 
L 461.946874 68.000503 
L 466.562095 67.76576 
L 470.965856 67.553376 
L 475.176689 67.360491 
L 479.21079 67.18468 
L 483.082399 67.023884 
L 486.804102 66.876343 
L 490.387075 66.740549 
L 493.84129 66.615205 
L 497.175681 66.499193 
L 500.398283 66.39154 
L 503.51635 66.291401 
L 506.536451 66.198037 
L 509.464555 66.110802 
" style="fill:none;stroke:#029e73;stroke-linecap:round;stroke-width:1.5;"/>
   </g>
   <g id="patch_3">
    <path d="M 44.62525 397.097979 
L 44.62525 12.382687 
" style="fill:none;stroke:#cccccc;stroke-linecap:square;stroke-linejoin:miter;stroke-width:0.6;"/>
   </g>
   <g id="patch_4">
    <path d="M 531.59976 397.097979 
L 531.59976 12.382687 
" style="fill:none;stroke:#cccccc;stroke-linecap:square;stroke-linejoin:miter;stroke-width:0.6;"/>
   </g>
   <g id="patch_5">
    <path d="M 44.62525 397.097979 
L 531.59976 397.097979 
" style="fill:none;stroke:#cccccc;stroke-linecap:square;stroke-linejoin:miter;stroke-width:0.6;"/>
   </g>
   <g id="patch_6">
    <path d="M 44.62525 12.382687 
L 531.59976 12.382687 
" style="fill:none;stroke:#cccccc;stroke-linecap:square;stroke-linejoin:miter;stroke-width:0.6;"/>
   </g>
   <g id="text_13">
    <!-- Treg -->
    <g style="fill:#262626;" transform="translate(279.283974 6.382687)scale(0.084 -0.084)">
     <defs>
      <path d="M 2631 2963 
Q 2534 3019 2420 3045 
Q 2306 3072 2169 3072 
Q 1681 3072 1420 2755 
Q 1159 2438 1159 1844 
L 1159 0 
L 581 0 
L 581 3500 
L 1159 3500 
L 1159 2956 
Q 1341 3275 1631 3429 
Q 1922 3584 2338 3584 
Q 2397 3584 2469 3576 
Q 2541 3569 2628 3553 
L 2631 2963 
z
" id="DejaVuSans-72" transform="scale(0.015625)"/>
      <path d="M 2906 1791 
Q 2906 2416 2648 2759 
Q 2391 3103 1925 3103 
Q 1463 3103 1205 2759 
Q 947 2416 947 1791 
Q 947 1169 1205 825 
Q 1463 481 1925 481 
Q 2391 481 2648 825 
Q 2906 1169 2906 1791 
z
M 3481 434 
Q 3481 -459 3084 -895 
Q 2688 -1331 1869 -1331 
Q 1566 -1331 1297 -1286 
Q 1028 -1241 775 -1147 
L 775 -588 
Q 1028 -725 1275 -790 
Q 1522 -856 1778 -856 
Q 2344 -856 2625 -561 
Q 2906 -266 2906 331 
L 2906 616 
Q 2728 306 2450 153 
Q 2172 0 1784 0 
Q 1141 0 747 490 
Q 353 981 353 1791 
Q 353 2603 747 3093 
Q 1141 3584 1784 3584 
Q 2172 3584 2450 3431 
Q 2728 3278 2906 2969 
L 2906 3500 
L 3481 3500 
L 3481 434 
z
" id="DejaVuSans-67" transform="scale(0.015625)"/>
     </defs>
     <use xlink:href="#DejaVuSans-54"/>
     <use x="46.333984" xlink:href="#DejaVuSans-72"/>
     <use x="85.197266" xlink:href="#DejaVuSans-65"/>
     <use x="146.720703" xlink:href="#DejaVuSans-67"/>
    </g>
   </g>
   <g id="legend_1">
    <g id="patch_7">
     <path d="M 498.501791 47.059156 
L 526.20976 47.059156 
Q 527.74976 47.059156 527.74976 45.519156 
L 527.74976 17.772687 
Q 527.74976 16.232687 526.20976 16.232687 
L 498.501791 16.232687 
Q 496.961791 16.232687 496.961791 17.772687 
L 496.961791 45.519156 
Q 496.961791 47.059156 498.501791 47.059156 
z
" style="fill:#ffffff;opacity:0.5;stroke:#cccccc;stroke-linejoin:miter;"/>
    </g>
    <g id="line2d_14">
     <path d="M 499.656791 22.083484 
L 503.506791 22.083484 
" style="fill:none;stroke:#0173b2;stroke-linecap:round;stroke-width:1.5;"/>
    </g>
    <g id="line2d_15"/>
    <g id="text_14">
     <!-- Low -->
     <g style="fill:#262626;" transform="translate(507.356791 24.778484)scale(0.077 -0.077)">
      <defs>
       <path d="M 628 4666 
L 1259 4666 
L 1259 531 
L 3531 531 
L 3531 0 
L 628 0 
L 628 4666 
z
" id="DejaVuSans-4c" transform="scale(0.015625)"/>
       <path d="M 269 3500 
L 844 3500 
L 1563 769 
L 2278 3500 
L 2956 3500 
L 3675 769 
L 4391 3500 
L 4966 3500 
L 4050 0 
L 3372 0 
L 2619 2869 
L 1863 0 
L 1184 0 
L 269 3500 
z
" id="DejaVuSans-77" transform="scale(0.015625)"/>
      </defs>
      <use xlink:href="#DejaVuSans-4c"/>
      <use x="53.962891" xlink:href="#DejaVuSans-6f"/>
      <use x="115.144531" xlink:href="#DejaVuSans-77"/>
     </g>
    </g>
    <g id="line2d_16">
     <path d="M 499.656791 31.075641 
L 503.506791 31.075641 
" style="fill:none;stroke:#de8f05;stroke-linecap:round;stroke-width:1.5;"/>
    </g>
    <g id="line2d_17"/>
    <g id="text_15">
     <!-- Med -->
     <g style="fill:#262626;" transform="translate(507.356791 33.770641)scale(0.077 -0.077)">
      <defs>
       <path d="M 628 4666 
L 1569 4666 
L 2759 1491 
L 3956 4666 
L 4897 4666 
L 4897 0 
L 4281 0 
L 4281 4097 
L 3078 897 
L 2444 897 
L 1241 4097 
L 1241 0 
L 628 0 
L 628 4666 
z
" id="DejaVuSans-4d" transform="scale(0.015625)"/>
      </defs>
      <use xlink:href="#DejaVuSans-4d"/>
      <use x="86.279297" xlink:href="#DejaVuSans-65"/>
      <use x="147.802734" xlink:href="#DejaVuSans-64"/>
     </g>
    </g>
    <g id="line2d_18">
     <path d="M 499.656791 40.067797 
L 503.506791 40.067797 
" style="fill:none;stroke:#029e73;stroke-linecap:round;stroke-width:1.5;"/>
    </g>
    <g id="line2d_19"/>
    <g id="text_16">
     <!-- High -->
     <g style="fill:#262626;" transform="translate(507.356791 42.762797)scale(0.077 -0.077)">
      <defs>
       <path d="M 628 4666 
L 1259 4666 
L 1259 2753 
L 3553 2753 
L 3553 4666 
L 4184 4666 
L 4184 0 
L 3553 0 
L 3553 2222 
L 1259 2222 
L 1259 0 
L 628 0 
L 628 4666 
z
" id="DejaVuSans-48" transform="scale(0.015625)"/>
       <path d="M 3513 2113 
L 3513 0 
L 2938 0 
L 2938 2094 
Q 2938 2591 2744 2837 
Q 2550 3084 2163 3084 
Q 1697 3084 1428 2787 
Q 1159 2491 1159 1978 
L 1159 0 
L 581 0 
L 581 4863 
L 1159 4863 
L 1159 2956 
Q 1366 3272 1645 3428 
Q 1925 3584 2291 3584 
Q 2894 3584 3203 3211 
Q 3513 2838 3513 2113 
z
" id="DejaVuSans-68" transform="scale(0.015625)"/>
      </defs>
      <use xlink:href="#DejaVuSans-48"/>
      <use x="75.195312" xlink:href="#DejaVuSans-69"/>
      <use x="102.978516" xlink:href="#DejaVuSans-67"/>
      <use x="166.455078" xlink:href="#DejaVuSans-68"/>
     </g>
    </g>
   </g>
  </g>
  <g id="axes_2">
   <g id="patch_8">
    <path d="M 587.02501 397.097979 
L 1073.99952 397.097979 
L 1073.99952 12.382687 
L 587.02501 12.382687 
z
" style="fill:#ffffff;"/>
   </g>
   <g id="matplotlib.axis_3">
    <g id="xtick_22">
     <g id="line2d_20">
      <path clip-path="url(#pbed2c6f20f)" d="M 609.160215 397.097979 
L 609.160215 12.382687 
" style="fill:none;stroke:#cccccc;stroke-dasharray:1,1.65;stroke-dashoffset:0;"/>
     </g>
     <g id="text_17">
      <!-- $\mathdefault{10^{2}}$ -->
      <g style="fill:#262626;" transform="translate(602.384215 410.948776)scale(0.077 -0.077)">
       <use transform="translate(0 0.765625)" xlink:href="#DejaVuSans-31"/>
       <use transform="translate(63.623047 0.765625)" xlink:href="#DejaVuSans-30"/>
       <use transform="translate(128.203125 39.046875)scale(0.7)" xlink:href="#DejaVuSans-32"/>
      </g>
     </g>
    </g>
    <g id="xtick_23">
     <g id="line2d_21">
      <path clip-path="url(#pbed2c6f20f)" d="M 830.512265 397.097979 
L 830.512265 12.382687 
" style="fill:none;stroke:#cccccc;stroke-dasharray:1,1.65;stroke-dashoffset:0;"/>
     </g>
     <g id="text_18">
      <!-- $\mathdefault{10^{3}}$ -->
      <g style="fill:#262626;" transform="translate(823.736265 410.948776)scale(0.077 -0.077)">
       <use transform="translate(0 0.765625)" xlink:href="#DejaVuSans-31"/>
       <use transform="translate(63.623047 0.765625)" xlink:href="#DejaVuSans-30"/>
       <use transform="translate(128.203125 39.046875)scale(0.7)" xlink:href="#DejaVuSans-33"/>
      </g>
     </g>
    </g>
    <g id="xtick_24">
     <g id="line2d_22">
      <path clip-path="url(#pbed2c6f20f)" d="M 1051.864315 397.097979 
L 1051.864315 12.382687 
" style="fill:none;stroke:#cccccc;stroke-dasharray:1,1.65;stroke-dashoffset:0;"/>
     </g>
     <g id="text_19">
      <!-- $\mathdefault{10^{4}}$ -->
      <g style="fill:#262626;" transform="translate(1045.088315 410.948776)scale(0.077 -0.077)">
       <use transform="translate(0 0.684375)" xlink:href="#DejaVuSans-31"/>
       <use transform="translate(63.623047 0.684375)" xlink:href="#DejaVuSans-30"/>
       <use transform="translate(128.203125 38.965625)scale(0.7)" xlink:href="#DejaVuSans-34"/>
      </g>
     </g>
    </g>
    <g id="xtick_25"/>
    <g id="xtick_26"/>
    <g id="xtick_27"/>
    <g id="xtick_28"/>
    <g id="xtick_29"/>
    <g id="xtick_30"/>
    <g id="xtick_31"/>
    <g id="xtick_32"/>
    <g id="xtick_33"/>
    <g id="xtick_34"/>
    <g id="xtick_35"/>
    <g id="xtick_36"/>
    <g id="xtick_37"/>
    <g id="xtick_38"/>
    <g id="xtick_39"/>
    <g id="xtick_40"/>
    <g id="xtick_41"/>
    <g id="xtick_42"/>
    <g id="text_20">
     <!-- Epitope X Abundance -->
     <g style="fill:#262626;" transform="translate(785.353077 422.932823)scale(0.084 -0.084)">
      <use xlink:href="#DejaVuSans-45"/>
      <use x="63.183594" xlink:href="#DejaVuSans-70"/>
      <use x="126.660156" xlink:href="#DejaVuSans-69"/>
      <use x="154.443359" xlink:href="#DejaVuSans-74"/>
      <use x="193.652344" xlink:href="#DejaVuSans-6f"/>
      <use x="254.833984" xlink:href="#DejaVuSans-70"/>
      <use x="318.310547" xlink:href="#DejaVuSans-65"/>
      <use x="379.833984" xlink:href="#DejaVuSans-20"/>
      <use x="411.621094" xlink:href="#DejaVuSans-58"/>
      <use x="480.126953" xlink:href="#DejaVuSans-20"/>
      <use x="511.914062" xlink:href="#DejaVuSans-41"/>
      <use x="580.322266" xlink:href="#DejaVuSans-62"/>
      <use x="643.798828" xlink:href="#DejaVuSans-75"/>
      <use x="707.177734" xlink:href="#DejaVuSans-6e"/>
      <use x="770.556641" xlink:href="#DejaVuSans-64"/>
      <use x="834.033203" xlink:href="#DejaVuSans-61"/>
      <use x="895.3125" xlink:href="#DejaVuSans-6e"/>
      <use x="958.691406" xlink:href="#DejaVuSans-63"/>
      <use x="1013.671875" xlink:href="#DejaVuSans-65"/>
     </g>
    </g>
   </g>
   <g id="matplotlib.axis_4">
    <g id="ytick_8">
     <g id="line2d_23">
      <path clip-path="url(#pbed2c6f20f)" d="M 587.02501 397.097979 
L 1073.99952 397.097979 
" style="fill:none;stroke:#cccccc;stroke-dasharray:1,1.65;stroke-dashoffset:0;"/>
     </g>
     <g id="text_21">
      <!-- 0 -->
      <g style="fill:#262626;" transform="translate(574.125885 400.023377)scale(0.077 -0.077)">
       <use xlink:href="#DejaVuSans-30"/>
      </g>
     </g>
    </g>
    <g id="ytick_9">
     <g id="line2d_24">
      <path clip-path="url(#pbed2c6f20f)" d="M 587.02501 349.008567 
L 1073.99952 349.008567 
" style="fill:none;stroke:#cccccc;stroke-dasharray:1,1.65;stroke-dashoffset:0;"/>
     </g>
     <g id="text_22">
      <!-- 5000 -->
      <g style="fill:#262626;" transform="translate(559.42851 351.933966)scale(0.077 -0.077)">
       <use xlink:href="#DejaVuSans-35"/>
       <use x="63.623047" xlink:href="#DejaVuSans-30"/>
       <use x="127.246094" xlink:href="#DejaVuSans-30"/>
       <use x="190.869141" xlink:href="#DejaVuSans-30"/>
      </g>
     </g>
    </g>
    <g id="ytick_10">
     <g id="line2d_25">
      <path clip-path="url(#pbed2c6f20f)" d="M 587.02501 300.919156 
L 1073.99952 300.919156 
" style="fill:none;stroke:#cccccc;stroke-dasharray:1,1.65;stroke-dashoffset:0;"/>
     </g>
     <g id="text_23">
      <!-- 10000 -->
      <g style="fill:#262626;" transform="translate(554.529385 303.844554)scale(0.077 -0.077)">
       <use xlink:href="#DejaVuSans-31"/>
       <use x="63.623047" xlink:href="#DejaVuSans-30"/>
       <use x="127.246094" xlink:href="#DejaVuSans-30"/>
       <use x="190.869141" xlink:href="#DejaVuSans-30"/>
       <use x="254.492188" xlink:href="#DejaVuSans-30"/>
      </g>
     </g>
    </g>
    <g id="ytick_11">
     <g id="line2d_26">
      <path clip-path="url(#pbed2c6f20f)" d="M 587.02501 252.829745 
L 1073.99952 252.829745 
" style="fill:none;stroke:#cccccc;stroke-dasharray:1,1.65;stroke-dashoffset:0;"/>
     </g>
     <g id="text_24">
      <!-- 15000 -->
      <g style="fill:#262626;" transform="translate(554.529385 255.755143)scale(0.077 -0.077)">
       <use xlink:href="#DejaVuSans-31"/>
       <use x="63.623047" xlink:href="#DejaVuSans-35"/>
       <use x="127.246094" xlink:href="#DejaVuSans-30"/>
       <use x="190.869141" xlink:href="#DejaVuSans-30"/>
       <use x="254.492188" xlink:href="#DejaVuSans-30"/>
      </g>
     </g>
    </g>
    <g id="ytick_12">
     <g id="line2d_27">
      <path clip-path="url(#pbed2c6f20f)" d="M 587.02501 204.740333 
L 1073.99952 204.740333 
" style="fill:none;stroke:#cccccc;stroke-dasharray:1,1.65;stroke-dashoffset:0;"/>
     </g>
     <g id="text_25">
      <!-- 20000 -->
      <g style="fill:#262626;" transform="translate(554.529385 207.665732)scale(0.077 -0.077)">
       <use xlink:href="#DejaVuSans-32"/>
       <use x="63.623047" xlink:href="#DejaVuSans-30"/>
       <use x="127.246094" xlink:href="#DejaVuSans-30"/>
       <use x="190.869141" xlink:href="#DejaVuSans-30"/>
       <use x="254.492188" xlink:href="#DejaVuSans-30"/>
      </g>
     </g>
    </g>
    <g id="ytick_13">
     <g id="line2d_28">
      <path clip-path="url(#pbed2c6f20f)" d="M 587.02501 156.650922 
L 1073.99952 156.650922 
" style="fill:none;stroke:#cccccc;stroke-dasharray:1,1.65;stroke-dashoffset:0;"/>
     </g>
     <g id="text_26">
      <!-- 25000 -->
      <g style="fill:#262626;" transform="translate(554.529385 159.57632)scale(0.077 -0.077)">
       <use xlink:href="#DejaVuSans-32"/>
       <use x="63.623047" xlink:href="#DejaVuSans-35"/>
       <use x="127.246094" xlink:href="#DejaVuSans-30"/>
       <use x="190.869141" xlink:href="#DejaVuSans-30"/>
       <use x="254.492188" xlink:href="#DejaVuSans-30"/>
      </g>
     </g>
    </g>
    <g id="ytick_14">
     <g id="line2d_29">
      <path clip-path="url(#pbed2c6f20f)" d="M 587.02501 108.56151 
L 1073.99952 108.56151 
" style="fill:none;stroke:#cccccc;stroke-dasharray:1,1.65;stroke-dashoffset:0;"/>
     </g>
     <g id="text_27">
      <!-- 30000 -->
      <g style="fill:#262626;" transform="translate(554.529385 111.486909)scale(0.077 -0.077)">
       <use xlink:href="#DejaVuSans-33"/>
       <use x="63.623047" xlink:href="#DejaVuSans-30"/>
       <use x="127.246094" xlink:href="#DejaVuSans-30"/>
       <use x="190.869141" xlink:href="#DejaVuSans-30"/>
       <use x="254.492188" xlink:href="#DejaVuSans-30"/>
      </g>
     </g>
    </g>
    <g id="ytick_15">
     <g id="line2d_30">
      <path clip-path="url(#pbed2c6f20f)" d="M 587.02501 60.472099 
L 1073.99952 60.472099 
" style="fill:none;stroke:#cccccc;stroke-dasharray:1,1.65;stroke-dashoffset:0;"/>
     </g>
     <g id="text_28">
      <!-- 35000 -->
      <g style="fill:#262626;" transform="translate(554.529385 63.397497)scale(0.077 -0.077)">
       <use xlink:href="#DejaVuSans-33"/>
       <use x="63.623047" xlink:href="#DejaVuSans-35"/>
       <use x="127.246094" xlink:href="#DejaVuSans-30"/>
       <use x="190.869141" xlink:href="#DejaVuSans-30"/>
       <use x="254.492188" xlink:href="#DejaVuSans-30"/>
      </g>
     </g>
    </g>
    <g id="ytick_16">
     <g id="line2d_31">
      <path clip-path="url(#pbed2c6f20f)" d="M 587.02501 12.382687 
L 1073.99952 12.382687 
" style="fill:none;stroke:#cccccc;stroke-dasharray:1,1.65;stroke-dashoffset:0;"/>
     </g>
     <g id="text_29">
      <!-- 40000 -->
      <g style="fill:#262626;" transform="translate(554.529385 15.308086)scale(0.077 -0.077)">
       <use xlink:href="#DejaVuSans-34"/>
       <use x="63.623047" xlink:href="#DejaVuSans-30"/>
       <use x="127.246094" xlink:href="#DejaVuSans-30"/>
       <use x="190.869141" xlink:href="#DejaVuSans-30"/>
       <use x="254.492188" xlink:href="#DejaVuSans-30"/>
      </g>
     </g>
    </g>
    <g id="text_30">
     <!-- pSTAT -->
     <g style="fill:#262626;" transform="translate(548.782447 217.425646)rotate(-90)scale(0.084 -0.084)">
      <use xlink:href="#DejaVuSans-70"/>
      <use x="63.476562" xlink:href="#DejaVuSans-53"/>
      <use x="126.953125" xlink:href="#DejaVuSans-54"/>
      <use x="180.287109" xlink:href="#DejaVuSans-41"/>
      <use x="240.945312" xlink:href="#DejaVuSans-54"/>
     </g>
    </g>
   </g>
   <g id="line2d_32">
    <path clip-path="url(#pbed2c6f20f)" d="M 609.160215 199.183638 
L 742.427428 199.169294 
L 796.224399 199.154967 
L 830.512265 199.140657 
L 855.73386 199.126364 
L 875.694642 199.112088 
L 892.214946 199.097828 
L 906.308227 199.083585 
L 918.597102 199.069359 
L 929.491612 199.05515 
L 939.276183 199.040957 
L 948.156213 199.026781 
L 956.284881 199.012622 
L 963.779478 198.998479 
L 970.731806 198.984352 
L 977.21507 198.970243 
L 983.288582 198.956149 
L 989.001073 198.942073 
L 994.393064 198.928012 
L 999.498616 198.913968 
L 1004.346634 198.899941 
L 1008.961855 198.885929 
L 1013.365616 198.871934 
L 1017.576449 198.857956 
L 1021.61055 198.843993 
L 1025.482159 198.830047 
L 1029.203862 198.816117 
L 1032.786835 198.802204 
L 1036.24105 198.788306 
L 1039.575441 198.774424 
L 1042.798043 198.760559 
L 1045.91611 198.74671 
L 1048.936211 198.732877 
L 1051.864315 198.719059 
" style="fill:none;stroke:#0173b2;stroke-linecap:round;stroke-width:1.5;"/>
   </g>
   <g id="line2d_33">
    <path clip-path="url(#pbed2c6f20f)" d="M 609.160215 198.895799 
L 742.427428 198.046525 
L 796.224399 197.238783 
L 830.512265 196.470787 
L 855.73386 195.740738 
L 875.694642 195.046839 
L 892.214946 194.387311 
L 906.308227 193.760411 
L 918.597102 193.164436 
L 929.491612 192.597739 
L 939.276183 192.058732 
L 948.156213 191.545888 
L 956.284881 191.057749 
L 963.779478 190.592928 
L 970.731806 190.150104 
L 977.21507 189.728026 
L 983.288582 189.325514 
L 989.001073 188.941451 
L 994.393064 188.574787 
L 999.498616 188.224531 
L 1004.346634 187.889753 
L 1008.961855 187.569581 
L 1013.365616 187.263194 
L 1017.576449 186.969823 
L 1021.61055 186.688747 
L 1025.482159 186.419288 
L 1029.203862 186.160813 
L 1032.786835 185.912728 
L 1036.24105 185.674475 
L 1039.575441 185.445532 
L 1042.798043 185.225409 
L 1045.91611 185.013646 
L 1048.936211 184.809813 
L 1051.864315 184.613505 
" style="fill:none;stroke:#de8f05;stroke-linecap:round;stroke-width:1.5;"/>
   </g>
   <g id="line2d_34">
    <path clip-path="url(#pbed2c6f20f)" d="M 609.160215 198.442789 
L 742.427428 196.261358 
L 796.224399 194.175185 
L 830.512265 192.200866 
L 855.73386 190.355379 
L 875.694642 188.654418 
L 892.214946 187.110286 
L 906.308227 185.729831 
L 918.597102 184.513165 
L 929.491612 183.453655 
L 939.276183 182.539219 
L 948.156213 181.75438 
L 956.284881 181.082363 
L 963.779478 180.506755 
L 970.731806 180.012534 
L 977.21507 179.586544 
L 983.288582 179.217598 
L 989.001073 178.896348 
L 994.393064 178.61507 
L 999.498616 178.367414 
L 1004.346634 178.148166 
L 1008.961855 177.953043 
L 1013.365616 177.778515 
L 1017.576449 177.621665 
L 1021.61055 177.480069 
L 1025.482159 177.351704 
L 1029.203862 177.234873 
L 1032.786835 177.128147 
L 1036.24105 177.030312 
L 1039.575441 176.940337 
L 1042.798043 176.857338 
L 1045.91611 176.780555 
L 1048.936211 176.709332 
L 1051.864315 176.643101 
" style="fill:none;stroke:#029e73;stroke-linecap:round;stroke-width:1.5;"/>
   </g>
   <g id="patch_9">
    <path d="M 587.02501 397.097979 
L 587.02501 12.382687 
" style="fill:none;stroke:#cccccc;stroke-linecap:square;stroke-linejoin:miter;stroke-width:0.6;"/>
   </g>
   <g id="patch_10">
    <path d="M 1073.99952 397.097979 
L 1073.99952 12.382687 
" style="fill:none;stroke:#cccccc;stroke-linecap:square;stroke-linejoin:miter;stroke-width:0.6;"/>
   </g>
   <g id="patch_11">
    <path d="M 587.02501 397.097979 
L 1073.99952 397.097979 
" style="fill:none;stroke:#cccccc;stroke-linecap:square;stroke-linejoin:miter;stroke-width:0.6;"/>
   </g>
   <g id="patch_12">
    <path d="M 587.02501 12.382687 
L 1073.99952 12.382687 
" style="fill:none;stroke:#cccccc;stroke-linecap:square;stroke-linejoin:miter;stroke-width:0.6;"/>
   </g>
   <g id="text_31">
    <!-- Thelper -->
    <g style="fill:#262626;" transform="translate(814.556859 6.382687)scale(0.084 -0.084)">
     <defs>
      <path d="M 603 4863 
L 1178 4863 
L 1178 0 
L 603 0 
L 603 4863 
z
" id="DejaVuSans-6c" transform="scale(0.015625)"/>
     </defs>
     <use xlink:href="#DejaVuSans-54"/>
     <use x="61.083984" xlink:href="#DejaVuSans-68"/>
     <use x="124.462891" xlink:href="#DejaVuSans-65"/>
     <use x="185.986328" xlink:href="#DejaVuSans-6c"/>
     <use x="213.769531" xlink:href="#DejaVuSans-70"/>
     <use x="277.246094" xlink:href="#DejaVuSans-65"/>
     <use x="338.769531" xlink:href="#DejaVuSans-72"/>
    </g>
   </g>
   <g id="legend_2">
    <g id="patch_13">
     <path d="M 1040.901551 47.059156 
L 1068.60952 47.059156 
Q 1070.14952 47.059156 1070.14952 45.519156 
L 1070.14952 17.772687 
Q 1070.14952 16.232687 1068.60952 16.232687 
L 1040.901551 16.232687 
Q 1039.361551 16.232687 1039.361551 17.772687 
L 1039.361551 45.519156 
Q 1039.361551 47.059156 1040.901551 47.059156 
z
" style="fill:#ffffff;opacity:0.5;stroke:#cccccc;stroke-linejoin:miter;"/>
    </g>
    <g id="line2d_35">
     <path d="M 1042.056551 22.083484 
L 1045.906551 22.083484 
" style="fill:none;stroke:#0173b2;stroke-linecap:round;stroke-width:1.5;"/>
    </g>
    <g id="line2d_36"/>
    <g id="text_32">
     <!-- Low -->
     <g style="fill:#262626;" transform="translate(1049.756551 24.778484)scale(0.077 -0.077)">
      <use xlink:href="#DejaVuSans-4c"/>
      <use x="53.962891" xlink:href="#DejaVuSans-6f"/>
      <use x="115.144531" xlink:href="#DejaVuSans-77"/>
     </g>
    </g>
    <g id="line2d_37">
     <path d="M 1042.056551 31.075641 
L 1045.906551 31.075641 
" style="fill:none;stroke:#de8f05;stroke-linecap:round;stroke-width:1.5;"/>
    </g>
    <g id="line2d_38"/>
    <g id="text_33">
     <!-- Med -->
     <g style="fill:#262626;" transform="translate(1049.756551 33.770641)scale(0.077 -0.077)">
      <use xlink:href="#DejaVuSans-4d"/>
      <use x="86.279297" xlink:href="#DejaVuSans-65"/>
      <use x="147.802734" xlink:href="#DejaVuSans-64"/>
     </g>
    </g>
    <g id="line2d_39">
     <path d="M 1042.056551 40.067797 
L 1045.906551 40.067797 
" style="fill:none;stroke:#029e73;stroke-linecap:round;stroke-width:1.5;"/>
    </g>
    <g id="line2d_40"/>
    <g id="text_34">
     <!-- High -->
     <g style="fill:#262626;" transform="translate(1049.756551 42.762797)scale(0.077 -0.077)">
      <use xlink:href="#DejaVuSans-48"/>
      <use x="75.195312" xlink:href="#DejaVuSans-69"/>
      <use x="102.978516" xlink:href="#DejaVuSans-67"/>
      <use x="166.455078" xlink:href="#DejaVuSans-68"/>
     </g>
    </g>
   </g>
  </g>
  <g id="axes_3">
   <g id="patch_14">
    <path d="M 44.62525 830.417739 
L 531.59976 830.417739 
L 531.59976 445.702448 
L 44.62525 445.702448 
z
" style="fill:#ffffff;"/>
   </g>
   <g id="matplotlib.axis_5">
    <g id="xtick_43">
     <g id="line2d_41">
      <path clip-path="url(#p67f303ee48)" d="M 66.760455 830.417739 
L 66.760455 445.702448 
" style="fill:none;stroke:#cccccc;stroke-dasharray:1,1.65;stroke-dashoffset:0;"/>
     </g>
     <g id="text_35">
      <!-- $\mathdefault{10^{2}}$ -->
      <g style="fill:#262626;" transform="translate(59.984455 844.268536)scale(0.077 -0.077)">
       <use transform="translate(0 0.765625)" xlink:href="#DejaVuSans-31"/>
       <use transform="translate(63.623047 0.765625)" xlink:href="#DejaVuSans-30"/>
       <use transform="translate(128.203125 39.046875)scale(0.7)" xlink:href="#DejaVuSans-32"/>
      </g>
     </g>
    </g>
    <g id="xtick_44">
     <g id="line2d_42">
      <path clip-path="url(#p67f303ee48)" d="M 288.112505 830.417739 
L 288.112505 445.702448 
" style="fill:none;stroke:#cccccc;stroke-dasharray:1,1.65;stroke-dashoffset:0;"/>
     </g>
     <g id="text_36">
      <!-- $\mathdefault{10^{3}}$ -->
      <g style="fill:#262626;" transform="translate(281.336505 844.268536)scale(0.077 -0.077)">
       <use transform="translate(0 0.765625)" xlink:href="#DejaVuSans-31"/>
       <use transform="translate(63.623047 0.765625)" xlink:href="#DejaVuSans-30"/>
       <use transform="translate(128.203125 39.046875)scale(0.7)" xlink:href="#DejaVuSans-33"/>
      </g>
     </g>
    </g>
    <g id="xtick_45">
     <g id="line2d_43">
      <path clip-path="url(#p67f303ee48)" d="M 509.464555 830.417739 
L 509.464555 445.702448 
" style="fill:none;stroke:#cccccc;stroke-dasharray:1,1.65;stroke-dashoffset:0;"/>
     </g>
     <g id="text_37">
      <!-- $\mathdefault{10^{4}}$ -->
      <g style="fill:#262626;" transform="translate(502.688555 844.268536)scale(0.077 -0.077)">
       <use transform="translate(0 0.684375)" xlink:href="#DejaVuSans-31"/>
       <use transform="translate(63.623047 0.684375)" xlink:href="#DejaVuSans-30"/>
       <use transform="translate(128.203125 38.965625)scale(0.7)" xlink:href="#DejaVuSans-34"/>
      </g>
     </g>
    </g>
    <g id="xtick_46"/>
    <g id="xtick_47"/>
    <g id="xtick_48"/>
    <g id="xtick_49"/>
    <g id="xtick_50"/>
    <g id="xtick_51"/>
    <g id="xtick_52"/>
    <g id="xtick_53"/>
    <g id="xtick_54"/>
    <g id="xtick_55"/>
    <g id="xtick_56"/>
    <g id="xtick_57"/>
    <g id="xtick_58"/>
    <g id="xtick_59"/>
    <g id="xtick_60"/>
    <g id="xtick_61"/>
    <g id="xtick_62"/>
    <g id="xtick_63"/>
    <g id="text_38">
     <!-- Epitope X Abundance -->
     <g style="fill:#262626;" transform="translate(242.953317 856.252583)scale(0.084 -0.084)">
      <use xlink:href="#DejaVuSans-45"/>
      <use x="63.183594" xlink:href="#DejaVuSans-70"/>
      <use x="126.660156" xlink:href="#DejaVuSans-69"/>
      <use x="154.443359" xlink:href="#DejaVuSans-74"/>
      <use x="193.652344" xlink:href="#DejaVuSans-6f"/>
      <use x="254.833984" xlink:href="#DejaVuSans-70"/>
      <use x="318.310547" xlink:href="#DejaVuSans-65"/>
      <use x="379.833984" xlink:href="#DejaVuSans-20"/>
      <use x="411.621094" xlink:href="#DejaVuSans-58"/>
      <use x="480.126953" xlink:href="#DejaVuSans-20"/>
      <use x="511.914062" xlink:href="#DejaVuSans-41"/>
      <use x="580.322266" xlink:href="#DejaVuSans-62"/>
      <use x="643.798828" xlink:href="#DejaVuSans-75"/>
      <use x="707.177734" xlink:href="#DejaVuSans-6e"/>
      <use x="770.556641" xlink:href="#DejaVuSans-64"/>
      <use x="834.033203" xlink:href="#DejaVuSans-61"/>
      <use x="895.3125" xlink:href="#DejaVuSans-6e"/>
      <use x="958.691406" xlink:href="#DejaVuSans-63"/>
      <use x="1013.671875" xlink:href="#DejaVuSans-65"/>
     </g>
    </g>
   </g>
   <g id="matplotlib.axis_6">
    <g id="ytick_17">
     <g id="line2d_44">
      <path clip-path="url(#p67f303ee48)" d="M 44.62525 830.417739 
L 531.59976 830.417739 
" style="fill:none;stroke:#cccccc;stroke-dasharray:1,1.65;stroke-dashoffset:0;"/>
     </g>
     <g id="text_39">
      <!-- 0 -->
      <g style="fill:#262626;" transform="translate(31.726125 833.343137)scale(0.077 -0.077)">
       <use xlink:href="#DejaVuSans-30"/>
      </g>
     </g>
    </g>
    <g id="ytick_18">
     <g id="line2d_45">
      <path clip-path="url(#p67f303ee48)" d="M 44.62525 782.328327 
L 531.59976 782.328327 
" style="fill:none;stroke:#cccccc;stroke-dasharray:1,1.65;stroke-dashoffset:0;"/>
     </g>
     <g id="text_40">
      <!-- 1000 -->
      <g style="fill:#262626;" transform="translate(17.02875 785.253726)scale(0.077 -0.077)">
       <use xlink:href="#DejaVuSans-31"/>
       <use x="63.623047" xlink:href="#DejaVuSans-30"/>
       <use x="127.246094" xlink:href="#DejaVuSans-30"/>
       <use x="190.869141" xlink:href="#DejaVuSans-30"/>
      </g>
     </g>
    </g>
    <g id="ytick_19">
     <g id="line2d_46">
      <path clip-path="url(#p67f303ee48)" d="M 44.62525 734.238916 
L 531.59976 734.238916 
" style="fill:none;stroke:#cccccc;stroke-dasharray:1,1.65;stroke-dashoffset:0;"/>
     </g>
     <g id="text_41">
      <!-- 2000 -->
      <g style="fill:#262626;" transform="translate(17.02875 737.164314)scale(0.077 -0.077)">
       <use xlink:href="#DejaVuSans-32"/>
       <use x="63.623047" xlink:href="#DejaVuSans-30"/>
       <use x="127.246094" xlink:href="#DejaVuSans-30"/>
       <use x="190.869141" xlink:href="#DejaVuSans-30"/>
      </g>
     </g>
    </g>
    <g id="ytick_20">
     <g id="line2d_47">
      <path clip-path="url(#p67f303ee48)" d="M 44.62525 686.149505 
L 531.59976 686.149505 
" style="fill:none;stroke:#cccccc;stroke-dasharray:1,1.65;stroke-dashoffset:0;"/>
     </g>
     <g id="text_42">
      <!-- 3000 -->
      <g style="fill:#262626;" transform="translate(17.02875 689.074903)scale(0.077 -0.077)">
       <use xlink:href="#DejaVuSans-33"/>
       <use x="63.623047" xlink:href="#DejaVuSans-30"/>
       <use x="127.246094" xlink:href="#DejaVuSans-30"/>
       <use x="190.869141" xlink:href="#DejaVuSans-30"/>
      </g>
     </g>
    </g>
    <g id="ytick_21">
     <g id="line2d_48">
      <path clip-path="url(#p67f303ee48)" d="M 44.62525 638.060093 
L 531.59976 638.060093 
" style="fill:none;stroke:#cccccc;stroke-dasharray:1,1.65;stroke-dashoffset:0;"/>
     </g>
     <g id="text_43">
      <!-- 4000 -->
      <g style="fill:#262626;" transform="translate(17.02875 640.985492)scale(0.077 -0.077)">
       <use xlink:href="#DejaVuSans-34"/>
       <use x="63.623047" xlink:href="#DejaVuSans-30"/>
       <use x="127.246094" xlink:href="#DejaVuSans-30"/>
       <use x="190.869141" xlink:href="#DejaVuSans-30"/>
      </g>
     </g>
    </g>
    <g id="ytick_22">
     <g id="line2d_49">
      <path clip-path="url(#p67f303ee48)" d="M 44.62525 589.970682 
L 531.59976 589.970682 
" style="fill:none;stroke:#cccccc;stroke-dasharray:1,1.65;stroke-dashoffset:0;"/>
     </g>
     <g id="text_44">
      <!-- 5000 -->
      <g style="fill:#262626;" transform="translate(17.02875 592.89608)scale(0.077 -0.077)">
       <use xlink:href="#DejaVuSans-35"/>
       <use x="63.623047" xlink:href="#DejaVuSans-30"/>
       <use x="127.246094" xlink:href="#DejaVuSans-30"/>
       <use x="190.869141" xlink:href="#DejaVuSans-30"/>
      </g>
     </g>
    </g>
    <g id="ytick_23">
     <g id="line2d_50">
      <path clip-path="url(#p67f303ee48)" d="M 44.62525 541.88127 
L 531.59976 541.88127 
" style="fill:none;stroke:#cccccc;stroke-dasharray:1,1.65;stroke-dashoffset:0;"/>
     </g>
     <g id="text_45">
      <!-- 6000 -->
      <g style="fill:#262626;" transform="translate(17.02875 544.806669)scale(0.077 -0.077)">
       <use xlink:href="#DejaVuSans-36"/>
       <use x="63.623047" xlink:href="#DejaVuSans-30"/>
       <use x="127.246094" xlink:href="#DejaVuSans-30"/>
       <use x="190.869141" xlink:href="#DejaVuSans-30"/>
      </g>
     </g>
    </g>
    <g id="ytick_24">
     <g id="line2d_51">
      <path clip-path="url(#p67f303ee48)" d="M 44.62525 493.791859 
L 531.59976 493.791859 
" style="fill:none;stroke:#cccccc;stroke-dasharray:1,1.65;stroke-dashoffset:0;"/>
     </g>
     <g id="text_46">
      <!-- 7000 -->
      <g style="fill:#262626;" transform="translate(17.02875 496.717257)scale(0.077 -0.077)">
       <defs>
        <path d="M 525 4666 
L 3525 4666 
L 3525 4397 
L 1831 0 
L 1172 0 
L 2766 4134 
L 525 4134 
L 525 4666 
z
" id="DejaVuSans-37" transform="scale(0.015625)"/>
       </defs>
       <use xlink:href="#DejaVuSans-37"/>
       <use x="63.623047" xlink:href="#DejaVuSans-30"/>
       <use x="127.246094" xlink:href="#DejaVuSans-30"/>
       <use x="190.869141" xlink:href="#DejaVuSans-30"/>
      </g>
     </g>
    </g>
    <g id="ytick_25">
     <g id="line2d_52">
      <path clip-path="url(#p67f303ee48)" d="M 44.62525 445.702448 
L 531.59976 445.702448 
" style="fill:none;stroke:#cccccc;stroke-dasharray:1,1.65;stroke-dashoffset:0;"/>
     </g>
     <g id="text_47">
      <!-- 8000 -->
      <g style="fill:#262626;" transform="translate(17.02875 448.627846)scale(0.077 -0.077)">
       <defs>
        <path d="M 2034 2216 
Q 1584 2216 1326 1975 
Q 1069 1734 1069 1313 
Q 1069 891 1326 650 
Q 1584 409 2034 409 
Q 2484 409 2743 651 
Q 3003 894 3003 1313 
Q 3003 1734 2745 1975 
Q 2488 2216 2034 2216 
z
M 1403 2484 
Q 997 2584 770 2862 
Q 544 3141 544 3541 
Q 544 4100 942 4425 
Q 1341 4750 2034 4750 
Q 2731 4750 3128 4425 
Q 3525 4100 3525 3541 
Q 3525 3141 3298 2862 
Q 3072 2584 2669 2484 
Q 3125 2378 3379 2068 
Q 3634 1759 3634 1313 
Q 3634 634 3220 271 
Q 2806 -91 2034 -91 
Q 1263 -91 848 271 
Q 434 634 434 1313 
Q 434 1759 690 2068 
Q 947 2378 1403 2484 
z
M 1172 3481 
Q 1172 3119 1398 2916 
Q 1625 2713 2034 2713 
Q 2441 2713 2670 2916 
Q 2900 3119 2900 3481 
Q 2900 3844 2670 4047 
Q 2441 4250 2034 4250 
Q 1625 4250 1398 4047 
Q 1172 3844 1172 3481 
z
" id="DejaVuSans-38" transform="scale(0.015625)"/>
       </defs>
       <use xlink:href="#DejaVuSans-38"/>
       <use x="63.623047" xlink:href="#DejaVuSans-30"/>
       <use x="127.246094" xlink:href="#DejaVuSans-30"/>
       <use x="190.869141" xlink:href="#DejaVuSans-30"/>
      </g>
     </g>
    </g>
    <g id="text_48">
     <!-- pSTAT -->
     <g style="fill:#262626;" transform="translate(11.281813 650.745406)rotate(-90)scale(0.084 -0.084)">
      <use xlink:href="#DejaVuSans-70"/>
      <use x="63.476562" xlink:href="#DejaVuSans-53"/>
      <use x="126.953125" xlink:href="#DejaVuSans-54"/>
      <use x="180.287109" xlink:href="#DejaVuSans-41"/>
      <use x="240.945312" xlink:href="#DejaVuSans-54"/>
     </g>
    </g>
   </g>
   <g id="line2d_53">
    <path clip-path="url(#p67f303ee48)" d="M 66.760455 630.298974 
L 200.027668 630.283808 
L 253.824639 630.268659 
L 288.112505 630.253528 
L 313.3341 630.238415 
L 333.294882 630.223319 
L 349.815186 630.20824 
L 363.908467 630.193179 
L 376.197342 630.178135 
L 387.091852 630.163108 
L 396.876423 630.148099 
L 405.756453 630.133107 
L 413.885121 630.118132 
L 421.379718 630.103174 
L 428.332046 630.088234 
L 434.81531 630.07331 
L 440.888822 630.058404 
L 446.601313 630.043515 
L 451.993304 630.028642 
L 457.098856 630.013787 
L 461.946874 629.998949 
L 466.562095 629.984128 
L 470.965856 629.969324 
L 475.176689 629.954536 
L 479.21079 629.939766 
L 483.082399 629.925012 
L 486.804102 629.910275 
L 490.387075 629.895555 
L 493.84129 629.880852 
L 497.175681 629.866165 
L 500.398283 629.851495 
L 503.51635 629.836842 
L 506.536451 629.822206 
L 509.464555 629.807586 
" style="fill:none;stroke:#0173b2;stroke-linecap:round;stroke-width:1.5;"/>
   </g>
   <g id="line2d_54">
    <path clip-path="url(#p67f303ee48)" d="M 66.760455 630.090627 
L 200.027668 629.460199 
L 253.824639 628.844507 
L 288.112505 628.243592 
L 313.3341 627.657468 
L 333.294882 627.086121 
L 349.815186 626.529509 
L 363.908467 625.987563 
L 376.197342 625.460189 
L 387.091852 624.947265 
L 396.876423 624.448645 
L 405.756453 623.964163 
L 413.885121 623.493626 
L 421.379718 623.036825 
L 428.332046 622.59353 
L 434.81531 622.163495 
L 440.888822 621.74646 
L 446.601313 621.342151 
L 451.993304 620.950283 
L 457.098856 620.570562 
L 461.946874 620.202685 
L 466.562095 619.846346 
L 470.965856 619.501231 
L 475.176689 619.167026 
L 479.21079 618.843414 
L 483.082399 618.53008 
L 486.804102 618.226709 
L 490.387075 617.932987 
L 493.84129 617.648604 
L 497.175681 617.373256 
L 500.398283 617.106642 
L 503.51635 616.848467 
L 506.536451 616.598442 
L 509.464555 616.356283 
" style="fill:none;stroke:#de8f05;stroke-linecap:round;stroke-width:1.5;"/>
   </g>
   <g id="line2d_55">
    <path clip-path="url(#p67f303ee48)" d="M 66.760455 629.939261 
L 200.027668 628.850084 
L 253.824639 627.769316 
L 288.112505 626.697968 
L 313.3341 625.637184 
L 333.294882 624.588267 
L 349.815186 623.552695 
L 363.908467 622.532142 
L 376.197342 621.528496 
L 387.091852 620.543872 
L 396.876423 619.580625 
L 405.756453 618.641344 
L 413.885121 617.728833 
L 421.379718 616.846077 
L 428.332046 615.996166 
L 434.81531 615.1822 
L 440.888822 614.407154 
L 446.601313 613.673718 
L 451.993304 612.984122 
L 457.098856 612.339976 
L 461.946874 611.742134 
L 466.562095 611.190625 
L 470.965856 610.684648 
L 475.176689 610.222644 
L 479.21079 609.802423 
L 483.082399 609.42133 
L 486.804102 609.076413 
L 490.387075 608.764588 
L 493.84129 608.482774 
L 497.175681 608.22799 
L 500.398283 607.997433 
L 503.51635 607.78851 
L 506.536451 607.598866 
L 509.464555 607.426379 
" style="fill:none;stroke:#029e73;stroke-linecap:round;stroke-width:1.5;"/>
   </g>
   <g id="patch_15">
    <path d="M 44.62525 830.417739 
L 44.62525 445.702448 
" style="fill:none;stroke:#cccccc;stroke-linecap:square;stroke-linejoin:miter;stroke-width:0.6;"/>
   </g>
   <g id="patch_16">
    <path d="M 531.59976 830.417739 
L 531.59976 445.702448 
" style="fill:none;stroke:#cccccc;stroke-linecap:square;stroke-linejoin:miter;stroke-width:0.6;"/>
   </g>
   <g id="patch_17">
    <path d="M 44.62525 830.417739 
L 531.59976 830.417739 
" style="fill:none;stroke:#cccccc;stroke-linecap:square;stroke-linejoin:miter;stroke-width:0.6;"/>
   </g>
   <g id="patch_18">
    <path d="M 44.62525 445.702448 
L 531.59976 445.702448 
" style="fill:none;stroke:#cccccc;stroke-linecap:square;stroke-linejoin:miter;stroke-width:0.6;"/>
   </g>
   <g id="text_49">
    <!-- NK -->
    <g style="fill:#262626;" transform="translate(282.216099 439.702448)scale(0.084 -0.084)">
     <defs>
      <path d="M 628 4666 
L 1478 4666 
L 3547 763 
L 3547 4666 
L 4159 4666 
L 4159 0 
L 3309 0 
L 1241 3903 
L 1241 0 
L 628 0 
L 628 4666 
z
" id="DejaVuSans-4e" transform="scale(0.015625)"/>
      <path d="M 628 4666 
L 1259 4666 
L 1259 2694 
L 3353 4666 
L 4166 4666 
L 1850 2491 
L 4331 0 
L 3500 0 
L 1259 2247 
L 1259 0 
L 628 0 
L 628 4666 
z
" id="DejaVuSans-4b" transform="scale(0.015625)"/>
     </defs>
     <use xlink:href="#DejaVuSans-4e"/>
     <use x="74.804688" xlink:href="#DejaVuSans-4b"/>
    </g>
   </g>
   <g id="legend_3">
    <g id="patch_19">
     <path d="M 498.501791 480.378916 
L 526.20976 480.378916 
Q 527.74976 480.378916 527.74976 478.838916 
L 527.74976 451.092448 
Q 527.74976 449.552448 526.20976 449.552448 
L 498.501791 449.552448 
Q 496.961791 449.552448 496.961791 451.092448 
L 496.961791 478.838916 
Q 496.961791 480.378916 498.501791 480.378916 
z
" style="fill:#ffffff;opacity:0.5;stroke:#cccccc;stroke-linejoin:miter;"/>
    </g>
    <g id="line2d_56">
     <path d="M 499.656791 455.403244 
L 503.506791 455.403244 
" style="fill:none;stroke:#0173b2;stroke-linecap:round;stroke-width:1.5;"/>
    </g>
    <g id="line2d_57"/>
    <g id="text_50">
     <!-- Low -->
     <g style="fill:#262626;" transform="translate(507.356791 458.098244)scale(0.077 -0.077)">
      <use xlink:href="#DejaVuSans-4c"/>
      <use x="53.962891" xlink:href="#DejaVuSans-6f"/>
      <use x="115.144531" xlink:href="#DejaVuSans-77"/>
     </g>
    </g>
    <g id="line2d_58">
     <path d="M 499.656791 464.395401 
L 503.506791 464.395401 
" style="fill:none;stroke:#de8f05;stroke-linecap:round;stroke-width:1.5;"/>
    </g>
    <g id="line2d_59"/>
    <g id="text_51">
     <!-- Med -->
     <g style="fill:#262626;" transform="translate(507.356791 467.090401)scale(0.077 -0.077)">
      <use xlink:href="#DejaVuSans-4d"/>
      <use x="86.279297" xlink:href="#DejaVuSans-65"/>
      <use x="147.802734" xlink:href="#DejaVuSans-64"/>
     </g>
    </g>
    <g id="line2d_60">
     <path d="M 499.656791 473.387557 
L 503.506791 473.387557 
" style="fill:none;stroke:#029e73;stroke-linecap:round;stroke-width:1.5;"/>
    </g>
    <g id="line2d_61"/>
    <g id="text_52">
     <!-- High -->
     <g style="fill:#262626;" transform="translate(507.356791 476.082557)scale(0.077 -0.077)">
      <use xlink:href="#DejaVuSans-48"/>
      <use x="75.195312" xlink:href="#DejaVuSans-69"/>
      <use x="102.978516" xlink:href="#DejaVuSans-67"/>
      <use x="166.455078" xlink:href="#DejaVuSans-68"/>
     </g>
    </g>
   </g>
  </g>
  <g id="axes_4">
   <g id="patch_20">
    <path d="M 587.02501 830.417739 
L 1073.99952 830.417739 
L 1073.99952 445.702448 
L 587.02501 445.702448 
z
" style="fill:#ffffff;"/>
   </g>
   <g id="matplotlib.axis_7">
    <g id="xtick_64">
     <g id="line2d_62">
      <path clip-path="url(#p66a0ceaf6a)" d="M 609.160215 830.417739 
L 609.160215 445.702448 
" style="fill:none;stroke:#cccccc;stroke-dasharray:1,1.65;stroke-dashoffset:0;"/>
     </g>
     <g id="text_53">
      <!-- $\mathdefault{10^{2}}$ -->
      <g style="fill:#262626;" transform="translate(602.384215 844.268536)scale(0.077 -0.077)">
       <use transform="translate(0 0.765625)" xlink:href="#DejaVuSans-31"/>
       <use transform="translate(63.623047 0.765625)" xlink:href="#DejaVuSans-30"/>
       <use transform="translate(128.203125 39.046875)scale(0.7)" xlink:href="#DejaVuSans-32"/>
      </g>
     </g>
    </g>
    <g id="xtick_65">
     <g id="line2d_63">
      <path clip-path="url(#p66a0ceaf6a)" d="M 830.512265 830.417739 
L 830.512265 445.702448 
" style="fill:none;stroke:#cccccc;stroke-dasharray:1,1.65;stroke-dashoffset:0;"/>
     </g>
     <g id="text_54">
      <!-- $\mathdefault{10^{3}}$ -->
      <g style="fill:#262626;" transform="translate(823.736265 844.268536)scale(0.077 -0.077)">
       <use transform="translate(0 0.765625)" xlink:href="#DejaVuSans-31"/>
       <use transform="translate(63.623047 0.765625)" xlink:href="#DejaVuSans-30"/>
       <use transform="translate(128.203125 39.046875)scale(0.7)" xlink:href="#DejaVuSans-33"/>
      </g>
     </g>
    </g>
    <g id="xtick_66">
     <g id="line2d_64">
      <path clip-path="url(#p66a0ceaf6a)" d="M 1051.864315 830.417739 
L 1051.864315 445.702448 
" style="fill:none;stroke:#cccccc;stroke-dasharray:1,1.65;stroke-dashoffset:0;"/>
     </g>
     <g id="text_55">
      <!-- $\mathdefault{10^{4}}$ -->
      <g style="fill:#262626;" transform="translate(1045.088315 844.268536)scale(0.077 -0.077)">
       <use transform="translate(0 0.684375)" xlink:href="#DejaVuSans-31"/>
       <use transform="translate(63.623047 0.684375)" xlink:href="#DejaVuSans-30"/>
       <use transform="translate(128.203125 38.965625)scale(0.7)" xlink:href="#DejaVuSans-34"/>
      </g>
     </g>
    </g>
    <g id="xtick_67"/>
    <g id="xtick_68"/>
    <g id="xtick_69"/>
    <g id="xtick_70"/>
    <g id="xtick_71"/>
    <g id="xtick_72"/>
    <g id="xtick_73"/>
    <g id="xtick_74"/>
    <g id="xtick_75"/>
    <g id="xtick_76"/>
    <g id="xtick_77"/>
    <g id="xtick_78"/>
    <g id="xtick_79"/>
    <g id="xtick_80"/>
    <g id="xtick_81"/>
    <g id="xtick_82"/>
    <g id="xtick_83"/>
    <g id="xtick_84"/>
    <g id="text_56">
     <!-- Epitope X Abundance -->
     <g style="fill:#262626;" transform="translate(785.353077 856.252583)scale(0.084 -0.084)">
      <use xlink:href="#DejaVuSans-45"/>
      <use x="63.183594" xlink:href="#DejaVuSans-70"/>
      <use x="126.660156" xlink:href="#DejaVuSans-69"/>
      <use x="154.443359" xlink:href="#DejaVuSans-74"/>
      <use x="193.652344" xlink:href="#DejaVuSans-6f"/>
      <use x="254.833984" xlink:href="#DejaVuSans-70"/>
      <use x="318.310547" xlink:href="#DejaVuSans-65"/>
      <use x="379.833984" xlink:href="#DejaVuSans-20"/>
      <use x="411.621094" xlink:href="#DejaVuSans-58"/>
      <use x="480.126953" xlink:href="#DejaVuSans-20"/>
      <use x="511.914062" xlink:href="#DejaVuSans-41"/>
      <use x="580.322266" xlink:href="#DejaVuSans-62"/>
      <use x="643.798828" xlink:href="#DejaVuSans-75"/>
      <use x="707.177734" xlink:href="#DejaVuSans-6e"/>
      <use x="770.556641" xlink:href="#DejaVuSans-64"/>
      <use x="834.033203" xlink:href="#DejaVuSans-61"/>
      <use x="895.3125" xlink:href="#DejaVuSans-6e"/>
      <use x="958.691406" xlink:href="#DejaVuSans-63"/>
      <use x="1013.671875" xlink:href="#DejaVuSans-65"/>
     </g>
    </g>
   </g>
   <g id="matplotlib.axis_8">
    <g id="ytick_26">
     <g id="line2d_65">
      <path clip-path="url(#p66a0ceaf6a)" d="M 587.02501 830.417739 
L 1073.99952 830.417739 
" style="fill:none;stroke:#cccccc;stroke-dasharray:1,1.65;stroke-dashoffset:0;"/>
     </g>
     <g id="text_57">
      <!-- 0 -->
      <g style="fill:#262626;" transform="translate(574.125885 833.343137)scale(0.077 -0.077)">
       <use xlink:href="#DejaVuSans-30"/>
      </g>
     </g>
    </g>
    <g id="ytick_27">
     <g id="line2d_66">
      <path clip-path="url(#p66a0ceaf6a)" d="M 587.02501 766.298524 
L 1073.99952 766.298524 
" style="fill:none;stroke:#cccccc;stroke-dasharray:1,1.65;stroke-dashoffset:0;"/>
     </g>
     <g id="text_58">
      <!-- 5000 -->
      <g style="fill:#262626;" transform="translate(559.42851 769.223922)scale(0.077 -0.077)">
       <use xlink:href="#DejaVuSans-35"/>
       <use x="63.623047" xlink:href="#DejaVuSans-30"/>
       <use x="127.246094" xlink:href="#DejaVuSans-30"/>
       <use x="190.869141" xlink:href="#DejaVuSans-30"/>
      </g>
     </g>
    </g>
    <g id="ytick_28">
     <g id="line2d_67">
      <path clip-path="url(#p66a0ceaf6a)" d="M 587.02501 702.179308 
L 1073.99952 702.179308 
" style="fill:none;stroke:#cccccc;stroke-dasharray:1,1.65;stroke-dashoffset:0;"/>
     </g>
     <g id="text_59">
      <!-- 10000 -->
      <g style="fill:#262626;" transform="translate(554.529385 705.104707)scale(0.077 -0.077)">
       <use xlink:href="#DejaVuSans-31"/>
       <use x="63.623047" xlink:href="#DejaVuSans-30"/>
       <use x="127.246094" xlink:href="#DejaVuSans-30"/>
       <use x="190.869141" xlink:href="#DejaVuSans-30"/>
       <use x="254.492188" xlink:href="#DejaVuSans-30"/>
      </g>
     </g>
    </g>
    <g id="ytick_29">
     <g id="line2d_68">
      <path clip-path="url(#p66a0ceaf6a)" d="M 587.02501 638.060093 
L 1073.99952 638.060093 
" style="fill:none;stroke:#cccccc;stroke-dasharray:1,1.65;stroke-dashoffset:0;"/>
     </g>
     <g id="text_60">
      <!-- 15000 -->
      <g style="fill:#262626;" transform="translate(554.529385 640.985492)scale(0.077 -0.077)">
       <use xlink:href="#DejaVuSans-31"/>
       <use x="63.623047" xlink:href="#DejaVuSans-35"/>
       <use x="127.246094" xlink:href="#DejaVuSans-30"/>
       <use x="190.869141" xlink:href="#DejaVuSans-30"/>
       <use x="254.492188" xlink:href="#DejaVuSans-30"/>
      </g>
     </g>
    </g>
    <g id="ytick_30">
     <g id="line2d_69">
      <path clip-path="url(#p66a0ceaf6a)" d="M 587.02501 573.940878 
L 1073.99952 573.940878 
" style="fill:none;stroke:#cccccc;stroke-dasharray:1,1.65;stroke-dashoffset:0;"/>
     </g>
     <g id="text_61">
      <!-- 20000 -->
      <g style="fill:#262626;" transform="translate(554.529385 576.866276)scale(0.077 -0.077)">
       <use xlink:href="#DejaVuSans-32"/>
       <use x="63.623047" xlink:href="#DejaVuSans-30"/>
       <use x="127.246094" xlink:href="#DejaVuSans-30"/>
       <use x="190.869141" xlink:href="#DejaVuSans-30"/>
       <use x="254.492188" xlink:href="#DejaVuSans-30"/>
      </g>
     </g>
    </g>
    <g id="ytick_31">
     <g id="line2d_70">
      <path clip-path="url(#p66a0ceaf6a)" d="M 587.02501 509.821663 
L 1073.99952 509.821663 
" style="fill:none;stroke:#cccccc;stroke-dasharray:1,1.65;stroke-dashoffset:0;"/>
     </g>
     <g id="text_62">
      <!-- 25000 -->
      <g style="fill:#262626;" transform="translate(554.529385 512.747061)scale(0.077 -0.077)">
       <use xlink:href="#DejaVuSans-32"/>
       <use x="63.623047" xlink:href="#DejaVuSans-35"/>
       <use x="127.246094" xlink:href="#DejaVuSans-30"/>
       <use x="190.869141" xlink:href="#DejaVuSans-30"/>
       <use x="254.492188" xlink:href="#DejaVuSans-30"/>
      </g>
     </g>
    </g>
    <g id="ytick_32">
     <g id="line2d_71">
      <path clip-path="url(#p66a0ceaf6a)" d="M 587.02501 445.702448 
L 1073.99952 445.702448 
" style="fill:none;stroke:#cccccc;stroke-dasharray:1,1.65;stroke-dashoffset:0;"/>
     </g>
     <g id="text_63">
      <!-- 30000 -->
      <g style="fill:#262626;" transform="translate(554.529385 448.627846)scale(0.077 -0.077)">
       <use xlink:href="#DejaVuSans-33"/>
       <use x="63.623047" xlink:href="#DejaVuSans-30"/>
       <use x="127.246094" xlink:href="#DejaVuSans-30"/>
       <use x="190.869141" xlink:href="#DejaVuSans-30"/>
       <use x="254.492188" xlink:href="#DejaVuSans-30"/>
      </g>
     </g>
    </g>
    <g id="text_64">
     <!-- pSTAT -->
     <g style="fill:#262626;" transform="translate(548.782447 650.745406)rotate(-90)scale(0.084 -0.084)">
      <use xlink:href="#DejaVuSans-70"/>
      <use x="63.476562" xlink:href="#DejaVuSans-53"/>
      <use x="126.953125" xlink:href="#DejaVuSans-54"/>
      <use x="180.287109" xlink:href="#DejaVuSans-41"/>
      <use x="240.945312" xlink:href="#DejaVuSans-54"/>
     </g>
    </g>
   </g>
   <g id="line2d_72">
    <path clip-path="url(#p66a0ceaf6a)" d="M 609.160215 748.932081 
L 742.427428 748.926106 
L 796.224399 748.920139 
L 830.512265 748.914178 
L 855.73386 748.908225 
L 875.694642 748.902278 
L 892.214946 748.896339 
L 906.308227 748.890406 
L 918.597102 748.88448 
L 929.491612 748.878562 
L 939.276183 748.87265 
L 948.156213 748.866745 
L 956.284881 748.860847 
L 963.779478 748.854956 
L 970.731806 748.849071 
L 977.21507 748.843194 
L 983.288582 748.837323 
L 989.001073 748.831459 
L 994.393064 748.825602 
L 999.498616 748.819752 
L 1004.346634 748.813909 
L 1008.961855 748.808072 
L 1013.365616 748.802243 
L 1017.576449 748.796419 
L 1021.61055 748.790603 
L 1025.482159 748.784794 
L 1029.203862 748.778991 
L 1032.786835 748.773194 
L 1036.24105 748.767405 
L 1039.575441 748.761622 
L 1042.798043 748.755846 
L 1045.91611 748.750077 
L 1048.936211 748.744314 
L 1051.864315 748.738558 
" style="fill:none;stroke:#0173b2;stroke-linecap:round;stroke-width:1.5;"/>
   </g>
   <g id="line2d_73">
    <path clip-path="url(#p66a0ceaf6a)" d="M 609.160215 748.822701 
L 742.427428 748.497654 
L 796.224399 748.185943 
L 830.512265 747.887197 
L 855.73386 747.60102 
L 875.694642 747.327 
L 892.214946 747.064713 
L 906.308227 746.813724 
L 918.597102 746.573594 
L 929.491612 746.343882 
L 939.276183 746.12415 
L 948.156213 745.913966 
L 956.284881 745.712903 
L 963.779478 745.520545 
L 970.731806 745.336486 
L 977.21507 745.160333 
L 983.288582 744.991707 
L 989.001073 744.830241 
L 994.393064 744.675584 
L 999.498616 744.527401 
L 1004.346634 744.38537 
L 1008.961855 744.249183 
L 1013.365616 744.118549 
L 1017.576449 743.993189 
L 1021.61055 743.872841 
L 1025.482159 743.757253 
L 1029.203862 743.646188 
L 1032.786835 743.539422 
L 1036.24105 743.436741 
L 1039.575441 743.337945 
L 1042.798043 743.242842 
L 1045.91611 743.151253 
L 1048.936211 743.063007 
L 1051.864315 742.977944 
" style="fill:none;stroke:#de8f05;stroke-linecap:round;stroke-width:1.5;"/>
   </g>
   <g id="line2d_74">
    <path clip-path="url(#p66a0ceaf6a)" d="M 609.160215 748.68434 
L 742.427428 747.94673 
L 796.224399 747.228855 
L 830.512265 746.534098 
L 855.73386 745.866247 
L 875.694642 745.2294 
L 892.214946 744.627769 
L 906.308227 744.06538 
L 918.597102 743.545687 
L 929.491612 743.071146 
L 939.276183 742.642874 
L 948.156213 742.260476 
L 956.284881 741.922116 
L 963.779478 741.624787 
L 970.731806 741.364716 
L 977.21507 741.137777 
L 983.288582 740.939832 
L 989.001073 740.766971 
L 994.393064 740.615656 
L 999.498616 740.482768 
L 1004.346634 740.365618 
L 1008.961855 740.261914 
L 1013.365616 740.169716 
L 1017.576449 740.087392 
L 1021.61055 740.01357 
L 1025.482159 739.947098 
L 1029.203862 739.887003 
L 1032.786835 739.832466 
L 1036.24105 739.782791 
L 1039.575441 739.73739 
L 1042.798043 739.695758 
L 1045.91611 739.657465 
L 1048.936211 739.62214 
L 1051.864315 739.589462 
" style="fill:none;stroke:#029e73;stroke-linecap:round;stroke-width:1.5;"/>
   </g>
   <g id="patch_21">
    <path d="M 587.02501 830.417739 
L 587.02501 445.702448 
" style="fill:none;stroke:#cccccc;stroke-linecap:square;stroke-linejoin:miter;stroke-width:0.6;"/>
   </g>
   <g id="patch_22">
    <path d="M 1073.99952 830.417739 
L 1073.99952 445.702448 
" style="fill:none;stroke:#cccccc;stroke-linecap:square;stroke-linejoin:miter;stroke-width:0.6;"/>
   </g>
   <g id="patch_23">
    <path d="M 587.02501 830.417739 
L 1073.99952 830.417739 
" style="fill:none;stroke:#cccccc;stroke-linecap:square;stroke-linejoin:miter;stroke-width:0.6;"/>
   </g>
   <g id="patch_24">
    <path d="M 587.02501 445.702448 
L 1073.99952 445.702448 
" style="fill:none;stroke:#cccccc;stroke-linecap:square;stroke-linejoin:miter;stroke-width:0.6;"/>
   </g>
   <g id="text_65">
    <!-- CD8 -->
    <g style="fill:#262626;" transform="translate(821.673234 439.702448)scale(0.084 -0.084)">
     <defs>
      <path d="M 4122 4306 
L 4122 3641 
Q 3803 3938 3442 4084 
Q 3081 4231 2675 4231 
Q 1875 4231 1450 3742 
Q 1025 3253 1025 2328 
Q 1025 1406 1450 917 
Q 1875 428 2675 428 
Q 3081 428 3442 575 
Q 3803 722 4122 1019 
L 4122 359 
Q 3791 134 3420 21 
Q 3050 -91 2638 -91 
Q 1578 -91 968 557 
Q 359 1206 359 2328 
Q 359 3453 968 4101 
Q 1578 4750 2638 4750 
Q 3056 4750 3426 4639 
Q 3797 4528 4122 4306 
z
" id="DejaVuSans-43" transform="scale(0.015625)"/>
      <path d="M 1259 4147 
L 1259 519 
L 2022 519 
Q 2988 519 3436 956 
Q 3884 1394 3884 2338 
Q 3884 3275 3436 3711 
Q 2988 4147 2022 4147 
L 1259 4147 
z
M 628 4666 
L 1925 4666 
Q 3281 4666 3915 4102 
Q 4550 3538 4550 2338 
Q 4550 1131 3912 565 
Q 3275 0 1925 0 
L 628 0 
L 628 4666 
z
" id="DejaVuSans-44" transform="scale(0.015625)"/>
     </defs>
     <use xlink:href="#DejaVuSans-43"/>
     <use x="69.824219" xlink:href="#DejaVuSans-44"/>
     <use x="146.826172" xlink:href="#DejaVuSans-38"/>
    </g>
   </g>
   <g id="legend_4">
    <g id="patch_25">
     <path d="M 1040.901551 480.378916 
L 1068.60952 480.378916 
Q 1070.14952 480.378916 1070.14952 478.838916 
L 1070.14952 451.092448 
Q 1070.14952 449.552448 1068.60952 449.552448 
L 1040.901551 449.552448 
Q 1039.361551 449.552448 1039.361551 451.092448 
L 1039.361551 478.838916 
Q 1039.361551 480.378916 1040.901551 480.378916 
z
" style="fill:#ffffff;opacity:0.5;stroke:#cccccc;stroke-linejoin:miter;"/>
    </g>
    <g id="line2d_75">
     <path d="M 1042.056551 455.403244 
L 1045.906551 455.403244 
" style="fill:none;stroke:#0173b2;stroke-linecap:round;stroke-width:1.5;"/>
    </g>
    <g id="line2d_76"/>
    <g id="text_66">
     <!-- Low -->
     <g style="fill:#262626;" transform="translate(1049.756551 458.098244)scale(0.077 -0.077)">
      <use xlink:href="#DejaVuSans-4c"/>
      <use x="53.962891" xlink:href="#DejaVuSans-6f"/>
      <use x="115.144531" xlink:href="#DejaVuSans-77"/>
     </g>
    </g>
    <g id="line2d_77">
     <path d="M 1042.056551 464.395401 
L 1045.906551 464.395401 
" style="fill:none;stroke:#de8f05;stroke-linecap:round;stroke-width:1.5;"/>
    </g>
    <g id="line2d_78"/>
    <g id="text_67">
     <!-- Med -->
     <g style="fill:#262626;" transform="translate(1049.756551 467.090401)scale(0.077 -0.077)">
      <use xlink:href="#DejaVuSans-4d"/>
      <use x="86.279297" xlink:href="#DejaVuSans-65"/>
      <use x="147.802734" xlink:href="#DejaVuSans-64"/>
     </g>
    </g>
    <g id="line2d_79">
     <path d="M 1042.056551 473.387557 
L 1045.906551 473.387557 
" style="fill:none;stroke:#029e73;stroke-linecap:round;stroke-width:1.5;"/>
    </g>
    <g id="line2d_80"/>
    <g id="text_68">
     <!-- High -->
     <g style="fill:#262626;" transform="translate(1049.756551 476.082557)scale(0.077 -0.077)">
      <use xlink:href="#DejaVuSans-48"/>
      <use x="75.195312" xlink:href="#DejaVuSans-69"/>
      <use x="102.978516" xlink:href="#DejaVuSans-67"/>
      <use x="166.455078" xlink:href="#DejaVuSans-68"/>
     </g>
    </g>
   </g>
  </g>
 </g>
 <defs>
  <clipPath id="p264d97f73f">
   <rect height="384.715291" width="486.97451" x="44.62525" y="12.382687"/>
  </clipPath>
  <clipPath id="pbed2c6f20f">
   <rect height="384.715291" width="486.97451" x="587.02501" y="12.382687"/>
  </clipPath>
  <clipPath id="p67f303ee48">
   <rect height="384.715291" width="486.97451" x="44.62525" y="445.702448"/>
  </clipPath>
  <clipPath id="p66a0ceaf6a">
   <rect height="384.715291" width="486.97451" x="587.02501" y="445.702448"/>
  </clipPath>
 </defs>
</svg>
